<svg xmlns="http://www.w3.org/2000/svg" width="32" height="32" viewBox="50 24 36 53">
  <!-- IronBuild IB Isometric Block Monogram (light for dark backgrounds) -->

  <!-- Layer 0 -->
  <polygon points="60,44 64,46.5 60,49 56,46.5" fill="#777777"/>
  <polygon points="64,46.5 64,52.5 60,55 60,49" fill="#888888"/>
  <polygon points="56,46.5 56,52.5 60,55 60,49" fill="#666666"/>

  <polygon points="68,49 72,51.5 68,54 64,51.5" fill="#777777"/>
  <polygon points="72,51.5 72,57.5 68,60 68,54" fill="#888888"/>
  <polygon points="64,51.5 64,57.5 68,60 68,54" fill="#666666"/>

  <polygon points="64,51.5 68,54 64,56.5 60,54" fill="#777777"/>
  <polygon points="68,54 68,60 64,62.5 64,56.5" fill="#888888"/>
  <polygon points="60,54 60,60 64,62.5 64,56.5" fill="#666666"/>

  <!-- Layer 1 -->
  <polygon points="60,38 64,40.5 60,43 56,40.5" fill="#999999"/>
  <polygon points="64,40.5 64,46.5 60,49 60,43" fill="#AAAAAA"/>
  <polygon points="56,40.5 56,46.5 60,49 60,43" fill="#888888"/>

  <polygon points="68,43 72,45.5 68,48 64,45.5" fill="#999999"/>
  <polygon points="72,45.5 72,51.5 68,54 68,48" fill="#AAAAAA"/>
  <polygon points="64,45.5 64,51.5 68,54 68,48" fill="#888888"/>

  <polygon points="64,45.5 68,48 64,50.5 60,48" fill="#999999"/>
  <polygon points="68,48 68,54 64,56.5 64,50.5" fill="#AAAAAA"/>
  <polygon points="60,48 60,54 64,56.5 64,50.5" fill="#888888"/>

  <!-- Layer 2 -->
  <polygon points="60,32 64,34.5 60,37 56,34.5" fill="#999999"/>
  <polygon points="64,34.5 64,40.5 60,43 60,37" fill="#AAAAAA"/>
  <polygon points="56,34.5 56,40.5 60,43 60,37" fill="#888888"/>

  <polygon points="68,37 72,39.5 68,42 64,39.5" fill="#999999"/>
  <polygon points="72,39.5 72,45.5 68,48 68,42" fill="#AAAAAA"/>
  <polygon points="64,39.5 64,45.5 68,48 68,42" fill="#888888"/>

  <polygon points="64,39.5 68,42 64,44.5 60,42" fill="#999999"/>
  <polygon points="68,42 68,48 64,50.5 64,44.5" fill="#AAAAAA"/>
  <polygon points="60,42 60,48 64,50.5 64,44.5" fill="#888888"/>

  <!-- Layer 3 -->
  <polygon points="60,26 64,28.5 60,31 56,28.5" fill="#BBBBBB"/>
  <polygon points="64,28.5 64,34.5 60,37 60,31" fill="#CCCCCC"/>
  <polygon points="56,28.5 56,34.5 60,37 60,31" fill="#AAAAAA"/>

  <polygon points="68,31 72,33.5 68,36 64,33.5" fill="#BBBBBB"/>
  <polygon points="72,33.5 72,39.5 68,42 68,36" fill="#CCCCCC"/>
  <polygon points="64,33.5 64,39.5 68,42 68,36" fill="#AAAAAA"/>

  <polygon points="64,33.5 68,36 64,38.5 60,36" fill="#BBBBBB"/>
  <polygon points="68,36 68,42 64,44.5 64,38.5" fill="#CCCCCC"/>
  <polygon points="60,36 60,42 64,44.5 64,38.5" fill="#AAAAAA"/>
</svg>
