<?xml version="1.0" encoding="UTF-8"?>
<svg id="Layer_1" data-name="Layer 1" xmlns="http://www.w3.org/2000/svg" xmlns:xlink="http://www.w3.org/1999/xlink" version="1.1" viewBox="0 0 516.5 263"><metadata><c2pa:manifest xmlns:c2pa="http://c2pa.org/manifest">AAA0RWp1bWIAAAAeanVtZGMycGEAEQAQgAAAqgA4m3EDYzJwYQAAADQfanVtYgAAAEdqdW1kYzJtYQARABCAAACqADibcQN1cm46dXVpZDo0OGE0ZGEwYi0zZGYxLTRjZWMtYjk4OC0yZjU4ODNlYjQ4YjAAAAABtWp1bWIAAAApanVtZGMyYXMAEQAQgAAAqgA4m3EDYzJwYS5hc3NlcnRpb25zAAAAANdqdW1iAAAAJmp1bWRjYm9yABEAEIAAAKoAOJtxA2MycGEuYWN0aW9ucwAAAACpY2JvcqFnYWN0aW9uc4GjZmFjdGlvbmtjMnBhLmVkaXRlZG1zb2Z0d2FyZUFnZW50bUFkb2JlIEZpcmVmbHlxZGlnaXRhbFNvdXJjZVR5cGV4U2h0dHA6Ly9jdi5pcHRjLm9yZy9uZXdzY29kZXMvZGlnaXRhbHNvdXJjZXR5cGUvY29tcG9zaXRlV2l0aFRyYWluZWRBbGdvcml0aG1pY01lZGlhAAAArWp1bWIAAAAoanVtZGNib3IAEQAQgAAAqgA4m3EDYzJwYS5oYXNoLmRhdGEAAAAAfWNib3KlamV4Y2x1c2lvbnOBomVzdGFydBkBAGZsZW5ndGgZRbRkbmFtZW5qdW1iZiBtYW5pZmVzdGNhbGdmc2hhMjU2ZGhhc2hYILWpNhHbNTxD0KToG5hg6V/3ILss2at682GhzpUPkUMMY3BhZEkAAAAAAAAAAAAAAAILanVtYgAAACRqdW1kYzJjbAARABCAAACqADibcQNjMnBhLmNsYWltAAAAAd9jYm9yqGhkYzp0aXRsZW9HZW5lcmF0ZWQgSW1hZ2VpZGM6Zm9ybWF0bWltYWdlL3N2Zyt4bWxqaW5zdGFuY2VJRHgseG1wOmlpZDo4YjY2ZDFkZS1iNjE2LTQ3YzktODM0My04ZmIyODMwMzcyNzNvY2xhaW1fZ2VuZXJhdG9yeDZBZG9iZV9JbGx1c3RyYXRvci8yOC40IGFkb2JlX2MycGEvMC43LjYgYzJwYS1ycy8wLjI1LjJ0Y2xhaW1fZ2VuZXJhdG9yX2luZm+Bv2RuYW1lcUFkb2JlIElsbHVzdHJhdG9yZ3ZlcnNpb25kMjguNP9pc2lnbmF0dXJleBlzZWxmI2p1bWJmPWMycGEuc2lnbmF0dXJlamFzc2VydGlvbnOComN1cmx4J3NlbGYjanVtYmY9YzJwYS5hc3NlcnRpb25zL2MycGEuYWN0aW9uc2RoYXNoWCBKacG9/6jeQTB4viTtzPgxOsHRZJU0VnGgDWsGszfUr6JjdXJseClzZWxmI2p1bWJmPWMycGEuYXNzZXJ0aW9ucy9jMnBhLmhhc2guZGF0YWRoYXNoWCBzhi5CsBdzEojr0CR0/pMEvknwRRyJlKTtmUZd20eRTWNhbGdmc2hhMjU2AAAwEGp1bWIAAAAoanVtZGMyY3MAEQAQgAAAqgA4m3EDYzJwYS5zaWduYXR1cmUAAAAv4GNib3LShFkM76IBOCQYIYJZBj0wggY5MIIEIaADAgECAhAVjf8nrCPSuCVLTmM3Hh2eMA0GCSqGSIb3DQEBCwUAMHUxCzAJBgNVBAYTAlVTMSMwIQYDVQQKExpBZG9iZSBTeXN0ZW1zIEluY29ycG9yYXRlZDEdMBsGA1UECxMUQWRvYmUgVHJ1c3QgU2VydmljZXMxIjAgBgNVBAMTGUFkb2JlIFByb2R1Y3QgU2VydmljZXMgRzMwHhcNMjQxMDE1MDAwMDAwWhcNMjUxMDE1MjM1OTU5WjCBqzETMBEGA1UEAwwKQWRvYmUgQzJQQTEoMCYGA1UECwwfQ29udGVudCBBdXRoZW50aWNpdHkgSW5pdGlhdGl2ZTETMBEGA1UECgwKQWRvYmUgSW5jLjERMA8GA1UEBwwIU2FuIEpvc2UxEzARBgNVBAgMCkNhbGlmb3JuaWExCzAJBgNVBAYTAlVTMSAwHgYJKoZIhvcNAQkBFhFjYWktb3BzQGFkb2JlLmNvbTCCASIwDQYJKoZIhvcNAQEBBQADggEPADCCAQoCggEBAMMQwYHQfT1y6TFz8OaDYGJBVgzz9Wkn7YfU2TyDTrTkJYadb+IfoTMWVhY5Gd0SUbqEga7EkmAWhH4gzCorIv7DsbhRygVf/5da790q464sQDVyJaoxnSGMnWjGhWv+aLxc/5uPklM9HHGM6sPr0gM7kckhp6YJvBpo/khCXC/xiB86lPW1MtzbIs2NqGNvMo99q25DqngA0jOdTqiCSpaBARRXsczLp86VPitrC6oXqEfBSTGkdHxl2v4Kkc4ZIgRYcFISz0vbOvkwp89PVGTJV23Rv4hSo91DxVA46odMLRYHM9uA61JWlnopbSh6LspgR7oq875jhtFbUj3qcTkCAwEAAaOCAYwwggGIMAwGA1UdEwEB/wQCMAAwDgYDVR0PAQH/BAQDAgeAMB4GA1UdJQQXMBUGCSqGSIb3LwEBDAYIKwYBBQUHAwQwgY4GA1UdIASBhjCBgzCBgAYJKoZIhvcvAQIDMHMwcQYIKwYBBQUHAgIwZQxjWW91IGFyZSBub3QgcGVybWl0dGVkIHRvIHVzZSB0aGlzIExpY2Vuc2UgQ2VydGlmaWNhdGUgZXhjZXB0IGFzIHBlcm1pdHRlZCBieSB0aGUgbGljZW5zZSBhZ3JlZW1lbnQuMF0GA1UdHwRWMFQwUqBQoE6GTGh0dHA6Ly9wa2ktY3JsLnN5bWF1dGguY29tL2NhXzdhNWMzYTBjNzMxMTc0MDZhZGQxOTMxMmJjMWJjMjNmL0xhdGVzdENSTC5jcmwwNwYIKwYBBQUHAQEEKzApMCcGCCsGAQUFBzABhhtodHRwOi8vcGtpLW9jc3Auc3ltYXV0aC5jb20wHwYDVR0jBBgwFoAUVyl6Mk3M/uQ1TsAfJHPOc1Or32owDQYJKoZIhvcNAQELBQADggIBAKq5ehS0PnPS2Gn9IoMk4BKzS/V5ponok96IShXrydwTe5FpGQ9c521cN151+bYEGiqvgIkgpXTcWBCqlPkavS69uhhoJQUgNLPw7NpMPti5Z05qIwBwh9wr1UW4Rhx62rIZp34MJhdU0pGlpOzcRIW7fcEKIhDJC0kHjOEuArvte+hcxHcvs85A5EVqnkjkDv6htlkbaP7yKt9BAn+r+hbWsySNQliKoQSuaCYqEjWy7AlSYWq91HGvQ9dbo3mVuJNozwrJ864k5halX7Xd5Nkl1EIO8EHEHF3ygSLVmbfM7Z9CGKGcyWtcfZfXb1ygCbzbA6M+Lg3q0vM/a8y7BEL8y9cj206ePv+pk0wFrKGg7ZpGYJt1/rH3z1918zBZn8yB4mH1I2uZyitm7OD+9bYrf9VPxQ9sXZac2UrqUagjBs/lE3lyPCKzeWUf/hfK0rJkQErY54IM/8A7nMHA5SW2OP0SqtwawIuC2pizCH8KP3Wy+eUw5SDnexwn5koGm3NVjtCo4ty1v1WZz/VRvFolBvlqrTdTkCAGZhVDlnV0Bi2oPiNTmmdQVyQzbCYl3INkxjQUhD6OOAJH5/TMxRisgeVLqzDeDR9KpWpoa4SoldPm+9xY8d99D/368QZs8eTaQEITSpLMfheM9UvAMtaNkwSJJHgBWw88vH/xcbsrWQalMIIGoTCCBImgAwIBAgIQDKi2VHuJ5tIGiXXNi5uJ4jANBgkqhkiG9w0BAQsFADBsMQswCQYDVQQGEwJVUzEjMCEGA1UEChMaQWRvYmUgU3lzdGVtcyBJbmNvcnBvcmF0ZWQxHTAbBgNVBAsTFEFkb2JlIFRydXN0IFNlcnZpY2VzMRkwFwYDVQQDExBBZG9iZSBSb290IENBIEcyMB4XDTE2MTEyOTAwMDAwMFoXDTQxMTEyODIzNTk1OVowdTELMAkGA1UEBhMCVVMxIzAhBgNVBAoTGkFkb2JlIFN5c3RlbXMgSW5jb3Jwb3JhdGVkMR0wGwYDVQQLExRBZG9iZSBUcnVzdCBTZXJ2aWNlczEiMCAGA1UEAxMZQWRvYmUgUHJvZHVjdCBTZXJ2aWNlcyBHMzCCAiIwDQYJKoZIhvcNAQEBBQADggIPADCCAgoCggIBALcfLr29CbNcSGz+DIOubAHqUXglpIA+iaexsohk2vaJdoH5+R3zlfx4mI2Yjs/k7hxVPg1zWnfOsRKoFXhlTJbyBxnvxB3CgcbxA13ZU1wecyBJH5dP0hp+yer01/DDcm30oveXkA1DmfX4wmqvjwRY0uWX3jZs4v8kfjLANIyiqFmq0kQhRRQaVBUFnwIC8lzssTp10DkLnY8TY+lrtF9CAdd/iB9dVnCnFhFlzOI+I4eoS8tvQndxKFRt6MXFXpzBfxDIA9rV48eDVG0zQdf4PfjEejcOTIaeZP4N2rTRMQMYbboAvk90g0oUhCX7NqrookVB7V90YTnCtbNTiYE+bNrPcRsuf7sVaXACGitiogyV1t8cTfJ1z5pNTUlbv5sbX2qa+E70iW4a1O1AN6oUGPZ+Dp9rGx9V9U8Puy03pPCggOWQ4IThET4iKfybfPd6qL9WxOayZGoHFYNFqo4fPTYQmgQPFckbd6L5RsginTVdlC925+b3RbE5O6qpqfZmpM9f0rlV2MSH+i+vvEVzmrV1mj5JrnLixNUzznj+0tTeSU6BQrPNJdg9hLcaEFxgkePCv3E1Eec1f30PoXSDs6KNJxZ++2PGHXdpO/8fQRO/KZqHjJ8OlV2H1wrlhII+qe46Wy6MUDKFjAlc5YO9llTYSRZUsOGg/H3Ons3hAgMBAAGjggE0MIIBMDASBgNVHRMBAf8ECDAGAQH/AgEAMDUGA1UdHwQuMCwwKqAooCaGJGh0dHA6Ly9jcmwuYWRvYmUuY29tL2Fkb2Jlcm9vdGcyLmNybDAOBgNVHQ8BAf8EBAMCAQYwFAYDVR0lBA0wCwYJKoZIhvcvAQEHMFcGA1UdIARQME4wTAYJKoZIhvcvAQIDMD8wPQYIKwYBBQUHAgEWMWh0dHBzOi8vd3d3LmFkb2JlLmNvbS9taXNjL3BraS9wcm9kX3N2Y2VfY3BzLmh0bWwwJAYDVR0RBB0wG6QZMBcxFTATBgNVBAMTDFNZTUMtNDA5Ni0zMzAdBgNVHQ4EFgQUVyl6Mk3M/uQ1TsAfJHPOc1Or32owHwYDVR0jBBgwFoAUphzhbVQkTKiPSHK/bqmM1eTsMdQwDQYJKoZIhvcNAQELBQADggIBAHHO5QeMptwt3MjgO2VeAJKBleuVICSvn2k4Xcl88bjapU0AZTslwRhcnr5Zt9wbBjtZgyX6M7si8k9vuyFcVhb1ucmDFfuUtTXgoTFyGZws1jV57oiEEnZjw/NkxFQpJ3kKRRE+DQ8EsaPP8pH8Oh8fH4bis9MI4Y5FjF5it3TWVyLmFXG8pxy8iTswPr1lN7B9k9Iz7RaexTd/RmZ3uGBtGlTJZx4bR4cWl1Qor9kVaEeMNULbyh0Kc3zzm0edwpe+Ii0rRlRSj8Ai2EUqWEReyer1Uv18VuC87zdm+lRCjnLyZjdy4acRUZd2GM1vncJ8LW7h1uliZZo332y5tTMSxRpRveWgs99V/MM6mDbL2/fuQF3L/C5evbS15jtTrbGP98CCzVBKeFS2UxN8Kpt5/ITJwpWYoismQkuy+BNJgpW8fgUUjB93laOo4L3uNf3ytxUDOEAjSJKRrOxY4y8vqbQvicslqnH7zkaxVfxjoAeYQ/huYISXCKXooA/5R7AkWLDmubBXakRIcCFi5klrTcHy2XSd3ZAnO8kaZt4GpeqkX05GKcUzccSsrym5GiQ6MUfb7Vqwt4ja0HfVb8Qt017bs6B26rpnqoHAKnn1hfburJ0OEPRZF83riQKzbkrzyIYAY1bYIB9MNL5v5ZgkGIgv2NdhngsX4GJS9927omZzaWdUc3ShaXRzdFRva2Vuc4GhY3ZhbFkOOTCCDjUwAwIBADCCDiwGCSqGSIb3DQEHAqCCDh0wgg4ZAgEDMQ8wDQYJYIZIAWUDBAIBBQAwgYIGCyqGSIb3DQEJEAEEoHMEcTBvAgEBBglghkgBhv1sBwEwMTANBglghkgBZQMEAgEFAAQg3QKrBKoVADaNt8AfMykY8G0ipie7hVkRyKZZtFGFUKsCED4si1UZQNcRJe2hWC9HiuQYDzIwMjQxMTI5MDgxNDMyWgIJAIlJIFnF52enoIILwDCCBQowggLyoAMCAQICEAwLL8d6eM+67WVWVMGaJAMwDQYJKoZIhvcNAQELBQAwYzELMAkGA1UEBhMCVVMxFzAVBgNVBAoTDkRpZ2lDZXJ0LCBJbmMuMTswOQYDVQQDEzJEaWdpQ2VydCBUcnVzdGVkIEc0IFJTQTQwOTYgU0hBMjU2IFRpbWVTdGFtcGluZyBDQTAeFw0yNDExMjAwMDAwMDBaFw0zNjAyMTkyMzU5NTlaMFsxCzAJBgNVBAYTAlVTMREwDwYDVQQKEwhEaWdpQ2VydDE5MDcGA1UEAxMwRUNDMjU2X1NIQTI1Nl9UaW1lc3RhbXBfUmVzcG9uZGVyX0Fkb2JlX05PVl8yMDI0MFkwEwYHKoZIzj0CAQYIKoZIzj0DAQcDQgAE0PwehfiBmKYqkEC8Tn6pFJnk5kkVmc8UgrcDPNrIlv0m12s5LUchFpsCFbPvDyY4VfQuH1CdtyBkcbH8yTPJXqOCAYswggGHMA4GA1UdDwEB/wQEAwIHgDAMBgNVHRMBAf8EAjAAMBYGA1UdJQEB/wQMMAoGCCsGAQUFBwMIMCAGA1UdIAQZMBcwCAYGZ4EMAQQCMAsGCWCGSAGG/WwHATAfBgNVHSMEGDAWgBS6FtltTYUvcyl2mi91jGogj57IbzAdBgNVHQ4EFgQU7NEcb3znoE3kMT+HAAjUrdR9NrswWgYDVR0fBFMwUTBPoE2gS4ZJaHR0cDovL2NybDMuZGlnaWNlcnQuY29tL0RpZ2lDZXJ0VHJ1c3RlZEc0UlNBNDA5NlNIQTI1NlRpbWVTdGFtcGluZ0NBLmNybDCBkAYIKwYBBQUHAQEEgYMwgYAwJAYIKwYBBQUHMAGGGGh0dHA6Ly9vY3NwLmRpZ2ljZXJ0LmNvbTBYBggrBgEFBQcwAoZMaHR0cDovL2NhY2VydHMuZGlnaWNlcnQuY29tL0RpZ2lDZXJ0VHJ1c3RlZEc0UlNBNDA5NlNIQTI1NlRpbWVTdGFtcGluZ0NBLmNydDANBgkqhkiG9w0BAQsFAAOCAgEAouzBIPJ5Ly2riyO3AI9tQ4JzBK4dJp7QreHOLbFvciUGXWb9Z/BNXbnmsm+iImfJmGpmyJq03rlSsBqlEiE2U4lYbRUT980Q/Q6RZPhMeD9NdCErR/3g9ZYCum1X2mNIL83CEUD9wsCM6gWQBPNXOUCDYz7PNXLySzhSnf3F+8zoaEL684jQ8teVDU+X7lEXtn4qADULETWDplVwHYNkyuzpLWA/hB/w/IFq+5x0IUSTLg+eBjY4mZzT52F8+hd4+wbtmlZYq70BgALK1tuy6oYPZLFufmi/oPf5cqkaDK1i0suCg0Gs7TwfjyrJHnDtUe3WyW8O1ARVZfhmxmlHOMeh71SzTS+YR44i63/QOM8XudnvWaqUlO5A7u3bEV75vriyzF4xxUsf49LLSHMZ0B8Di+AOUUblB9V8NcM9gohryBzXKGK5Kn5G+k7CiVO57Q6jShSmd+PbARK03V8FaCHeM0v3FfwOaztSsOWjTv81EwrUJG3DIPPFxlqiJmmJiB4SLx2hNZ0XT1gmtEIa8b4qHj+OaeP86nfya1WzbKBLhAUkSDwd/lYi2qBZYpmUVHj88CmL8k63eoO9plbReD62278tZKglJrGQzBap99w0dDfEM6pM4q927nzciOZPeUatzV3G3zWA8famfIIwruDR7UsQHSSrMM2/YIuo8hUwggauMIIElqADAgECAhAHNje3JFR82Ees/ShmKl5bMA0GCSqGSIb3DQEBCwUAMGIxCzAJBgNVBAYTAlVTMRUwEwYDVQQKEwxEaWdpQ2VydCBJbmMxGTAXBgNVBAsTEHd3dy5kaWdpY2VydC5jb20xITAfBgNVBAMTGERpZ2lDZXJ0IFRydXN0ZWQgUm9vdCBHNDAeFw0yMjAzMjMwMDAwMDBaFw0zNzAzMjIyMzU5NTlaMGMxCzAJBgNVBAYTAlVTMRcwFQYDVQQKEw5EaWdpQ2VydCwgSW5jLjE7MDkGA1UEAxMyRGlnaUNlcnQgVHJ1c3RlZCBHNCBSU0E0MDk2IFNIQTI1NiBUaW1lU3RhbXBpbmcgQ0EwggIiMA0GCSqGSIb3DQEBAQUAA4ICDwAwggIKAoICAQDGhjUGSbPBPXJJUVXHJQPE8pE3qZdRodbSg9GeTKJtoLDMg/la9hGhRBVCX6SI82j6ffOciQt/nR+eDzMfUBMLJnOWbfhXqAJ9/UO0hNoR8XOxs+4rgISKIhjf69o9xBd/qxkrPkLcZ47qUT3w1lbU5ygt69OxtXXnHwZljZQp09nsad/ZkIdGAHvbREGJ3HxqV3rwN3mfXazL6IRktFLydkf3YYMZ3V+0VAshaG43IbtArF+y3kp9zvU5EmfvDqVjbOSmxR3NNg1c1eYbqMFkdECnwHLFuk4fsbVYTXn+149zk6wsOeKlSNbwsDETqVcplicu9Yemj052FVUmcJgmf6AaRyBD40NjgHt1biclkJg6OBGz9vae5jtb7IHeIhTZgirHkr+g3uM+onP65x9abJTyUpURK1h0QCirc0PO30qhHGs4xSnzyqqWc0Jon7ZGs506o9UD4L/wojzKQtwYSH8UNM/STKvvmz3+DrhkKvp1KCRB7UK/BZxmSVJQ9FHzNklNiyDSLFc1eSuo80VgvCONWPfcYd6T/jnA+bIwpUzX6ZhKWD7TA4j+s4/TXkt2ElGTyYwMO1uKIqjBJgj5FBASA31fI7tk42PgpuE+9sJ0sj8eCXbsq11GdeJgo1gJASgADoRU7s7pXcheMBK9Rp6103a50g5rmQzSM7TNsQIDAQABo4IBXTCCAVkwEgYDVR0TAQH/BAgwBgEB/wIBADAdBgNVHQ4EFgQUuhbZbU2FL3MpdpovdYxqII+eyG8wHwYDVR0jBBgwFoAU7NfjgtJxXWRM3y5nP+e6mK4cD08wDgYDVR0PAQH/BAQDAgGGMBMGA1UdJQQMMAoGCCsGAQUFBwMIMHcGCCsGAQUFBwEBBGswaTAkBggrBgEFBQcwAYYYaHR0cDovL29jc3AuZGlnaWNlcnQuY29tMEEGCCsGAQUFBzAChjVodHRwOi8vY2FjZXJ0cy5kaWdpY2VydC5jb20vRGlnaUNlcnRUcnVzdGVkUm9vdEc0LmNydDBDBgNVHR8EPDA6MDigNqA0hjJodHRwOi8vY3JsMy5kaWdpY2VydC5jb20vRGlnaUNlcnRUcnVzdGVkUm9vdEc0LmNybDAgBgNVHSAEGTAXMAgGBmeBDAEEAjALBglghkgBhv1sBwEwDQYJKoZIhvcNAQELBQADggIBAH1ZjsCTtm+YqUQiAX5m1tghQuGwGC4QTRPPMFPOvxj7x1Bd4ksp+3CKDaopafxpwc8dB+k+YMjYC+VcW9dth/qEICU0MWfNthKWb8RQTGIdDAiCqBa9qVbPFXONASIlzpVpP0d3+3J0FNf/q0+KLHqrhc1DX+1gtqpPkWaeLJ7giqzl/Yy8ZCaHbJK9nXzQcAp876i8dU+6WvepELJd6f8oVInw1YpxdmXazPByoyP6wCeCRK6ZJxurJB4mwbfeKuv2nrF5mYGjVoarCkXJ38SNoOeY+/umnXKvxMfBwWpx2cYTgAnEtp/Nh4cku0+jSbl3ZpHxcpzpSwJSpzd+k1OsOx0ISQ+UzTl63f8lY5knLD0/a6fxZsNBzU+2QJshIUDQtxMkzdwdeDrknq3lNHGS1yZr5Dhzq6YBT70/O3itTK37xJV77QpfMzmHQXh6OOmc4d0j/R0o08f56PGYX/sr2H7yRp11LB4nLCbbbxV7HhmLNriT1ObyF5lZynDwN7+YAN8gFk8n+2BnFqFmut1VwDophrCYoCvtlUG3OtUVmDG0YgkPCr2B2RP+v6TR81fZvAT6gt4y3wSJ8ADNXcL50CN/AAvkdgIm2fBldkKmKYcJRyvmfxqkhQ/8mJb2VVQrH4D6wPIOK+XW+6kvRBVK5xMOHds3OBqhK/bt1nz8MYIBuDCCAbQCAQEwdzBjMQswCQYDVQQGEwJVUzEXMBUGA1UEChMORGlnaUNlcnQsIEluYy4xOzA5BgNVBAMTMkRpZ2lDZXJ0IFRydXN0ZWQgRzQgUlNBNDA5NiBTSEEyNTYgVGltZVN0YW1waW5nIENBAhAMCy/HenjPuu1lVlTBmiQDMA0GCWCGSAFlAwQCAQUAoIHRMBoGCSqGSIb3DQEJAzENBgsqhkiG9w0BCRABBDAcBgkqhkiG9w0BCQUxDxcNMjQxMTI5MDgxNDMyWjArBgsqhkiG9w0BCRACDDEcMBowGDAWBBT3EwJUZBucztJRLWLFv58phIz8+DAvBgkqhkiG9w0BCQQxIgQg0m3geBJyIVYgNgGzLnHZ06b0TmSA9xDjAQf+8VJskUowNwYLKoZIhvcNAQkQAi8xKDAmMCQwIgQguXomaB0Y6bl8Yz74SDlkVXWXltpQQ0Qsj4zN5SfgAKkwCgYIKoZIzj0EAwIERzBFAiApFCOK+Fnsfc0lMq1PWXG3OLhow3aTlpq4ONeQQyfDGAIhANAMgXLhRCEpDUjcwQy8VQRSOLCjJWnRdMcWkm8DbGHMY3BhZFkThAAAAAAAAAAAAAAAAAAAAAAAAAAAAAAAAAAAAAAAAAAAAAAAAAAAAAAAAAAAAAAAAAAAAAAAAAAAAAAAAAAAAAAAAAAAAAAAAAAAAAAAAAAAAAAAAAAAAAAAAAAAAAAAAAAAAAAAAAAAAAAAAAAAAAAAAAAAAAAAAAAAAAAAAAAAAAAAAAAAAAAAAAAAAAAAAAAAAAAAAAAAAAAAAAAAAAAAAAAAAAAAAAAAAAAAAAAAAAAAAAAAAAAAAAAAAAAAAAAAAAAAAAAAAAAAAAAAAAAAAAAAAAAAAAAAAAAAAAAAAAAAAAAAAAAAAAAAAAAAAAAAAAAAAAAAAAAAAAAAAAAAAAAAAAAAAAAAAAAAAAAAAAAAAAAAAAAAAAAAAAAAAAAAAAAAAAAAAAAAAAAAAAAAAAAAAAAAAAAAAAAAAAAAAAAAAAAAAAAAAAAAAAAAAAAAAAAAAAAAAAAAAAAAAAAAAAAAAAAAAAAAAAAAAAAAAAAAAAAAAAAAAAAAAAAAAAAAAAAAAAAAAAAAAAAAAAAAAAAAAAAAAAAAAAAAAAAAAAAAAAAAAAAAAAAAAAAAAAAAAAAAAAAAAAAAAAAAAAAAAAAAAAAAAAAAAAAAAAAAAAAAAAAAAAAAAAAAAAAAAAAAAAAAAAAAAAAAAAAAAAAAAAAAAAAAAAAAAAAAAAAAAAAAAAAAAAAAAAAAAAAAAAAAAAAAAAAAAAAAAAAAAAAAAAAAAAAAAAAAAAAAAAAAAAAAAAAAAAAAAAAAAAAAAAAAAAAAAAAAAAAAAAAAAAAAAAAAAAAAAAAAAAAAAAAAAAAAAAAAAAAAAAAAAAAAAAAAAAAAAAAAAAAAAAAAAAAAAAAAAAAAAAAAAAAAAAAAAAAAAAAAAAAAAAAAAAAAAAAAAAAAAAAAAAAAAAAAAAAAAAAAAAAAAAAAAAAAAAAAAAAAAAAAAAAAAAAAAAAAAAAAAAAAAAAAAAAAAAAAAAAAAAAAAAAAAAAAAAAAAAAAAAAAAAAAAAAAAAAAAAAAAAAAAAAAAAAAAAAAAAAAAAAAAAAAAAAAAAAAAAAAAAAAAAAAAAAAAAAAAAAAAAAAAAAAAAAAAAAAAAAAAAAAAAAAAAAAAAAAAAAAAAAAAAAAAAAAAAAAAAAAAAAAAAAAAAAAAAAAAAAAAAAAAAAAAAAAAAAAAAAAAAAAAAAAAAAAAAAAAAAAAAAAAAAAAAAAAAAAAAAAAAAAAAAAAAAAAAAAAAAAAAAAAAAAAAAAAAAAAAAAAAAAAAAAAAAAAAAAAAAAAAAAAAAAAAAAAAAAAAAAAAAAAAAAAAAAAAAAAAAAAAAAAAAAAAAAAAAAAAAAAAAAAAAAAAAAAAAAAAAAAAAAAAAAAAAAAAAAAAAAAAAAAAAAAAAAAAAAAAAAAAAAAAAAAAAAAAAAAAAAAAAAAAAAAAAAAAAAAAAAAAAAAAAAAAAAAAAAAAAAAAAAAAAAAAAAAAAAAAAAAAAAAAAAAAAAAAAAAAAAAAAAAAAAAAAAAAAAAAAAAAAAAAAAAAAAAAAAAAAAAAAAAAAAAAAAAAAAAAAAAAAAAAAAAAAAAAAAAAAAAAAAAAAAAAAAAAAAAAAAAAAAAAAAAAAAAAAAAAAAAAAAAAAAAAAAAAAAAAAAAAAAAAAAAAAAAAAAAAAAAAAAAAAAAAAAAAAAAAAAAAAAAAAAAAAAAAAAAAAAAAAAAAAAAAAAAAAAAAAAAAAAAAAAAAAAAAAAAAAAAAAAAAAAAAAAAAAAAAAAAAAAAAAAAAAAAAAAAAAAAAAAAAAAAAAAAAAAAAAAAAAAAAAAAAAAAAAAAAAAAAAAAAAAAAAAAAAAAAAAAAAAAAAAAAAAAAAAAAAAAAAAAAAAAAAAAAAAAAAAAAAAAAAAAAAAAAAAAAAAAAAAAAAAAAAAAAAAAAAAAAAAAAAAAAAAAAAAAAAAAAAAAAAAAAAAAAAAAAAAAAAAAAAAAAAAAAAAAAAAAAAAAAAAAAAAAAAAAAAAAAAAAAAAAAAAAAAAAAAAAAAAAAAAAAAAAAAAAAAAAAAAAAAAAAAAAAAAAAAAAAAAAAAAAAAAAAAAAAAAAAAAAAAAAAAAAAAAAAAAAAAAAAAAAAAAAAAAAAAAAAAAAAAAAAAAAAAAAAAAAAAAAAAAAAAAAAAAAAAAAAAAAAAAAAAAAAAAAAAAAAAAAAAAAAAAAAAAAAAAAAAAAAAAAAAAAAAAAAAAAAAAAAAAAAAAAAAAAAAAAAAAAAAAAAAAAAAAAAAAAAAAAAAAAAAAAAAAAAAAAAAAAAAAAAAAAAAAAAAAAAAAAAAAAAAAAAAAAAAAAAAAAAAAAAAAAAAAAAAAAAAAAAAAAAAAAAAAAAAAAAAAAAAAAAAAAAAAAAAAAAAAAAAAAAAAAAAAAAAAAAAAAAAAAAAAAAAAAAAAAAAAAAAAAAAAAAAAAAAAAAAAAAAAAAAAAAAAAAAAAAAAAAAAAAAAAAAAAAAAAAAAAAAAAAAAAAAAAAAAAAAAAAAAAAAAAAAAAAAAAAAAAAAAAAAAAAAAAAAAAAAAAAAAAAAAAAAAAAAAAAAAAAAAAAAAAAAAAAAAAAAAAAAAAAAAAAAAAAAAAAAAAAAAAAAAAAAAAAAAAAAAAAAAAAAAAAAAAAAAAAAAAAAAAAAAAAAAAAAAAAAAAAAAAAAAAAAAAAAAAAAAAAAAAAAAAAAAAAAAAAAAAAAAAAAAAAAAAAAAAAAAAAAAAAAAAAAAAAAAAAAAAAAAAAAAAAAAAAAAAAAAAAAAAAAAAAAAAAAAAAAAAAAAAAAAAAAAAAAAAAAAAAAAAAAAAAAAAAAAAAAAAAAAAAAAAAAAAAAAAAAAAAAAAAAAAAAAAAAAAAAAAAAAAAAAAAAAAAAAAAAAAAAAAAAAAAAAAAAAAAAAAAAAAAAAAAAAAAAAAAAAAAAAAAAAAAAAAAAAAAAAAAAAAAAAAAAAAAAAAAAAAAAAAAAAAAAAAAAAAAAAAAAAAAAAAAAAAAAAAAAAAAAAAAAAAAAAAAAAAAAAAAAAAAAAAAAAAAAAAAAAAAAAAAAAAAAAAAAAAAAAAAAAAAAAAAAAAAAAAAAAAAAAAAAAAAAAAAAAAAAAAAAAAAAAAAAAAAAAAAAAAAAAAAAAAAAAAAAAAAAAAAAAAAAAAAAAAAAAAAAAAAAAAAAAAAAAAAAAAAAAAAAAAAAAAAAAAAAAAAAAAAAAAAAAAAAAAAAAAAAAAAAAAAAAAAAAAAAAAAAAAAAAAAAAAAAAAAAAAAAAAAAAAAAAAAAAAAAAAAAAAAAAAAAAAAAAAAAAAAAAAAAAAAAAAAAAAAAAAAAAAAAAAAAAAAAAAAAAAAAAAAAAAAAAAAAAAAAAAAAAAAAAAAAAAAAAAAAAAAAAAAAAAAAAAAAAAAAAAAAAAAAAAAAAAAAAAAAAAAAAAAAAAAAAAAAAAAAAAAAAAAAAAAAAAAAAAAAAAAAAAAAAAAAAAAAAAAAAAAAAAAAAAAAAAAAAAAAAAAAAAAAAAAAAAAAAAAAAAAAAAAAAAAAAAAAAAAAAAAAAAAAAAAAAAAAAAAAAAAAAAAAAAAAAAAAAAAAAAAAAAAAAAAAAAAAAAAAAAAAAAAAAAAAAAAAAAAAAAAAAAAAAAAAAAAAAAAAAAAAAAAAAAAAAAAAAAAAAAAAAAAAAAAAAAAAAAAAAAAAAAAAAAAAAAAAAAAAAAAAAAAAAAAAAAAAAAAAAAAAAAAAAAAAAAAAAAAAAAAAAAAAAAAAAAAAAAAAAAAAAAAAAAAAAAAAAAAAAAAAAAAAAAAAAAAAAAAAAAAAAAAAAAAAAAAAAAAAAAAAAAAAAAAAAAAAAAAAAAAAAAAAAAAAAAAAAAAAAAAAAAAAAAAAAAAAAAAAAAAAAAAAAAAAAAAAAAAAAAAAAAAAAAAAAAAAAAAAAAAAAAAAAAAAAAAAAAAAAAAAAAAAAAAAAAAAAAAAAAAAAAAAAAAAAAAAAAAAAAAAAAAAAAAAAAAAAAAAAAAAAAAAAAAAAAAAAAAAAAAAAAAAAAAAAAAAAAAAAAAAAAAAAAAAAAAAAAAAAAAAAAAAAAAAAAAAAAAAAAAAAAAAAAAAAAAAAAAAAAAAAAAAAAAAAAAAAAAAAAAAAAAAAAAAAAAAAAAAAAAAAAAAAAAAAAAAAAAAAAAAAAAAAAAAAAAAAAAAAAAAAAAAAAAAAAAAAAAAAAAAAAAAAAAAAAAAAAAAAAAAAAAAAAAAAAAAAAAAAAAAAAAAAAAAAAAAAAAAAAAAAAAAAAAAAAAAAAAAAAAAAAAAAAAAAAAAAAAAAAAAAAAAAAAAAAAAAAAAAAAAAAAAAAAAAAAAAAAAAAAAAAAAAAAAAAAAAAAAAAAAAAAAAAAAAAAAAAAAAAAAAAAAAAAAAAAAAAAAAAAAAAAAAAAAAAAAAAAAAAAAAAAAAAAAAAAAAAAAAAAAAAAAAAAAAAAAAAAAAAAAAAAAAAAAAAAAAAAAAAAAAAAAAAAAAAAAAAAAAAAAAAAAAAAAAAAAAAAAAAAAAAAAAAAAAAAAAAAAAAAAAAAAAAAAAAAAAAAAAAAAAAAAAAAAAAAAAAAAAAAAAAAAAAAAAAAAAAAAAAAAAAAAAAAAAAAAAAAAAAAAAAAAAAAAAAAAAAAAAAAAAAAAAAAAAAAAAAAAAAAAAAAAAAAAAAAAAAAAAAAAAAAAAAAAAAAAAAAAAAAAAAAAAAAAAAAAAAAAAAAAAAAAAAAAAAAAAAAAAAAAAAAAAAAAAAAAAAAAAAAAAAAAAAAAAAAAAAAAAAAAAAAAAAAAAAAAAAAAAAAAAAAAAAAAAAAAAAAAAAAAAAAAAAAAAAAAAAAAAAAAAAAAAAAAAAAAAAAAAAAAAAAAAAAAAAAAAAAAAAAAAAAAAAAAAAAAAAAAAAAAAAAAAAAAAAAAAAAAAAAAAAAAAAAAAAAAAAAAAAAAAAAAAAAAAAAAAAAAAAAAAAAAAAAAAAAAAAAAAAAAAAAAAAAAAAAAAAAAAAAAAAAAAAAAAAAAAAAAAAAAAAAAAAAAAAAAAAAAAAAAAAAAAAAAAAAAAAAAAAAAAAAAAAAAAAAAAAAAAAAAAAAAAAAAAAAAAAAAAAAAAAAAAAAAAAAAAAAAAAAAAAAAAAAAAAAAAAAAAAAAAAAAAAAAAAAAAAAAAAAAAAAAAAAAAAAAAAAAAAAAAAAAAAAAAAAAAAAAAAAAAAAAAAAAAAAAAAAAAAAAAAAAAAAAAAAAAAAAAAAAAAAAAAAAAAAAAAAAAAAAAAAAAAAAAAAAAAAAAAAAAAAAAAAAAAAAAAAAAAAAAAAAAAAAAAAAAAAAAAAAAAAAAAAAAAAAAAAAAAAAAAAAAAAAAAAAAAAAAAAAAAAAAAAAAAAAAAAAAAAAAAAAAAAAAAAAAAAAAAAAAAAAAAAAAAAAAAAAAAAAAAAAAAAAAAAAAAAAAAAAAAAAAAAAAAAAAAAAAAAAAAAAAAAAAAAAAAAAAAAAAAAAAAAAAAAAAAAAAAAAAAAAAAAAAAAAAAAAAAAAAAAAAAAAAAAAAAAAAAAAAAAAAAAAAAAAAAAAAAAAAAAAAAAAAAAAAAAAAAAAAAAAAAAAAAAAAAAAAAAAAAAAAAAAAAAAAAAAAAAAAAAAAAAAAAAAAAAAAAAAAAAAAAAAAAAAAAAAAAAAAAAAAAAAAAAAAAAAAAAAAAAAAAAAAAAAAAAAAAAAAAAAAAAAAAAAAAAAAAAAAAAAAAAAAAAAAAAAAAAAAAAAAAAAAAAAAAAAAAAAAAAAAAAAAAAAAAAAAAAAAAAAAAAAAAAAAAAAAAAAAAAAAAAAAAAAAAAAAAAAAAAAAAAAAAAAAAAAAAAAAAAAAAAAAAAAAAAAAAAAAAAAAAAAAAAAAAAAAAAAAAAAAAAAAAAAAAAAAAAAAAAAAAAAAAAAAAAAAAAAAAAAAAAAAAAAAAAAAAAAAAAAAAAAAAAAAAAAAAAAAAAAAAAAAAAAAAAAAAAAAAAAAAAAAAAAAAAAAAAAAAAAAAAAAAAAAAAAAAAAAAAAAAAAAAAAAAAAAAAAAAAAAAAAAAAAAAAAAAAAAAAAAAAAAAAAAAAAAAAAAAAAAAAAAAAAAAAAAAAAAAAAAAAAAAAAAAAAAAAAAAAAAAAAAAAAAAAAAAAAAAAAAAAAAAAAAAAAAAAAAAAAAAAAAAAAAAAAAAAAAAAAAAAAAAAAAAAAAAAAAAAAAAAAAAAAAAAAAAAAAAAAAAAAAAAAAAAAAAAAAAAAAAAAAAAAAAAAAAAAAAAAAAAAAAAAAAAAAAAAAAAAAAAAAAAAAAAAAAAAAAAAAAAAAAAAAAAAAAAAAAAAAAAAAAAAAAAAAAAAAAAAAAAAAAAAAAAAAAAAAAAAAAAAAAAAAAAAAAAAAAAAAAAAAAAAAAAAAAAAAAAAAAAAAAAAAAAAAAAAAAAAAAAAAAAAAAAAAAAAAAAAAAAAAAAAAAAAAAAAAAAAAAAAAAAAAAAAAAAAAAAAAAAAAAAAAAAAAAAAAAAAAAAAAAAAAAAAAAAAAAAAAAAAAAAAAAAAAAAAAAAAAAAAAAAAAAAAAAAAAAAAAAAAAAAAAAAAAAAAAAAAAAAAAAAAAAAAAAAAAAAAAAAAAAAAAAAAAAAAAAAAAAAAAAAAAAAAAAAAAAAAAAAAAAAAAAAD2WQEAmtKCk4hjRoCbC/Rn3UFtj2e49XUPLpqTZgCqqENPgm5SS+D2wjmiCBiQWb5fEU2AJvIPCh8mrDRcpjxx92TzixwPt0vKJ6wK2djXrh91A+z6bEru+X0C7LUjiHiKnwC0t9EpwLsvqft9jTuacVgk/SN4WYl8EVmp1P/vozZscuMQc740r5BJRdFE3pbH3wRMSHlSNIU0MhHJOI2x8b4gso1O6utNWA1PTZVuZHhcr+AXJZboPFBp7Qn0uCc2HFEXwDyTGCTVxM0Jco1dZ2haD99cy5VfdToS863/6OF32ntjxHAcNvm4ET7+DcKfdDVtKWHjTvocJ9b+oukSyP3ByA==</c2pa:manifest></metadata>
  <defs>
    <style>
      .cls-1 {
        font-family: Arial-ItalicMT, Arial;
        font-size: 24.8px;
        font-style: italic;
      }

      .cls-1, .cls-2 {
        isolation: isolate;
      }

      .cls-1, .cls-3 {
        fill: #fff;
      }

      .cls-4 {
        clip-path: url(#clippath);
      }

      .cls-5 {
        fill: none;
      }

      .cls-5, .cls-6, .cls-3 {
        stroke-width: 0px;
      }

      .cls-6 {
        fill: #d92426;
      }
    </style>
    <clipPath id="clippath">
      <rect class="cls-5" width="516.5" height="263"/>
    </clipPath>
  </defs>
  <g id="layer_1" data-name="layer 1">
    <path class="cls-3" d="M287,140.6H60.8l243.8-97.3-17.7,97.3Z"/>
    <path class="cls-3" d="M287,140.6H60.8l213.7-64.6,12.5,64.6Z"/>
    <path class="cls-6" d="M60.8,140.6l189.2-39,37,39"/>
    <g class="cls-4">
      <g>
        <path class="cls-3" d="M367.5,44.5h24.4l-17.3,95.2h-15.8l11.6-64.4c.4-1.9.9-4.4,1.5-7.8.6-3.3,1.1-5.9,1.4-7.7l-29.8,79.9h-16.5l-.8-79.9c-.3,1.8-.7,4.4-1.3,7.7-.6,3.3-1,5.9-1.4,7.8l-11.6,64.4h-15.8l17.3-95.2h24.7l1.2,74.8,28.3-74.8Z"/>
        <path class="cls-3" d="M461,54.6c1.8,4,2.2,8.9,1.2,14.5-1.1,5.8-3.2,10.5-6.3,14-1.7,2-4.1,3.8-7.1,5.4,3.8,1.8,6.4,4.6,7.9,8.4,1.4,3.8,1.6,8.5.6,13.9-1,5.6-3.2,10.7-6.4,15.2-2.1,3-4.5,5.5-7.2,7.5-3,2.3-6.4,3.9-10.1,4.8-3.7.9-7.6,1.3-11.8,1.3h-36.8l17.3-95.2h39.5c9.9.2,16.4,3.6,19.3,10.1M408.7,97.8l-4.6,25.4h20c3.6,0,6.4-.6,8.6-1.7,4-2.1,6.5-6,7.6-11.9.9-4.9-.3-8.3-3.4-10.2-1.8-1-4.4-1.6-7.9-1.6h-20.2ZM415.4,61l-3.8,21h20c3.6,0,6.6-.8,9.1-2.4,2.5-1.6,4.1-4.4,4.9-8.4.8-4.4-.2-7.4-2.8-8.8-2.4-1-5.6-1.5-9.5-1.5h-17.9Z"/>
        <path class="cls-3" d="M79.5,174.8l-.9,4.9h-17.8l5-27.3h17.2l-.9,4.8h-12.4l-1.1,5.8h11.4l-.9,4.7h-11.4l-1.3,7h13Z"/>
        <path class="cls-3" d="M97,179.9c-1.1.4-2.4.6-3.9.6-3.1,0-5.4-1.1-7-3.2-2-2.6-2.5-6.3-1.6-11.3.9-5,2.8-8.8,5.8-11.3,2.4-2.1,5.1-3.1,8.1-3.1s5.4,1.1,7,3.3c1.9,2.6,2.4,6.1,1.6,10.7-.4,2.4-1.1,4.5-1.9,6.1-.7,1.6-1.5,2.9-2.5,3.9l2.2,2.9-3.1,3.1-2.3-3.1c-1,.6-1.8,1-2.5,1.3M94.9,172.3l3.1-3.1,1.9,2.6c.5-.9.9-1.7,1.2-2.3.4-1,.8-2.2,1-3.5.6-3.1.4-5.4-.3-7.1-.8-1.7-2.2-2.5-4.3-2.5s-3.6.8-5.1,2.4c-1.4,1.6-2.5,4-3,7.2-.7,3.7-.4,6.4,1,8,.9,1,2.1,1.6,3.6,1.6s1.1,0,1.7-.2c.3,0,.7-.2,1.2-.5l-1.9-2.6Z"/>
        <path class="cls-3" d="M132.5,152.4l-3.1,16.8c-.5,2.9-1.3,5.2-2.4,6.8-2,3-5,4.4-9.1,4.4s-6.5-1.5-7.5-4.4c-.5-1.6-.5-3.9,0-6.8l3.1-16.8h5l-3.1,16.8c-.3,1.9-.4,3.2-.2,4.1.3,1.5,1.5,2.3,3.5,2.3s3.4-.8,4.3-2.3c.5-.9,1-2.2,1.3-4.1l3.1-16.8h5Z"/>
        <path class="cls-3" d="M132.3,179.7l5-27.3h4.9l-5,27.3h-4.9Z"/>
        <path class="cls-3" d="M162.7,154.6c1.1,1.4,1.4,3.6.9,6.5-.6,3.2-1.7,5.5-3.4,6.8-1.6,1.3-3.8,2-6.4,2h-5l-1.8,9.8h-4.9l5-27.3h10.2c2.4,0,4.1.7,5.2,2.1M155.8,157.2h-4.6l-1.5,8h4.6c1.2,0,2.1-.3,2.9-1,.8-.7,1.3-1.7,1.5-3.1.3-1.4.1-2.4-.4-3-.5-.6-1.4-.9-2.5-.9"/>
        <path class="cls-3" d="M178,179.7h-4.8l-.2-22.9c0,.5-.2,1.3-.4,2.2-.2,1-.3,1.7-.4,2.2l-3.4,18.5h-4.6l5-27.3h7.1l.3,21.5,8.2-21.5h7l-5,27.3h-4.6l3.4-18.5c.1-.5.3-1.3.4-2.2.2-1,.3-1.7.4-2.2l-8.6,22.9Z"/>
        <path class="cls-3" d="M210.8,174.8l-.9,4.9h-17.8l5-27.3h17.2l-.9,4.8h-12.4l-1.1,5.8h11.4l-.9,4.7h-11.4l-1.3,7h13Z"/>
        <path class="cls-3" d="M228.2,179.7l-6-19.4-3.5,19.4h-4.6l5-27.3h5.1l5.9,19.1,3.5-19.1h4.6l-5,27.3h-4.9Z"/>
        <path class="cls-3" d="M240.3,157.3l.9-4.8h19l-.9,4.8h-7l-4.1,22.5h-4.9l4.1-22.5h-7Z"/>
        <path class="cls-3" d="M279,163.1l3.8,1.1c1.7.5,2.9,1.2,3.6,2,1.2,1.3,1.5,3.1,1.1,5.6-.5,2.5-1.7,4.6-3.6,6.2-1.9,1.6-4.4,2.5-7.4,2.5s-5.3-.8-6.8-2.4c-1.5-1.6-1.9-3.9-1.4-6.7h4.7c0,1.2,0,2.2.4,2.8.6,1.1,1.9,1.7,3.8,1.7s2.1-.2,2.9-.4c1.5-.6,2.4-1.6,2.6-3.2.2-.9,0-1.6-.6-2.1-.6-.5-1.6-.9-3-1.3l-2.4-.7c-2.3-.6-3.9-1.3-4.7-2.1-1.3-1.3-1.8-3.2-1.3-5.9.4-2.4,1.6-4.5,3.4-6.1,1.8-1.6,4.2-2.4,7.2-2.4s4.4.8,5.9,2.3c1.5,1.5,2,3.7,1.5,6.6h-4.7c.2-1.6-.2-2.8-1.2-3.5-.7-.5-1.6-.7-2.7-.7s-2.3.3-3.2.9c-.9.6-1.4,1.4-1.6,2.5-.2,1,0,1.7.7,2.2.4.3,1.4.7,2.8,1.1"/>
        <path class="cls-3" d="M312.8,154.8c1.9,2.5,2.4,6.3,1.5,11.3-.9,4.9-2.8,8.7-5.6,11.3-2.2,2.1-4.9,3.2-8.3,3.2s-5.7-1.1-7.1-3.2c-1.9-2.6-2.4-6.4-1.5-11.3.9-5,2.8-8.8,5.6-11.3,2.2-2.1,4.9-3.2,8.3-3.2s5.7,1.1,7.1,3.2M304.8,156.4c-1.9,0-3.6.8-5.1,2.5-1.5,1.7-2.5,4-3,7.1-.6,3.1-.4,5.4.4,7.1.8,1.7,2.2,2.5,4.2,2.5s3.6-.8,5.1-2.5c1.4-1.7,2.5-4,3-7.1.6-3.1.4-5.4-.4-7.1-.8-1.7-2.2-2.5-4.2-2.5"/>
        <path class="cls-3" d="M325.9,152.4l-4.1,22.4h11.6l-.9,4.9h-16.5l5-27.3h4.9Z"/>
        <path class="cls-3" d="M360.2,152.4l-3.1,16.8c-.5,2.9-1.3,5.2-2.4,6.8-2,3-5,4.4-9.1,4.4s-6.5-1.5-7.5-4.4c-.5-1.6-.5-3.9,0-6.8l3.1-16.8h5l-3.1,16.8c-.3,1.9-.4,3.2-.2,4.1.3,1.5,1.5,2.3,3.5,2.3s3.4-.8,4.3-2.3c.5-.9,1-2.2,1.3-4.1l3.1-16.8h5Z"/>
        <path class="cls-3" d="M362.4,157.3l.9-4.8h19l-.9,4.8h-7l-4.1,22.5h-4.9l4.1-22.5h-7Z"/>
        <path class="cls-3" d="M380.3,179.7l5-27.3h4.9l-5,27.3h-4.9Z"/>
        <path class="cls-3" d="M412.8,154.8c1.9,2.5,2.4,6.3,1.5,11.3-.9,4.9-2.8,8.7-5.6,11.3-2.2,2.1-4.9,3.2-8.3,3.2s-5.7-1.1-7.1-3.2c-1.9-2.6-2.4-6.4-1.5-11.3.9-5,2.8-8.8,5.6-11.3,2.2-2.1,4.9-3.2,8.3-3.2s5.7,1.1,7.1,3.2M404.8,156.4c-1.9,0-3.6.8-5.1,2.5-1.5,1.7-2.5,4-3,7.1-.6,3.1-.4,5.4.4,7.1.8,1.7,2.2,2.5,4.2,2.5s3.6-.8,5.1-2.5c1.4-1.7,2.5-4,3-7.1.6-3.1.4-5.4-.4-7.1-.8-1.7-2.2-2.5-4.2-2.5"/>
        <path class="cls-3" d="M430,179.7l-6-19.4-3.5,19.4h-4.6l5-27.3h5.1l5.9,19.1,3.5-19.1h4.6l-5,27.3h-4.9Z"/>
        <path class="cls-3" d="M450.9,163.1l3.8,1.1c1.7.5,2.9,1.2,3.6,2,1.2,1.3,1.5,3.1,1.1,5.6-.5,2.5-1.7,4.6-3.6,6.2-1.9,1.6-4.4,2.5-7.4,2.5s-5.3-.8-6.8-2.4c-1.5-1.6-1.9-3.9-1.4-6.7h4.7c0,1.2,0,2.2.4,2.8.6,1.1,1.9,1.7,3.8,1.7s2.1-.2,2.9-.4c1.5-.6,2.4-1.6,2.6-3.2.2-.9,0-1.6-.6-2.1-.6-.5-1.6-.9-3-1.3l-2.4-.7c-2.3-.6-3.9-1.3-4.7-2.1-1.3-1.3-1.8-3.2-1.3-5.9.4-2.4,1.6-4.5,3.4-6.1,1.8-1.6,4.2-2.4,7.2-2.4s4.4.8,5.9,2.3c1.5,1.5,2,3.7,1.5,6.6h-4.7c.2-1.6-.2-2.8-1.2-3.5-.7-.5-1.6-.7-2.7-.7s-2.3.3-3.2.9c-.9.6-1.4,1.4-1.6,2.5-.2,1,0,1.7.7,2.2.4.3,1.4.7,2.8,1.1"/>
      </g>
    </g>
    <g class="cls-2">
      <text class="cls-1" transform="translate(53.4 213.7)"><tspan x="0" y="0">p</tspan></text>
      <text class="cls-1" transform="translate(70.4 213.7)"><tspan x="0" y="0">r</tspan></text>
      <text class="cls-1" transform="translate(81.6 213.7)"><tspan x="0" y="0">o</tspan></text>
      <text class="cls-1" transform="translate(98.2 213.7)"><tspan x="0" y="0">f</tspan></text>
      <text class="cls-1" transform="translate(109.1 213.7)"><tspan x="0" y="0">e</tspan></text>
      <text class="cls-1" transform="translate(124.2 213.7)"><tspan x="0" y="0">s</tspan></text>
      <text class="cls-1" transform="translate(136.6 213.7)"><tspan x="0" y="0">s</tspan></text>
      <text class="cls-1" transform="translate(149 213.7)"><tspan x="0" y="0">i</tspan></text>
      <text class="cls-1" transform="translate(157.2 213.7)"><tspan x="0" y="0">o</tspan></text>
      <text class="cls-1" transform="translate(173.7 213.7)"><tspan x="0" y="0">n</tspan></text>
      <text class="cls-1" transform="translate(190.3 213.7)"><tspan x="0" y="0">a</tspan></text>
      <text class="cls-1" transform="translate(205.5 213.7)"><tspan x="0" y="0">l</tspan></text>
      <text class="cls-1" transform="translate(213.7 213.7)"><tspan x="0" y="0"> </tspan></text>
      <text class="cls-1" transform="translate(221.3 213.7)"><tspan x="0" y="0">k</tspan></text>
      <text class="cls-1" transform="translate(236.3 213.7)"><tspan x="0" y="0">i</tspan></text>
      <text class="cls-1" transform="translate(244.5 213.7)"><tspan x="0" y="0">t</tspan></text>
      <text class="cls-1" transform="translate(255.4 213.7)"><tspan x="0" y="0">c</tspan></text>
      <text class="cls-1" transform="translate(267.7 213.7)"><tspan x="0" y="0">h</tspan></text>
      <text class="cls-1" transform="translate(284.3 213.7)"><tspan x="0" y="0">e</tspan></text>
      <text class="cls-1" transform="translate(299.5 213.7)"><tspan x="0" y="0">n</tspan></text>
      <text class="cls-1" transform="translate(316.1 213.7)"><tspan x="0" y="0"> </tspan></text>
      <text class="cls-1" transform="translate(323.7 213.7)"><tspan x="0" y="0">e</tspan></text>
      <text class="cls-1" transform="translate(338.9 213.7)"><tspan x="0" y="0">q</tspan></text>
      <text class="cls-1" transform="translate(355.8 213.7)"><tspan x="0" y="0">u</tspan></text>
      <text class="cls-1" transform="translate(372.4 213.7)"><tspan x="0" y="0">i</tspan></text>
      <text class="cls-1" transform="translate(380.6 213.7)"><tspan x="0" y="0">p</tspan></text>
      <text class="cls-1" transform="translate(397.6 213.7)"><tspan x="0" y="0">m</tspan></text>
      <text class="cls-1" transform="translate(421.3 213.7)"><tspan x="0" y="0">e</tspan></text>
      <text class="cls-1" transform="translate(436.4 213.7)"><tspan x="0" y="0">n</tspan></text>
      <text class="cls-1" transform="translate(453 213.7)"><tspan x="0" y="0">t</tspan></text>
    </g>
  </g>
</svg>