<?xml version="1.0" encoding="UTF-8"?>
<svg id="Layer_1" data-name="Layer 1" xmlns="http://www.w3.org/2000/svg" version="1.1" viewBox="0 0 576 504">
  <defs>
    <style>
      .cls-1 {
        fill: none;
      }

      .cls-1, .cls-2 {
        stroke-width: 0px;
      }

      .cls-2 {
        fill: #07314d;
      }
    </style>
  </defs>
  <rect class="cls-1" x=".3" y=".7" width="575" height="503.7"/>
  <g>
    <path class="cls-2" d="M139,172.9c.4,0,.9.3,1,.7l49.9,134.2c.1.4,0,.7-.5.7h-39.3c-.4,0-.9-.3-1-.7l-7.6-21.6c-.1-.4-.6-.7-1-.7h-55c-.4,0-.9.4-1,.8l-7.5,21.6c-.1.4-.6.7-1,.7h-40.1c-.4,0-.6-.3-.5-.7l48.2-134.2c.1-.4.6-.7,1-.7h54.5ZM132.5,262.9c.4,0,.6-.3.5-.7l-20.3-52.8c-.1-.4-.4-.4-.5,0l-19.1,52.8c-.1.4,0,.7.5.7h38.9Z"/>
    <path class="cls-2" d="M493,171.6c.4,0,.9.3,1,.7l49.9,134.2c.1.4,0,.7-.5.7h-39.3c-.4,0-.9-.3-1-.7l-7.6-21.6c-.1-.4-.6-.7-1-.7h-55c-.4,0-.9.4-1,.8l-7.5,21.6c-.1.4-.6.7-1,.7h-40.1c-.4,0-.6-.3-.5-.7l48.2-134.2c.1-.4.6-.7,1-.7h54.5ZM486.5,261.6c.4,0,.6-.3.5-.7l-20.3-52.8c-.1-.4-.4-.4-.5,0l-19.1,52.8c-.1.4,0,.7.5.7h38.9Z"/>
    <path class="cls-2" d="M348.1,185.2s-16.8-15-52.5-15-79,22.8-79,71.6c0,0,1.7,66.7,77.5,69.5,0,0,36.1.8,54-14.7v-62.4c0-.4-.3-.7-.7-.7h-48.5c-.4,0-.7.3-.7.7v28.6c0,.4.3.7.7.7h9.8c.4,0,.7.3.7.7v19.8c0,.4-.2,1-.5,1.3,0,0-.9.9-6.1.9,0,0-41.1,1.2-41.8-45.5,0,0-3.2-39.4,38.4-42.8,0,0,22.5-.2,41.5,11.7,0,0,3.9,3.2,5.4-1.5,0,0,4-12.7,1.9-23Z"/>
    <g>
      <path class="cls-2" d="M515.7,171.5h10.9v1.2h-4.7v13.6h-1.4v-13.6h-4.7v-1.2Z"/>
      <path class="cls-2" d="M528.6,186.2v-14.7h2.2l4.9,13h0l4.8-13h2.1v14.7h-1.4v-13.1h0l-4.9,13.1h-1.3l-4.9-13.1h0v13.1h-1.4Z"/>
    </g>
  </g>
</svg>