<?xml version="1.0" encoding="utf-8"?>
<!-- Generator: Adobe Illustrator 27.8.1, SVG Export Plug-In . SVG Version: 6.00 Build 0)  -->
<svg version="1.1" id="Layer_1" xmlns="http://www.w3.org/2000/svg" xmlns:xlink="http://www.w3.org/1999/xlink" x="0px" y="0px"
	 viewBox="0 0 432 288" style="enable-background:new 0 0 432 288;" xml:space="preserve">
<style type="text/css">
	.st0{fill:#09304D;}
</style>
<path class="st0" d="M132.8,131.6c-4.4,0-8.2,1.5-11.2,3.9v-29.1c0-1.5-2.4-4.4-3.9-4.4H109c-1.5,0-3.4,2.4-3.4,4.4
	c0,1.5,2.4,3.9,3.4,3.9h3.4v67.9h0.5c4.9,3.4,10.7,4.9,16.5,4.9c7.8,0,14.1-2.4,18.4-7.8c3.9-4.4,6.3-11.2,6.3-18.4
	c0-7.3-1.9-13.6-6.3-18.4C143.9,134.5,138.6,131.6,132.8,131.6 M144.9,157.8c0,10.7-5.8,17-15,17c-2.9,0-5.8-0.5-8.2-1.5v-28.6
	c2.4-2.4,5.8-3.4,9.7-3.4C139.6,140.8,144.9,147.6,144.9,157.8"/>
<path class="st0" d="M174,139.8v-1.9c0-1.5-2.9-4.9-4.4-4.9h-5.3v1.9l0,0c0,0,0.5,1.9,0.5,8.2V183h9.2v-33c4.4-5.8,11.2-8.7,16-8.7
	h0.5v-8.7H190C184.2,132.1,178.4,135,174,139.8"/>
<path class="st0" d="M233.2,180.6c0,0-0.5-1.9-0.5-8.2v-23.8c0-11.2-5.8-17-17-17c-6.8,0-12.1,2.4-16.5,7.3l0,0v0.5
	c0,1.9,3.4,5.8,4.9,5.8h0.5l0,0c2.4-2.9,6.3-4.4,10.7-4.4c7.3,0,8.7,4.9,8.7,8.7v4.4c-2.4-0.5-4.4-0.5-6.8-0.5
	c-17,0-19.4,10.2-19.4,16c0,9.2,5.8,14.6,14.6,14.6c4.9,0,8.7-1.5,12.1-4.4c1,1.5,2.9,3.9,3.9,3.9h5.3L233.2,180.6L233.2,180.6z
	 M223.5,161.2v9.7c-2.4,2.9-6.3,4.4-9.7,4.4c-2.9,0-7.8-1-7.8-6.8c0-4.9,3.9-7.8,10.7-7.8C219.6,160.2,222.1,160.7,223.5,161.2"/>
<path class="st0" d="M276.4,133.1L276.4,133.1L262.3,170l-13.6-36.9h-0.5c-1.5-0.5-7.3-0.5-8.2,0.5l-0.5,0.5l19.4,49h6.3l19.4-49
	l-0.5-0.5C282.7,132.6,277.9,133.1,276.4,133.1"/>
<path class="st0" d="M326.4,180.6L326.4,180.6c0,0-1-1.9-1-8.2v-23.8c0-11.2-5.8-17-17-17c-6.8,0-12.1,2.4-16.5,7.3l0,0v0.5
	c0,1.9,3.4,5.8,4.9,5.8h0.5l0,0c2.4-2.9,6.3-4.4,10.7-4.4c7.3,0,8.7,4.9,8.7,8.7v4.4c-2.4-0.5-4.4-0.5-6.8-0.5
	c-17,0-19.4,10.2-19.4,16c0,9.2,5.8,14.6,14.6,14.6c4.9,0,8.7-1.5,12.1-4.4c1,1.5,2.9,3.9,3.9,3.9h5.3L326.4,180.6L326.4,180.6z
	 M316.7,161.2v9.7c-2.4,2.9-6.3,4.4-9.7,4.4c-2.9,0-7.8-1-7.8-6.8c0-4.9,3.9-7.8,10.7-7.8C312.8,160.2,315.2,160.7,316.7,161.2"/>
</svg>
