<svg id="Layer_1" data-name="Layer 1" xmlns="http://www.w3.org/2000/svg" viewBox="0 0 180 77.02"><defs><style>.cls-1{fill:#fff;}.cls-2{fill:#231f20;}.cls-3,.cls-4{fill:#ef3e42;}.cls-3{fill-rule:evenodd;}</style></defs><path class="cls-1" d="M27.28,78.26C29.58,77,33.16,76,37.76,75.1A138.75,138.75,0,0,1,54,73.1c31.43-2.87,79.79-1.73,97,5l.28.14a6.56,6.56,0,0,1,1.44,1.44c2.15,3.15,2.87,12.2,2.72,21s-1.29,17.51-2.87,20.38a3.23,3.23,0,0,1-1.14,1.29l-.58.15a85.62,85.62,0,0,1-11,2.58c-5.17,1-10.91,1.72-16.93,2.3s-12.49,1-19,1.29c-30.28,1.29-63.58-.86-76.64-6.17h0c-1.72-.86-3-3-3.87-6.18-1.3-4.59-1.73-11.62-1.58-18.22s1-13.06,2.44-16.51A5.33,5.33,0,0,1,27.28,78.26Z" transform="translate(-18.5 -69.99)"/><path class="cls-2" d="M26,80.41h0v.15l-.43.14c-.14,0-.43.43-.72,1.29-1.43,3.31-2.15,9.48-2.44,15.93-.14,6.61.43,13.5,1.58,17.94.57,2.16,1.15,3.59,1.87,3.88h0c13.2,5.6,47.5,7.61,78.93,6.31,6.75-.28,13.49-.71,19.81-1.43,6.17-.58,12-1.29,17.36-2.3,4-.71,7.61-1.58,10.77-2.44,1.43-2.44,2.29-10.76,2.58-19.37.14-8.61-.57-17.22-2.3-19.81a.14.14,0,0,0-.14-.14c-17.94-6.89-67.6-8-100.18-5.17-6.31.58-12,1.29-16.64,2.15a47.1,47.1,0,0,0-10,2.87Zm-1.72-3.58a45.53,45.53,0,0,1,11.05-3.16c4.73-.86,10.47-1.58,16.93-2.15,33.16-3,84.11-1.72,102.33,5.31l.29.14a5.15,5.15,0,0,1,1.44,1.58c2.29,3.3,3,12.77,2.87,22s-1.3,18.51-3,21.38a12.08,12.08,0,0,1-1.15,1.44l-.57.14a95.07,95.07,0,0,1-11.77,2.73c-5.31,1-11.34,1.86-17.8,2.44-6.31.57-13.2,1.15-19.94,1.43-31.87,1.29-66.88-.86-80.66-6.6h0c-1.87-.86-3.16-3.16-4.17-6.46-1.29-4.88-1.72-12.2-1.57-19.09s1-13.77,2.58-17.51A6.61,6.61,0,0,1,24.27,76.83Z" transform="translate(-18.5 -69.99)"/><polygon class="cls-3" points="48.25 14.73 48.25 46.02 92.74 46.02 92.74 35.83 135.08 35.83 135.08 46.02 180 46.02 180 14.73 135.08 14.73 135.08 24.49 92.74 24.49 92.74 14.73 48.25 14.73"/><path class="cls-2" d="M31.44,140.84a8.24,8.24,0,0,1-1.15-.72A4.06,4.06,0,0,0,29,140a2.29,2.29,0,0,0-1.72.57,1.52,1.52,0,0,0-.72,1.29,2.19,2.19,0,0,0,.58,1.44,2.28,2.28,0,0,0,1.72.57,4,4,0,0,0,1.29-.29,4.4,4.4,0,0,0,1.44-.71l-.15,3.73A14.84,14.84,0,0,0,30,147H28.57a6.68,6.68,0,0,1-1.72-.15,14.84,14.84,0,0,1-1.43-.43A6.39,6.39,0,0,1,23,144.57a4.39,4.39,0,0,1-.87-2.73,5.28,5.28,0,0,1,.58-2A4.6,4.6,0,0,1,24,138.25a5.1,5.1,0,0,1,2.15-1.14,6.66,6.66,0,0,1,2.44-.29H30c.57.14,1,.29,1.43.43Z" transform="translate(-18.5 -69.99)"/><path class="cls-2" d="M37.47,143.28h1.87l-.43-1.15a7.34,7.34,0,0,0-.43-1.29V140h-.15a1.88,1.88,0,0,1-.14.86,6.83,6.83,0,0,1-.29,1.29l-.43,1.15Zm-5.74,3.58L36,137h4.73l4.31,9.9H40.34l-.29-1.29h-3.3l-.43,1.29Z" transform="translate(-18.5 -69.99)"/><path class="cls-2" d="M50,139.54v1.87h.71c.29,0,.72,0,.87-.29s.28-.28.28-.57,0-.57-.28-.72-.58-.29-.87-.29Zm-4.31,7.32V137H51.1a6,6,0,0,1,3.59.86,2.84,2.84,0,0,1,1.3,2.44,2.31,2.31,0,0,1-.58,1.73,3.31,3.31,0,0,1-1.72.86l3.16,4H52l-2-3.3v3.3Z" transform="translate(-18.5 -69.99)"/><polygon class="cls-2" points="40.79 76.87 40.79 70.27 38.35 70.27 38.35 66.97 47.53 66.97 47.53 70.27 45.09 70.27 45.09 76.87 40.79 76.87"/><polygon class="cls-2" points="48.82 76.87 48.82 66.97 56.86 66.97 56.86 69.7 53.13 69.7 53.13 70.56 56.57 70.56 56.57 73.14 53.13 73.14 53.13 74.15 57 74.15 57 76.87 48.82 76.87"/><path class="cls-2" d="M81.53,139.54v1.87h.58c.43,0,.86,0,1-.29.29-.14.29-.28.29-.57s0-.57-.29-.72c-.14-.29-.57-.29-1-.29Zm-4.3,7.32V137h5.45a6,6,0,0,1,3.59.86,2.83,2.83,0,0,1,1.29,2.44A2.3,2.3,0,0,1,87,142a3.38,3.38,0,0,1-1.73.86l3.16,4H83.54l-2-3.3v3.3Z" transform="translate(-18.5 -69.99)"/><polygon class="cls-2" points="78.39 76.87 78.39 66.97 82.69 66.97 82.69 70.27 85.42 70.27 85.42 66.97 89.73 66.97 89.73 76.87 85.42 76.87 85.42 73.29 82.69 73.29 82.69 76.87 78.39 76.87"/><path class="cls-2" d="M116.26,143.71a2.62,2.62,0,0,0,1.58-.43,2.4,2.4,0,0,0,.43-1.44,2,2,0,0,0-.43-1.29,2.59,2.59,0,0,0-1.58-.57,2.52,2.52,0,0,0-1.43.57,1.57,1.57,0,0,0-.58,1.29,1.85,1.85,0,0,0,.58,1.44,2.47,2.47,0,0,0,1.43.43Zm6.46-1.87a4.53,4.53,0,0,1-.43,2,4.24,4.24,0,0,1-1.43,1.72,9.64,9.64,0,0,1-2,1.15,16.3,16.3,0,0,1-2.59.29,13,13,0,0,1-2.44-.29,7.64,7.64,0,0,1-2.15-1.15,4.5,4.5,0,0,1-1.29-1.58,5.16,5.16,0,0,1-.43-2.15,5,5,0,0,1,.43-2,4.6,4.6,0,0,1,1.29-1.58,7.38,7.38,0,0,1,2.15-1.14,6.66,6.66,0,0,1,2.44-.29,7.47,7.47,0,0,1,2.59.29,9.18,9.18,0,0,1,2,1.14,3.8,3.8,0,0,1,1.43,1.58A5,5,0,0,1,122.72,141.84Z" transform="translate(-18.5 -69.99)"/><polygon class="cls-2" points="106.09 76.87 106.09 66.97 114.12 66.97 114.12 69.7 110.39 69.7 110.39 70.84 113.69 70.84 113.69 73.29 110.39 73.29 110.39 76.87 106.09 76.87"/><polygon class="cls-2" points="115.56 76.87 115.56 66.97 123.6 66.97 123.6 69.7 119.86 69.7 119.86 70.84 123.17 70.84 123.17 73.29 119.86 73.29 119.86 76.87 115.56 76.87"/><path class="cls-2" d="M154.58,146.86l-.57-4a1.84,1.84,0,0,0-.14-.86v-.87c-.15.29-.15.58-.29.87a2.77,2.77,0,0,1-.29,1l-1.43,3.87h-2.44L148,143a2.77,2.77,0,0,1-.29-1,2.11,2.11,0,0,1-.28-.87V142a1.73,1.73,0,0,0-.15.86l-.57,4h-4.16l2-9.9H149l.86,2.44c0,.14,0,.14.14.29a12.16,12.16,0,0,1,.57,2.58h.15A4,4,0,0,1,151,141a10.37,10.37,0,0,1,.57-1.58l.86-2.44h4.45l1.87,9.9Z" transform="translate(-18.5 -69.99)"/><path class="cls-2" d="M164.06,143.28h1.86l-.43-1.15a7.75,7.75,0,0,1-.29-1.29,1.88,1.88,0,0,1-.14-.86h-.14a1.77,1.77,0,0,1-.15.86,7.48,7.48,0,0,1-.28,1.29l-.43,1.15Zm-5.75,3.58,4.31-9.9h4.88l4.16,9.9h-4.59l-.43-1.29h-3.3l-.29,1.29Z" transform="translate(-18.5 -69.99)"/><path class="cls-2" d="M172.38,146.86V137h4.16l3.73,5.17a1.33,1.33,0,0,0-.14-.72V137h4.16v9.9H180l-3.59-5.16v.72a1.84,1.84,0,0,1,.14.86v3.58Z" transform="translate(-18.5 -69.99)"/><path class="cls-2" d="M186.59,146.86V137h4.16l3.73,5.17c0-.29-.14-.43-.14-.72V137h4.16v9.9h-4.31l-3.58-5.16v.72c0,.28.14.57.14.86v3.58Z" transform="translate(-18.5 -69.99)"/><rect class="cls-4" x="70.49" y="71.99" width="5.6" height="2.73"/></svg>