<?xml version="1.0" encoding="utf-8"?>
<!-- Generator: Adobe Illustrator 27.8.1, SVG Export Plug-In . SVG Version: 6.00 Build 0)  -->
<svg version="1.1" id="Layer_1" xmlns="http://www.w3.org/2000/svg" xmlns:xlink="http://www.w3.org/1999/xlink" x="0px" y="0px"
	 viewBox="0 0 432 288" style="enable-background:new 0 0 432 288;" xml:space="preserve">
<style type="text/css">
	.st0{fill:#09304D;}
</style>
<path class="st0" d="M266.2,109.3c2.6,2.6,6.4-0.9,3.4-3c-1.7-1.3-6.9-6-3.4-10.3c3.4,6,10.3,5.1,15.8,8.1c4.3,2.6,5.6,6.4,3,10.3
	V114l0,0c-0.4-3.9-4.3-3.4-4.3-3.4c3,1.3,0.4,4.3-0.9,1.3c-0.9-2.1-3-3-4.7-3.4c3,3.4-2.6,9,5.6,11.1c-2.1,1.3-6.4,0.9-7.7,0
	c0.9-0.9,0.4-2.1-0.9-2.1C268.7,116.6,265.7,114.9,266.2,109.3"/>
<path class="st0" d="M184.8,142.7l6.4-0.9c0.4,0,0.9-0.4,0.9-0.9l1.7-15c1.7-1.7,3-1.7,4.3-0.9l0.4,0.4c0.9,0.9,2.1,0.4,3-0.4l3.4-6
	c0-0.4,0-0.9,0-0.9l-1.7-1.3c-1.7-1.3-4.3-0.9-5.6,0.4l-3,3l0.4-2.1c0-0.4-0.4-1.3-0.9-0.9l-6.4,0.9c-0.4,0-0.9,0.4-0.9,0.9
	l-2.6,22.7C183.5,142.3,184.4,143.2,184.8,142.7"/>
<path class="st0" d="M133.8,135.4l-1.3,11.6l-0.4,2.6c0,0.4,0.4,1.3,0.9,0.9l6.4-0.9c0.4,0,0.9-0.4,0.9-0.9l1.7-16.3
	c0.4-1.7,1.3-2.6,3-3c1.7,0,2.6,0.9,3,2.6c0,0,0,0.4,0,0.9l-1.7,14.6c0,0.4,0.4,1.3,0.9,0.9l6.4-0.9c0.4,0,0.9-0.4,0.9-0.9l1.7-15
	c0-0.4,0-0.9,0-1.3c-0.4-5.1-4.7-6.9-8.1-6.4c-1.7,0-3.4,0.9-5.1,1.7l1.3-11.6c0-0.4-0.4-1.3-0.9-0.9L137,114
	c-0.4,0-0.9,0.4-0.9,0.9L133.8,135.4L133.8,135.4z"/>
<path class="st0" d="M165.1,133.7c0-3.4,2.6-8.1,6.4-7.7c2.6,0.4,2.6,3,2.1,5.6c-0.4,1.7-0.4,3.9-1.7,5.6c-0.9,1.7-3.4,3-5.6,1.7
	C165.5,137.6,165.1,135.4,165.1,133.7 M172.4,142.7L172.4,142.7c0,1.3,0.4,1.7,1.3,1.7l5.6-0.9c0.4,0,0.9-0.4,0.9-0.9l2.6-22.7
	c0-0.4-0.4-1.3-0.9-0.9l-6.4,0.9c-0.4,0-0.9,0.4-0.9,0.4v1.3c-0.9-0.4-2.6-1.3-4.7-1.3c-7.7-0.4-12.4,7.7-12.4,14.6
	c0,3.4,0.4,7.3,3.4,9.8C164.7,147.4,169.8,145.7,172.4,142.7"/>
<path class="st0" d="M211.3,127.7l-8.1,1.3c-1.7,0.4-3.4,1.7-3.4,3.9l-0.4,5.1l8.1-1.3c1.7-0.4,3.4-1.7,3.4-3.9L211.3,127.7z"/>
<path class="st0" d="M351.8,113.6l-1.7-1.3c-1.7-1.3-4.3-0.9-5.6,0.4l-3,3l0.4-2.1c0-0.4-0.4-1.3-1.3-0.9l-6,0.9
	c-0.4,0-0.9,0.4-0.9,0.9l-2.6,22.7c0,0.4,0.4,1.3,0.9,0.9l6.4-0.9c0.4,0,0.9-0.4,0.9-0.9l1.7-15c1.7-1.7,3-1.7,4.3-0.9l0.4,0.4
	c0.9,0.9,2.1,0.4,3-0.4l3.4-6C352.2,114,351.8,114,351.8,113.6"/>
<path class="st0" d="M285.4,145.3l6.4-0.9c0.4,0,0.9-0.4,0.9-0.9l4.3-35.1c0-0.4-0.4-1.3-0.9-0.9l-6.4,0.9c-0.4,0-0.9,0.4-0.9,0.9
	l-4.3,35.1C284.1,144.9,285,145.3,285.4,145.3"/>
<path class="st0" d="M296.6,143.6l6.4-0.9c0.4,0,0.9-0.4,0.9-0.9l4.3-35.1c0-0.4-0.4-1.3-0.9-0.9l-6.4,0.9c-0.4,0-0.9,0.4-0.9,0.9
	l-4.3,35.1C295.7,143.2,296.1,143.6,296.6,143.6"/>
<path class="st0" d="M282.9,121.3l-6.4,0.9c-0.4,0-0.9,0.4-0.9,0.9l-2.6,22.7c0,0.4,0.4,1.3,0.9,0.9l6.4-0.9c0.4,0,0.9-0.4,0.9-0.9
	l2.6-22.7C283.7,121.7,283.3,121.3,282.9,121.3"/>
<path class="st0" d="M252.9,150l6.4-0.9c0.4,0,0.9-0.4,0.9-0.9l1.7-15c1.7-1.7,3-1.7,4.3-0.9l0.4,0.4c0.9,0.9,2.1,0.4,3-0.4l3.4-6
	c0-0.4,0-0.9,0-0.9l-1.7-1.3c-1.7-1.3-4.3-0.9-5.6,0.4l-3,3l0.4-2.1c0-0.4-0.4-1.3-0.9-0.9l-6.4,0.9c-0.4,0-0.9,0.4-0.9,0.9
	l-2.6,22.7C251.6,149.6,252,150,252.9,150"/>
<path class="st0" d="M316.3,124.3c0-0.4,0-0.4,0.4-0.9c0.4-1.3,1.3-2.1,2.6-3c1.3-0.9,3.4-0.9,4.3,0.4c1.3,1.3,0.4,2.6,0.4,4.3
	l-7.7,1.3C315.8,125.6,315.8,124.7,316.3,124.3 M307.7,132.9c0.9,7.7,7.7,8.1,10.7,8.1c3-0.4,6.4-1.3,8.1-4.3
	c0.4-0.9,0.9-1.3,1.3-2.1c0-0.4,0-0.9-0.4-0.9l-2.6-1.3c-0.4,0-0.4,0-0.9,0.4c-0.9,1.7-2.1,2.6-3.9,3c-0.4,0-0.9,0-1.7,0
	c-0.4,0-0.9,0-1.3-0.4c-0.4,0-0.9-0.4-0.9-0.9c-0.4-0.4-0.4-0.9-0.9-1.3c-0.4-0.4-0.4-1.3-0.4-1.7s0-0.4,0-0.9l12.8-1.7
	c0.4,0,0.9-0.4,0.9-0.9c0-0.9,0.4-2.1,0.9-4.3c0.4-3.4-0.4-6.4-3.9-7.7c-3.4-1.3-8.1-0.9-11.1,1.3
	C309.4,120.5,306.8,126.9,307.7,132.9"/>
<path class="st0" d="M344.5,132c0.4,0,0.4,0,0.4,0.4s0,0.4-0.4,0.4h-0.4V132H344.5z M344.5,134.6v-1.3h0.4l0.9,0.9h0.9l-0.9-1.3
	c0.4,0,0.4-0.4,0.4-0.9s-0.4-0.9-1.3-0.9h-1.3l0.4,3L344.5,134.6z"/>
<path class="st0" d="M342.8,132.9c0-0.9,0.4-1.7,1.3-1.7c1.3,0,1.7,0.4,1.7,1.3v0.9c0,0.9-0.4,1.7-1.3,1.7c-1.3,0-1.7-0.4-1.7-1.3
	V132.9z M345,135.4c1.3,0,2.1-1.3,1.7-2.1v-0.9c0-1.3-0.9-2.1-2.6-1.7c-1.3,0-2.1,1.3-1.7,2.1v0.9C342.8,135,343.2,135.9,345,135.4"
	/>
<path class="st0" d="M222.5,183c-9,0.4-9.4-18.4,16.3-21.4C236.2,173.6,230.6,182.6,222.5,183 M247.7,155.1c0-1.3,0.4-2.1,0.4-3.4
	c0.9-7.7,1.3-11.6,2.1-21.4c0-1.3,0.4-2.6,0.4-3s-0.4-1.3-1.3-0.9l-6,0.9c-0.4,0-0.9,0.4-0.9,0.9c-1.3,9.4-6.4,18-12.4,18
	c-12,0.4-6-37.7,9-38.5c6.4-0.4,4.7,9.8,0.4,15.8c8.6-2.1,12.8-8.6,12.4-14.1c0-4.3-2.1-8.6-8.6-8.6c-14.6,0-30.8,18-30,37.3
	c0.4,12,6.4,16.7,12.8,16.3c5.6-0.4,10.7-4.3,14.1-9.8c-0.4,2.1-0.4,4.3-0.9,7.3c0,1.3-0.4,2.1-0.4,3.4
	c-36.8,3.9-33.8,34.7-16.7,33.8c13.7-0.4,20.6-15.4,23.6-28.3c23.1,0,42,9.8,71.1,1.7c17.6-4.7,30.4-16.7,31.7-25.7
	C311.6,169.7,277.7,155.1,247.7,155.1"/>
<path class="st0" d="M127,112.8c6.4-0.9,1.7,8.1-10.7,9.8c-1.3,0-2.6,0.4-3.9,0C115.8,117,121,113.2,127,112.8 M189.5,148.3
	c-17.1-0.4-42.4,14.1-57,14.1c-14.1,0-24.8-11.6-24.8-23.6c0-3.9,0.9-7.3,1.7-10.7c1.7,0,3.9,0,5.6,0c21.8-2.1,27-23.6,9-21.4
	c-6.4,0.9-14.6,6-20.1,14.6c-1.3,0-3-0.4-4.7,0c-15,0.9-22.7,16.7-15.8,27.4l7.3-4.7c-3.4-6.9,2.1-15.8,8.6-16.3c0.4,0,0.9,0,0.9,0
	c-2.1,4.7-3.4,9.8-3.4,15.8c0,11.1,9.4,27,31.3,27c16.3,0,33.8-12.8,54.8-13.7c10.7-0.4,21.4,2.1,20.6,17.1
	C215.2,165.4,207.9,148.7,189.5,148.3"/>
</svg>
