<?xml version="1.0" encoding="utf-8"?>
<!-- Generator: Adobe Illustrator 27.8.1, SVG Export Plug-In . SVG Version: 6.00 Build 0)  -->
<svg version="1.1" id="Layer_1" xmlns="http://www.w3.org/2000/svg" xmlns:xlink="http://www.w3.org/1999/xlink" x="0px" y="0px"
	 viewBox="0 0 432 288" style="enable-background:new 0 0 432 288;" xml:space="preserve">
<style type="text/css">
	.st0{fill:#09304D;}
</style>
<g>
	<path class="st0" d="M92.3,117.1c3.1,0.9,5.7,2.6,8.3,4.8l-6.1,7c3.1,2.6,5.2,7,5.2,11.4c0,8.3-6.6,14.9-14.9,14.9
		S70,148.7,70,140.3c0-4.4,2.2-8.8,5.2-11.4l-3.1-3.5c-3.9,3.5-6.6,8.8-6.6,14.4c0,10.5,8.8,19.2,19.2,19.2s19.2-8.8,19.2-19.2
		c0-5.7-2.6-10.9-6.6-14.4l3.1-3.5c5.2,4.4,8.3,10.9,8.3,18.4c0,13.1-10.9,24.1-24.1,24.1s-24.1-10.9-24.1-24.1
		c0-9.6,5.7-17.9,14-21.9l0,0c-0.4,0.9-0.9,1.7-0.4,2.6c0,2.6,1.3,2.6,2.2,6.6c0.9,3.5-1.7,5.7-1.7,5.7h3.9c0,0,2.2-2.2,1.7-5.3
		c-0.4-3.1-1.7-3.5-2.2-6.6c-0.4-2.2,1.3-4.4,1.7-5.3l0,0c0.9,0,1.7-0.4,2.6-0.4l0,0c-0.4,0.9-2.2,2.6-2.2,4.8
		c0,2.6,1.3,2.6,2.2,6.6c0.9,3.5-1.7,5.7-1.7,5.7h3.9c0,0,2.2-2.2,1.7-5.3c-0.4-3.1-1.7-3.5-2.2-6.6c-0.4-2.6,1.7-5.3,2.2-5.7l0,0
		c0.9,0,1.3,0,2.2,0.4c-0.4,0.9-2.2,2.6-1.7,4.8c0,2.6,1.3,2.6,2.2,6.6c0.9,3.5-1.7,5.7-1.7,5.7h3.9c0,0,2.2-2.2,1.7-5.3
		c-0.4-3.1-1.7-3.5-2.2-6.6C90.6,119.8,91.4,118.5,92.3,117.1L92.3,117.1"/>
	<path class="st0" d="M155.7,154.8c-4.8,6.1-11.4,8.8-18.4,8.8c-13.1,0-23.2-9.6-23.2-22.3s10.1-22.3,23.2-22.3
		c7,0,13.6,2.6,18.4,8.8l-5.2,3.9c-3.1-4.4-7.9-7-13.1-7c-8.8,0-16.6,7.4-16.6,16.6c0,9.2,7.9,16.6,16.6,16.6
		c5.7,0,10.5-2.6,13.6-6.6L155.7,154.8"/>
	<path class="st0" d="M174.6,129c11.8,0,18.4,8.8,18.4,17.5s-6.6,17.5-18.4,17.5s-18.4-8.8-18.4-17.5S163.2,129,174.6,129
		 M174.6,158.3c7,0,11.8-5.3,11.8-11.8s-4.8-11.8-11.8-11.8s-11.8,5.3-11.8,11.8S168,158.3,174.6,158.3"/>
	<path class="st0" d="M213.9,129c11.8,0,18.4,8.8,18.4,17.5s-6.6,17.5-18.4,17.5c-11.8,0-18.4-8.8-18.4-17.5S202.1,129,213.9,129
		 M213.9,158.3c7,0,11.8-5.3,11.8-11.8s-4.8-11.8-11.8-11.8s-11.8,5.3-11.8,11.8C201.7,153,206.9,158.3,213.9,158.3"/>
	<polygon class="st0" points="239.3,148.7 234.5,148.7 234.5,142.5 239.3,142.5 239.3,119.8 245.9,119.8 245.9,142.5 249.4,142.5 
		258.1,129.8 266,129.8 255.5,145.1 266.4,163.1 259,163.1 250.2,148.7 245.9,148.7 245.9,163.1 239.3,163.1 	"/>
	<polygon class="st0" points="338.2,148.7 333.8,148.7 333.8,142.5 338.2,142.5 338.2,119.8 344.7,119.8 344.7,142.5 348.7,142.5 
		357,129.8 364.9,129.8 354.4,145.1 365.7,163.1 357.9,163.1 349.1,148.7 344.7,148.7 344.7,163.1 338.2,163.1 	"/>
	<polygon class="st0" points="280.4,126.3 266.9,126.3 266.9,119.8 300.1,119.8 300.1,126.3 287,126.3 287,163.1 280.4,163.1 	"/>
	<path class="st0" d="M328.1,155.2c-3.5,5.7-9.2,8.3-15.8,8.3c-11.4,0-18.4-8.8-18.4-17.5s7-17.5,18.4-17.5
		c7.4,0,17.9,4.4,17.9,18.8v1.3h-29.7c0.4,4.4,5.3,9.2,11.8,9.2c3.9,0,7.9-2.2,10.5-5.7L328.1,155.2z M323.8,142.5
		c-1.7-4.8-6.6-7.9-11.4-7.9s-10.1,3.5-11.4,7.9H323.8"/>
	<path class="st0" d="M366.2,133.3c0-2.2,1.7-3.5,3.5-3.5s3.5,1.7,3.5,3.5c0,2.2-1.7,3.5-3.5,3.5S366.2,135.5,366.2,133.3
		 M367.1,133.3c0,1.7,1.3,3.1,3.1,3.1c1.7,0,3.1-1.3,3.1-3.1s-1.3-3.1-3.1-3.1C368.4,130.3,367.1,131.6,367.1,133.3 M371.4,135.5
		h-0.9l-0.9-1.7h-0.9v1.7h-0.4v-3.9h1.7c0.9,0,1.3,0,1.3,1.3c0,0.9-0.4,1.3-1.3,1.3L371.4,135.5z M369.2,132v0.9h0.4
		c0.4,0,1.3,0,1.3-0.4s-0.4-0.4-0.9-0.4h-0.8"/>
</g>
</svg>
