<?xml version="1.0" encoding="utf-8"?>
<!-- Generator: Adobe Illustrator 27.8.1, SVG Export Plug-In . SVG Version: 6.00 Build 0)  -->
<svg version="1.1" id="Layer_1" xmlns="http://www.w3.org/2000/svg" xmlns:xlink="http://www.w3.org/1999/xlink" x="0px" y="0px"
	 viewBox="0 0 432 288" style="enable-background:new 0 0 432 288;" xml:space="preserve">
<style type="text/css">
	.st0{fill:#09304D;}
</style>
<polygon class="st0" points="240.3,121.1 227.5,121.1 214.8,149.8 202,121.1 188.8,121.1 214.3,175.4 "/>
<path class="st0" d="M189.7,121.5l24.6,52.5l25.1-52.5H228l-13.2,29.7l-0.5-0.9L201.5,122L189.7,121.5z M214.3,176.7l-26.5-56.1
	h14.6v0.5l12.3,27.8l12.3-27.8h13.7l-0.5,0.9L214.3,176.7z"/>
<g>
	<path class="st0" d="M290.1,147.5c0-14.1-10.9-26.5-27.4-26.5c-16.4,0-26.5,13.2-26.5,26.9c0,16.9,11.4,27.8,26.5,27.8
		C279.1,175.8,290.1,163.1,290.1,147.5 M278.2,148c0,9.1-4.6,16.4-15.1,16.4c-8.7,0-14.1-6.4-14.1-16.9c0-8.7,5.5-16,14.1-16
		C272.3,132,278.2,138,278.2,148"/>
	<path class="st0" d="M263.1,132.5c-8.2,0-13.7,6.4-13.7,15.5c0,10,5,16.4,13.7,16.4l0,0c12.8,0,14.6-10,14.6-16h0.5h-0.5
		C277.3,138.4,271.8,132.5,263.1,132.5L263.1,132.5z M262.7,165.3L262.7,165.3c-9.1,0-14.6-6.8-14.6-17.3c0-9.6,5.9-16.4,14.6-16.4
		l0,0c9.6,0,15.5,6.4,15.5,16.9C278.6,159,272.7,165.3,262.7,165.3 M263.1,121.5c-16.9,0-26,13.7-26,26.5c0,8.2,2.7,15.1,7.3,19.6
		c4.6,5,11.4,7.3,18.7,7.3l0,0c7.3,0,14.1-2.7,19.2-8.2c4.6-5,7.3-11.9,7.3-19.6c0-6.8-2.7-13.2-7.3-18.2
		C277.3,124.3,270.4,121.5,263.1,121.5L263.1,121.5z M263.1,176.3L263.1,176.3c-7.8,0-14.6-2.7-19.6-7.8c-5-5-7.8-12.3-7.8-20.5
		c0-13.2,9.6-27.4,26.9-27.4l0,0c7.8,0,15.1,2.7,20.1,8.2c5,5,7.8,11.9,7.8,18.7c0,7.8-2.7,15.1-7.8,20.5
		C278.2,173.1,270.9,176.3,263.1,176.3"/>
</g>
<rect x="147.2" y="107.4" class="st0" width="37.9" height="9.1"/>
<path class="st0" d="M184.7,158.5c-4.6,3.6-9.1,6.4-17.3,6.4c-9.1,0-15.1-6.4-15.5-15.1H193c0-16.9-10.5-28.7-26.5-28.7
	c-15.5,0-26.9,11.9-26.9,26.9c0,17.3,11.9,27.8,27.4,27.8c9.6,0,16.4-3.2,22.4-7.3L184.7,158.5z M179.6,140.7h-27.8
	c1.4-5.9,6.8-9.1,13.7-9.1C172.8,131.6,177.8,134.8,179.6,140.7"/>
<path class="st0" d="M152.7,140.2h26c-1.8-5-6.8-8.2-13.2-8.2l0,0C159.6,132,154.5,135.2,152.7,140.2 M180.6,141.2h-29.2v-0.5
	c1.4-5.9,7.3-9.6,14.1-9.6l0,0c7.3,0,12.3,3.6,14.1,9.6L180.6,141.2z M166.4,121.5c-15.1,0-26.5,10.9-26.5,26.5
	c0,16.4,10.9,27.4,26.9,27.4l0,0c8.2,0,15.1-2.3,21.4-7.3l-4.1-8.7c-4.1,3.2-9.1,5.9-17.3,5.9l0,0c-9.1,0-15.5-6.4-16-15.5v-0.5H192
	C192,133,181.5,121.5,166.4,121.5L166.4,121.5z M166.9,176.3L166.9,176.3c-16.4,0-27.8-11.9-27.8-28.3c0-16,11.4-27.4,27.4-27.4l0,0
	c16,0,26.9,12.3,26.9,29.2v0.5h-41.1c0.5,8.2,6.8,13.7,15.1,13.7l0,0c8.2,0,12.8-2.7,17.3-5.9l0.5-0.5l5,10.5l-0.5,0.5
	C182.4,173.6,175.5,176.3,166.9,176.3"/>
<path class="st0" d="M287.8,170.4c-0.5,0-1.4,0.5-1.8,0.9c-0.5,0.5-0.9,1.4-0.9,1.8c0,1.4,0.9,2.7,2.3,2.7l0,0
	c0.5,0,1.4-0.5,1.8-0.9c0.5-0.5,0.9-1.4,0.9-1.8C290.1,171.7,289.1,170.4,287.8,170.4L287.8,170.4z M287.8,176.3L287.8,176.3
	c-1.8,0-3.2-1.4-3.2-3.2c0-0.9,0.5-1.8,0.9-2.3c0.5-0.5,1.4-0.9,2.3-0.9l0,0c1.8,0,3.2,1.4,3.2,3.2c0,0.9-0.5,1.8-0.9,2.3
	C289.1,175.8,288.2,176.3,287.8,176.3"/>
<path class="st0" d="M285.9,174.9v-3.6h1.8c0.5,0,0.5,0,0.9,0c0,0,0.5,0,0.5,0.5v0.5c0,0.5,0,0.5-0.5,0.9c0,0-0.5,0.5-0.9,0.5h0.5
	l0.5,0.5l0.5,0.9h-0.5l-0.5-0.9c0-0.5-0.5-0.5-0.5-0.5s0,0-0.5-0.5l0,0c0,0,0,0-0.5,0h-0.5v1.8L285.9,174.9L285.9,174.9z
	 M286.9,172.6h0.9h0.5c0,0,0,0,0.5-0.5c0,0,0,0,0-0.5v-0.5h-0.5h-1.4V172.6z"/>
</svg>
