<?xml version="1.0" encoding="UTF-8"?>
<svg id="Layer_2" data-name="Layer 2" xmlns="http://www.w3.org/2000/svg" version="1.1" viewBox="0 0 343.9 50.1">
  <defs>
    <style>
      .cls-1 {
        fill: #07314d;
        stroke-width: 0px;
      }
    </style>
  </defs>
  <g id="Rasterized_copy" data-name="Rasterized copy">
    <path class="cls-1" d="M43.5.7l-5.5,7.8H9.6v6.1h25.7l-4.5,6.9H9.6v10.7H0V.7h43.5Z"/>
    <path class="cls-1" d="M69.4,0h7.6c5.6.1,9.4,1.1,11.5,2.9,2.1,1.9,3.1,5.5,3.1,11.1v1.5c0,6.5-.8,10.9-2.4,13.1s-5.8,3.3-12.4,3.3l-7.2.2h-3l-6.5-.2c-3.6,0-6.4-.8-8.4-2.5-2-1.6-3-4.3-3-8v-5.8c0-6.4.7-10.6,2.3-12.5,1.6-2,5.5-3,11.7-3h6.8c0-.1,0-.1,0-.1ZM64.2,24.4h10c2.7,0,4.6-.3,5.8-.9,1.2-.6,1.8-2,1.8-4.4v-4.3c0-1.4,0-2.6-.2-3.7-.2-1-.5-1.8-1-2.3-.5-.5-1.3-.8-2.3-.9-1-.2-1.8-.2-2.3-.3-.5,0-.9,0-1.2,0h-9.5c-2.2,0-3.9.2-5,.7-1.1.4-1.8,1.4-2,2.9l-.2,3.6v2.1c0,2.9.3,4.9,1,5.9.7,1,2.3,1.5,5,1.5h0Z"/>
    <path class="cls-1" d="M129.7,31.8l-18.9-23.6v23.6h-9V.3h15.2l18.9,23.6V.3h9v31.4h-15.2Z"/>
    <path class="cls-1" d="M168.4,31.8V8.2h-14.1V.3h43.3l-5.7,7.9h-14v23.6h-9.6Z"/>
    <path class="cls-1" d="M274.7,31.8l-18.9-23.6v23.6h-9V.3h15.2l19,23.6V.3h9v31.4h-15.2Z"/>
    <polygon class="cls-1" points="223.3 .3 210.4 .3 192.8 31.8 203.5 31.8 216.7 7.1 229.9 31.8 240.4 31.8 223.3 .3"/>
    <path class="cls-1" d="M208.2,23s1.6-3.5,4.7-4.9,5.6-1.5,8.5-.4,5.6,1.5,7.3,1.5,3-.4,4.1-1.5c0,0-.3,3-2.3,4.7s-2.9,2-4.8,2-4.8-.4-7.8-1.3-4.2-1-5.8-1c-2.4,0-3.9.9-3.9.9h0Z"/>
    <polygon class="cls-1" points="326.6 .3 313.7 .3 296.2 31.8 306.8 31.8 320 7.1 333.2 31.8 343.8 31.8 326.6 .3"/>
    <path class="cls-1" d="M311.5,23s1.6-3.5,4.7-4.9,5.6-1.5,8.5-.4,5.6,1.5,7.3,1.5,3-.4,4-1.5c0,0-.3,3-2.3,4.7s-2.9,2-4.8,2-4.8-.4-7.8-1.3-4.2-1-5.8-1c-2.4,0-3.9.9-3.9.9h0Z"/>
    <path class="cls-1" d="M204.7,38.7v2.6h-8.5v1.9h8.5v2.2h-8.5v4.5h-3.4v-11.2h11.9Z"/>
    <path class="cls-1" d="M234.1,38.6h2.7c2,0,3.4.4,4.1,1s1.1,2,1.1,4v.5c0,2.3-.3,3.9-.9,4.7-.6.8-2.1,1.2-4.4,1.2h-2.6c0,0-1.1,0-1.1,0h-2.3c-1.3,0-2.3-.4-3-1-.7-.6-1.1-1.5-1.1-2.9v-2.1c0-2.3.3-3.8.8-4.5s2-1,4.2-1h2.4s0,0,0,0ZM232.3,47.3h3.6c.9,0,1.6,0,2.1-.3s.6-.7.6-1.6v-1.5c0-.5,0-1,0-1.3s-.2-.6-.4-.8c-.2-.2-.5-.3-.8-.3s-.6,0-.8,0h-3.8c-.8,0-1.4,0-1.8.2-.4.2-.6.5-.7,1v1.3c0,0,0,.8,0,.8,0,1,.1,1.7.4,2.1.2.4.8.5,1.8.5h0Z"/>
    <path class="cls-1" d="M275.3,38.7c1.4,0,2.3.3,2.9.8.3.3.5.6.7,1.1s.2,1,.2,1.7v.2c0,.5,0,.9,0,1.2,0,.3-.2.6-.3.9-.2.3-.4.5-.6.6-.2,0-.6.3-1.4.5.8,0,1.3.3,1.7.6s.6.8.6,1.5v2.2h-3.5v-1.1c0-.5,0-1-.1-1.3,0-.3-.5-.5-1.3-.5h-5.7v2.9h-3.4v-11.2h10.5,0ZM273.9,44.4c.8,0,1.3,0,1.5-.3.2-.2.3-.6.3-1.3s0-.7-.1-.8c0-.2-.2-.3-.5-.4h-.6c0-.1-6.2-.1-6.2-.1v2.9h5.6,0Z"/>
    <path class="cls-1" d="M312,50l-6.8-8.4v8.4h-3.2v-11.2h5.4l6.8,8.4v-8.4h3.2v11.2s-5.4,0-5.4,0Z"/>
    <path class="cls-1" d="M340.5,50v-11.2h3.4v11.2h-3.4Z"/>
  </g>
</svg>