<?xml version="1.0" encoding="UTF-8"?>
<svg id="Layer_2" data-name="Layer 2" xmlns="http://www.w3.org/2000/svg" viewBox="0 0 512.68 256">
  <defs>
    <style>
      .cls-1 {
        fill: #020000;
      }

      .cls-2 {
        fill: #633510;
      }
    </style>
  </defs>
  <g id="Layer_1-2" data-name="Layer 1">
    <g>
      <path class="cls-1" d="m63.61,83.34v1.54c0,4.5-.07,9,.02,13.49.09,4.52-.41,9.05.34,13.55,0,11.37,0,22.73,0,34.1,0,8.44-.55,16.89-.55,25.33,0,13.15.02,26.31.02,39.46,0,2.35-.34,4.65-1.2,6.85-4.57,11.78-19.6,14.24-28,5.52-2.09-2.17-3.66-4.57-4.16-7.56-.24-1.41-.35-2.86-.35-4.29-.02-14.94-.02-29.87-.02-44.81v-1.92H0v1.72c0,12.9,0,25.8,0,38.7,0,.85.01,1.7,0,2.55-.03,4.67.05,9.33.94,13.93.81,4.19,2.15,8.2,4.17,11.96,3.15,5.86,7.51,10.67,12.96,14.46,6.72,4.68,14.25,7.03,22.39,7.45,2.79.15,5.59.08,8.39.09,2.59.02,5.16-.11,7.73-.54,4.56-.76,9.42-2.18,13.47-4.39,5.86-3.2,10.72-7.57,14.78-12.85,5.53-7.18,8.44-15.34,8.74-24.36.2-5.93.08-11.88.08-17.82,0-21.73-.01-43.45-.01-65.18,0-15.32,0-30.64,0-45.96,0-.33-.04-.65-.07-1.05h-29.96Z"/>
      <path class="cls-1" d="m93.65,75.54c0-.59,0-1.05,0-1.51,0-2.33.06-4.67-.03-7-.04-1.07.32-1.85.95-2.64,3.53-4.4,7.04-8.82,10.55-13.23,7.81-9.82,15.63-19.65,23.44-29.48.92-1.15,1.82-2.31,2.8-3.56-7.63-6.07-15.19-12.08-22.78-18.12-.24.26-.42.43-.58.63-9.63,12.12-19.26,24.24-28.9,36.36-4.91,6.18-9.82,12.35-14.74,18.52-.53.66-.79,1.32-.78,2.19.03,5.56.02,11.12.02,16.67,0,.37.04.74.06,1.17h29.98Z"/>
      <g>
        <path class="cls-1" d="m63.61,83.34h29.96c.03.4.07.72.07,1.05,0,15.32,0,30.64,0,45.96,0,21.73.01,43.45.01,65.18,0,5.94.12,11.89-.08,17.82-.3,9.02-3.21,17.18-8.74,24.36-4.06,5.28-8.91,9.65-14.78,12.85-4.06,2.21-8.91,3.63-13.47,4.39-2.56.43-5.14.56-7.73.54-2.8-.02-5.6.05-8.39-.09-8.14-.42-15.66-2.77-22.39-7.45-5.45-3.79-9.8-8.6-12.96-14.46-2.02-3.76-3.36-7.77-4.17-11.96C.06,216.9-.03,212.24,0,207.57c0-.85,0-1.7,0-2.55,0-12.9,0-25.8,0-38.7v-1.72h29.72v1.92c0,14.94,0,29.87.02,44.81,0,1.43.12,2.88.35,4.29.5,2.99,2.07,5.39,4.16,7.56,8.4,8.72,23.43,6.26,28-5.52.85-2.2,1.2-6.94,1.2-9.29,0-13.15.17-124.42.17-125.04Z"/>
        <path class="cls-1" d="m188.29,159.84c0,12.94-4.16,23.46-12.47,31.58-8.32,8.11-18.82,12.17-31.5,12.17s-23.13-4.06-31.34-12.17c-8.2-8.11-12.31-18.64-12.31-31.58v-58.54c0-12.93,4.05-23.46,12.14-31.57,8.09-8.11,18.48-12.17,31.17-12.17s23.24,4.06,31.67,12.17c8.42,8.11,12.63,18.64,12.63,31.57v58.54Zm-28.88.04v-58.63c0-9.66-4.92-14.49-14.76-14.49s-15.1,4.83-15.1,14.49v58.63c0,9.67,5.03,14.49,15.1,14.49s14.76-4.83,14.76-14.49Z"/>
        <path class="cls-1" d="m282.07,159.61c-1.1,13.35-5.96,24.01-14.6,32-8.65,7.99-18.98,11.98-31.01,11.98s-22.31-4.03-30.19-12.11c-7.88-8.08-11.81-18.66-11.81-31.76v-57.95c0-13.1,4.15-23.74,12.47-31.92,8.31-8.18,18.81-12.28,31.5-12.28s23.14,4.1,31.34,12.31c8.2,8.2,12.31,18.87,12.31,32v43.32h-58.74v14.6c0,4.2,1.51,7.69,4.53,10.45,3.02,2.77,6.66,4.15,10.91,4.15,9.39,0,14.2-4.92,14.43-14.77h28.88Zm-28.88-43.64l-.33-14.28c0-9.52-4.87-14.28-14.6-14.28s-14.93,4.76-14.93,14.28v14.28h29.86Z"/>
      </g>
      <g>
        <path class="cls-2" d="m292.24,50.06h-40.78c-.32-1.03-.38-27.62-.09-29.11h117.38v29.03h-46.77v89.51c0,7.6-.03,15.19.02,22.79.01,1.68.29,3.36.44,5.04.07.8.22,1.6.23,2.4.01,3.45,1.07,6.67,2.2,9.86,1.73,4.88,4.24,9.35,7.62,13.27,1.82,2.12,3.87,4.04,5.84,6.03.36.36.8.63,1.13.88-.7,1.53-16.56,19.46-18.69,21.23-1.77-.81-3.4-1.94-4.99-3.13-5.2-3.89-9.22-8.84-12.69-14.28-4.11-6.47-6.92-13.49-8.58-20.95-.77-3.46-1.36-6.97-1.73-10.49-.36-3.32-.48-105.68-.48-120.87,0-.33-.04-.67-.07-1.21Z"/>
        <path class="cls-2" d="m93.65,75.54h-29.98c-.02-.43-.06-.8-.06-1.17,0-5.56.01-11.12-.02-16.67,0-.87.25-1.53.78-2.19,4.93-6.16,9.83-12.34,14.74-18.52,9.63-12.12,19.26-24.24,28.9-36.36.15-.19.33-.36.58-.63,7.59,6.04,15.15,12.05,22.78,18.12-.98,1.25-1.89,2.41-2.8,3.56-7.81,9.83-15.62,19.65-23.44,29.48-3.51,4.41-7.02,8.83-10.55,13.23-.63.79-.99,1.57-.95,2.64.09,2.33.03,4.67.03,7,0,.46,0,.93,0,1.51Z"/>
        <path class="cls-2" d="m34.29,164.8h24.7c.05.75.14,1.46.14,2.17-.04,15.05-.07,30.11-.14,45.16-.01,2.27-.69,4.41-1.72,6.44-.96,1.89-2.65,2.84-4.52,3.47-4.55,1.54-9.05,1.38-13.45-.65-1.62-.75-2.76-1.93-3.5-3.53-.96-2.1-1.5-4.32-1.5-6.63-.02-14.84-.01-29.69-.02-44.53,0-.59,0-1.17,0-1.9Z"/>
        <path class="cls-2" d="m418.12,159.46c0,12.91-4.1,23.46-12.31,31.67-8.2,8.2-18.54,12.31-31.01,12.31s-23.14-4.1-31.34-12.31c-8.2-8.2-12.53-18.76-12.96-31.67-.44-12.03,3.69-22.31,12.38-30.85,8.69-8.53,19.19-12.8,31.51-12.8h14.85v-14.94c0-4.2-1.51-7.63-4.53-10.29-3.02-2.66-6.77-3.98-11.24-3.98-9.39,0-14.09,4.81-14.09,14.44h-28.88c.87-12.91,5.58-23.41,14.11-31.5,8.53-8.09,19.03-12.14,31.5-12.14s22.31,4.05,30.19,12.14c7.88,8.1,11.81,18.6,11.81,31.5v58.41Zm-28.88.33v-14.77h-14.93c-8.63,0-13.5,4.92-14.6,14.77,0,9.63,4.87,14.44,14.6,14.44,4.2,0,7.74-1.36,10.61-4.1,2.88-2.73,4.32-6.18,4.32-10.34Z"/>
        <path class="cls-2" d="m512.68,160.01c0,12.28-4.46,22.64-13.37,31.08-8.91,8.44-19.19,12.66-30.85,12.66h-14.52v52.25h-28.88V101.37c0-12.91,4.1-23.41,12.31-31.5,8.2-8.09,18.65-12.14,31.34-12.14s22.92,4.06,31.34,12.17c8.42,8.11,12.63,18.64,12.63,31.57v58.54Zm-28.88.04v-58.63c0-9.66-4.92-14.49-14.76-14.49s-15.1,4.83-15.1,14.49v73.12h14.76c4.25,0,7.83-1.42,10.74-4.28,2.91-2.85,4.36-6.26,4.36-10.21Z"/>
      </g>
    </g>
  </g>
</svg>