<?xml version="1.0" encoding="UTF-8"?>
<svg id="Layer_1" data-name="Layer 1" xmlns="http://www.w3.org/2000/svg" version="1.1" viewBox="0 0 576 216">
  <defs>
    <style>
      .cls-1 {
        fill: none;
      }

      .cls-1, .cls-2 {
        stroke-width: 0px;
      }

      .cls-2 {
        fill: #07314d;
      }
    </style>
  </defs>
  <rect class="cls-1" y="-.2" width="575.9" height="216.7"/>
  <g>
    <path class="cls-2" d="M145.9,163.6h0c0-13.2,9.8-24,23.1-24s13.2,3,17.9,7.4l-2.4,2.5c-4-3.9-8.6-6.8-15.6-6.8-11.1,0-19.5,9-19.5,20.6h0c0,11.8,8.5,20.9,19.5,20.9s11.2-2.6,15.9-7.2l2.3,2.2c-4.9,4.8-10.2,8-18.3,8-13.1,0-22.9-10.4-22.9-23.6Z"/>
    <path class="cls-2" d="M240.6,140h3.3l21.5,46.5h-3.8l-5.9-12.9h-27.2l-5.9,12.9h-3.6l21.6-46.5ZM254.3,170.5l-12.1-26.7-12.2,26.7h24.3Z"/>
    <path class="cls-2" d="M297.7,179.8l2.2-2.6c5.1,4.7,9.8,6.9,16.6,6.9s11.7-3.9,11.7-9.2h0c0-5-2.6-7.8-13.1-9.9-11.1-2.2-15.6-6-15.6-13h0c0-7,6.3-12.2,14.8-12.2s11.2,1.8,15.8,5.6l-2.1,2.6c-4.4-3.8-8.7-5.2-13.8-5.2s-11.3,3.9-11.3,8.7h0c0,5,2.5,8,13.5,10.2,10.7,2.2,15.2,6,15.2,12.7h0c0,7.6-6.4,12.7-15.3,12.7-7.4,0-13.1-2.4-18.6-7.3Z"/>
    <path class="cls-2" d="M385.8,140h3.3l21.5,46.5h-3.8l-5.9-12.9h-27.2l-5.9,12.9h-3.6l21.6-46.5ZM399.6,170.5l-12.1-26.7-12.2,26.7h24.3Z"/>
  </g>
  <g>
    <path class="cls-2" d="M528.3,42.4h-50.6c-5.1,0-9.2,4.1-9.2,9.2v-9.2h-13.8v59.8h13.8v-46h59.8v-13.8Z"/>
    <path class="cls-2" d="M199.3,51.6v18.4c0,5.1,4.1,9.2,9.2,9.2h50.6v9.2h-59.8v13.8h64.4c5.1,0,9.2-4.1,9.2-9.2v-18.4c0-5.1-4.1-9.2-9.2-9.2h-50.6v-9.2h59.8v-13.8h-64.4c-5.1,0-9.2,4.1-9.2,9.2Z"/>
    <path class="cls-2" d="M88.8,88.4h-46v-23h-13.8v27.6c0,5.1,4.1,9.2,9.2,9.2h55.2c5.1,0,9.2-4.1,9.2-9.2V28.6h-13.8v59.8Z"/>
    <path class="cls-2" d="M178.6,42.4h-55.2c-5.1,0-9.2,4.1-9.2,9.2v41.4h0c0,5.1,4.1,9.2,9.2,9.2h55.2c5.1,0,9.2-4.1,9.2-9.2v-41.4c0-5.1-4.2-9.2-9.2-9.2ZM127.9,88.4v-32.2h46v32.2h-46Z"/>
    <path class="cls-2" d="M348.8,42.4h-41.4c-5.1,0-9.2,4.1-9.2,9.2v-9.2h-13.8v73.6h13.8v-23c0,5.1,4.1,9.2,9.2,9.2h41.4c5.1,0,9.2-4.1,9.2-9.2v-41.4c0-5.1-4.1-9.2-9.2-9.2ZM344.2,88.4h-46v-32.2h46v32.2Z"/>
    <path class="cls-2" d="M443.2,79.2v-27.6c0-5.1-4.1-9.2-9.2-9.2h-55.2c-5.1,0-9.2,4.1-9.2,9.2v41.4h0c0,5.1,4.1,9.2,9.2,9.2h64.4v-13.8h-59.8v-9.2s59.8,0,59.8,0ZM383.3,56.2h46v9.2h-46v-9.2Z"/>
  </g>
  <g>
    <path class="cls-2" d="M521.3,88.4c-3.8,0-7,3-7,6.9s3.2,7,7,7,6.9-3,6.9-7c0-3.9-3.1-6.9-6.9-6.9ZM521.3,101.2c-3.2,0-5.7-2.6-5.7-5.9s2.5-5.9,5.7-5.9,5.7,2.6,5.7,5.9-2.5,5.9-5.7,5.9Z"/>
    <path class="cls-2" d="M524.6,93.6c0-1.6-.9-2.3-2.8-2.3h-3.1v8.1h1.3v-3.5h1.3l2.2,3.5h1.3l-2.3-3.6c1.2-.2,2.1-.8,2.1-2.2ZM521.2,94.9h-1.3v-2.6h1.7c.9,0,1.8.2,1.8,1.2-.1,1.3-1.1,1.4-2.2,1.4Z"/>
  </g>
</svg>