<?xml version="1.0" encoding="utf-8"?>
<!-- Generator: Adobe Illustrator 27.8.1, SVG Export Plug-In . SVG Version: 6.00 Build 0)  -->
<svg version="1.1" id="Layer_1" xmlns="http://www.w3.org/2000/svg" xmlns:xlink="http://www.w3.org/1999/xlink" x="0px" y="0px"
	 viewBox="0 0 432 288" style="enable-background:new 0 0 432 288;" xml:space="preserve">
<style type="text/css">
	.st0{fill:#09304D;}
</style>
<g>
	<path class="st0" d="M309,135.5h-5.6c-0.3,0-0.3,0.3-0.3,0.3c0,1.3,0,12.3,0,12.3c0,1.7-1,2.3-3,2.3h-1.7c-2.3,0-3.3-1-3.3-2.6v0.3
		l0,0v-1.7c0-0.7,0-0.7-0.7-0.7c-1.7,0-4,0-5.6,0h-0.3l0,0l0,0c0,0,0,0,0,0.3c0,2-0.3,4.6,0.7,7c1,2.3,3,3.3,7.3,3.3h0.3h4h0.3h0.3
		h0.3h0.3c3,0,5-0.7,6-2.3c1-1.3,1.3-2.6,1.3-5v-12.9C309.7,135.8,309.3,135.5,309,135.5"/>
	<path class="st0" d="M334.5,145.1v2c0,2.6-0.7,3.6-2.6,3.6h-7.3c-2.3,0-2.6-0.7-2.6-3.6v-2c0-2.3,0.3-3.3,3-3.3h6.6
		C333.8,141.4,334.5,142.7,334.5,145.1 M332.5,135.5h-9.3c-4.6,0-8.6,1-8.6,7.6v6c0,6.6,4.3,7.6,8.6,7.6h9.3c4.6,0,8.6-1,8.6-7.6v-6
		C341.1,136.4,336.8,135.5,332.5,135.5"/>
	<path class="st0" d="M276.5,145.1v2c0,2.6-0.7,3.6-2.6,3.6h-7.3c-2.3,0-2.6-0.7-2.6-3.6v-2c0-2.3,0.3-3.3,3-3.3h6.6
		C275.9,141.4,276.5,142.7,276.5,145.1 M274.5,135.5h-9.3c-4.6,0-8.6,1-8.6,7.6v6c0,6.6,4.3,7.6,8.6,7.6h9.3c4.6,0,8.6-1,8.6-7.6v-6
		C283.2,136.4,279.2,135.5,274.5,135.5"/>
	<path class="st0" d="M123.2,155.3c-3.6-3.3-7.3-6.6-10.9-9.6c3.3-3,6.6-6.3,9.6-9.3c0.3-0.3,0-0.7-0.3-0.7h-5.3c-3,0-2.6,0-3.3,0.3
		c-1.7,1.7-6.6,6.6-6.6,6.6V136c0-0.3-0.3-0.3-0.3-0.3h-5.6H100l0,0l0,0c0,0,0,0,0,0.3v19.5c0,0.3,0.3,0.3,0.3,0.3h5.6
		c0.3,0,0.3-0.3,0.3-0.3v-7c0,0,7,6.3,7.3,6.6c0.7,0.7,0.7,0.7,1,0.7h1h2.6h4.6C123.2,156,123.5,155.3,123.2,155.3"/>
	<path class="st0" d="M188.4,135.5h-8.6c0,0-0.3,0-0.3,0.3c-2,4-4,7.9-6,11.9c-2-4-4-7.9-6-11.9l-0.3-0.3h-8.6h-0.3l0,0l0,0
		c0,0,0,0,0,0.3V153v2.3c0,0.3,0.3,0.3,0.3,0.3h5.6c0.3,0,0.3-0.3,0.3-0.3v-12.6c0.7,1.3,5.6,10.3,6.6,12.6l0.3,0.3h4.3
		c0,0,0.3,0,0.3-0.3c1.3-2.3,6.6-12.3,6.6-12.6v12.6c0,0.3,0.3,0.3,0.3,0.3h5.6c0.3,0,0.3-0.3,0.3-0.3v-19.5
		C189.1,135.8,188.8,135.5,188.4,135.5"/>
	<path class="st0" d="M204,147.4c1-2,2-4,3-6c1,2,2,4,3,6H204z M221.2,155.3c-3-5.6-9.9-18.9-10.3-19.5l-0.3-0.3h-7.3
		c0,0-0.3,0-0.3,0.3c-3,5.6-9.6,18.9-9.9,19.5c0,0.3,0,0.7,0.3,0.7h6.3c0,0,0.3,0,0.3-0.3c0.3-0.7,1-2.3,1.7-3.3h10.9
		c0,0,1.3,2.6,1.7,3.3l0.3,0.3h6.3C221.2,156,221.5,155.7,221.2,155.3"/>
	<path class="st0" d="M367.6,150.4H353V148h12c0.3,0,0.3-0.3,0.3-0.3v-4c0-0.3-0.3-0.3-0.3-0.3h-11.9v-2.3c4.6,0,9.9,0,14.6,0
		c0.3,0,0.3-0.3,0.3-0.3v-4.6c0-0.3-0.3-0.3-0.3-0.3h-20.5h-0.3l0,0l0,0c0,0,0,0,0,0.3v19.5c0,0.3,0.3,0.3,0.3,0.3h20.5
		c0.3,0,0.3-0.3,0.3-0.3V151C368,150.7,367.6,150.4,367.6,150.4"/>
	<path class="st0" d="M371.9,138.1L371.9,138.1c0.3,0,0.7,0,0.7-0.3s0-0.3-0.3-0.3H372v0.6H371.9z M371.9,139.4h-0.3v-2
		c0.3,0,0.3,0,0.7,0s0.7,0,0.7,0.3l0.3,0.3c0,0.3-0.3,0.3-0.3,0.7l0,0c0.3,0,0.3,0.3,0.3,0.7s0,0.3,0,0.7h-0.7v-0.3
		c0-0.3-0.3-0.3-0.3-0.3L371.9,139.4L371.9,139.4z M372.3,136.4c-1,0-1.7,0.7-1.7,1.7s0.7,1.7,1.7,1.7s1.7-0.7,1.7-1.7
		C373.9,137.4,373.3,136.4,372.3,136.4L372.3,136.4z M372.3,136.1c1.3,0,2,1,2,2c0,1.3-1,2-2,2c-1.3,0-2.3-1-2.3-2
		C370.3,137.1,371.3,136.1,372.3,136.1L372.3,136.1z"/>
	<path class="st0" d="M139.4,141.4c1,2,2,4,3,6h-6C137.4,145.4,138.4,143.4,139.4,141.4 M153.6,155.3c-3-5.6-9.9-18.9-10.3-19.5
		l-0.3-0.3h-7.3c0,0-0.3,0-0.3,0.3c-3,5.6-9.6,18.9-9.9,19.5c0,0.3,0,0.7,0.3,0.7h6.3c0,0,0.3,0,0.3-0.3c0.3-0.7,1-2.3,1.7-3.3H145
		c0,0,1.3,2.6,1.7,3.3l0.3,0.3h6.3C153.6,156,154,155.7,153.6,155.3"/>
	<path class="st0" d="M244.7,148.7c-0.7,2-4.3,1.7-6.3,1.7h-6.3c0,0-0.3,0-0.3-0.3v-8.6l0,0l0,0l0,0l0,0h7.3c2,0,4.3-0.3,5.3,1.3
		C245.1,143.7,245.1,147.7,244.7,148.7 M251,139.8c-1.3-4.6-6.6-4.3-10.6-4.3h-14.2h-0.3l0,0l0,0c0,0,0,0,0,0.3V153v2.3
		c0,0.3,0.3,0.3,0.3,0.3h12.6c3.6,0,10.3,0.7,12.3-3.6C252,149.4,251.7,142.1,251,139.8"/>
	<path class="st0" d="M87.1,141.7c-4.6,1-9.6,1.3-14.2,1.3c-5,0-9.6-0.3-14.2-1.3c-0.7,0-1,0.3-1,1s0,1.3,0.3,2c0,0.3,0.3,0.7,0.7,1
		c0,0.3,0,1,0,1.3c0,1.7,0.3,3.6,0.7,5.3c0.3,1.7,0.7,3.6,1.3,5.3c0.3,1,0.7,2,1,2.6c0.3,0.3,0.3,0.7,0.3,1v0.3l0,0v0.3
		c0.3,1,1,1.7,2,2s2,0.7,3,0.7c0.7,0,1.7,0.3,2.6,0.3c1,0,2,0,3,0s2,0,3,0c0.7,0,1,0,1.7,0c0.3,0,0.7,0,1,0c1,0,2-0.3,3-0.7
		s1.7-1,2-2v-0.3l0,0v-0.3c0-0.3,0.3-0.7,0.3-1c0.3-1,0.7-1.7,1-2.6c0.7-1.7,1-3.6,1.3-5.3s0.7-3.6,0.7-5.3c0-0.3,0-1,0-1.7
		c0-0.3,0.3-0.7,0.7-1c0.3-0.7,0-1.3,0.3-2C88.1,142.1,87.4,141.7,87.1,141.7"/>
	<path class="st0" d="M87.1,135.5c-0.7-0.7-0.7-1.3-1-2.3c-0.3-0.7-0.7-1.3-1.3-2c-1.7-2.3-4.3-4-7.3-4.6l0,0c0-0.3,0-0.3-0.3-0.3
		V126c0-0.3,0-0.3,0-0.7c0,0,0,0,0-0.3s0-0.3-0.3-0.3s-0.3,0-0.7,0c-0.3,0-0.3,0-0.7,0c0,0-0.3-0.3-0.3-0.7v-0.3l0,0c0,0,0,0-0.3,0
		s-0.7,0-1,0h-0.3h-3h-0.3c-0.3,0-0.7,0-1,0c0,0,0,0-0.3,0l0,0v0.3l-0.3,0.7c-0.3,0-0.3,0-0.7,0c-0.3,0-0.3,0-0.7,0s-0.3,0-0.3,0.3
		v0.3c0,0.3,0,0.3,0,0.7s0,0.3,0,0.7l0,0c0,0,0,0,0,0.3c-2.6,0.7-5.3,2.3-7.3,4.6c-0.3,0.7-1,1.3-1,2c-0.3,0.7-0.3,1.7-1,2.3
		c-0.3,0.7-0.7,1-1,1.7c0,0.7,0,1.3,0,2c0,0.3,0.3,0.7,0.7,0.7c9.6,1.7,19.9,1.7,29.5,0c0.3,0,0.7-0.3,0.7-0.7
		C88.1,137.8,87.7,136.4,87.1,135.5"/>
</g>
</svg>
