<?xml version="1.0" encoding="utf-8"?>
<!-- Generator: Adobe Illustrator 27.8.1, SVG Export Plug-In . SVG Version: 6.00 Build 0)  -->
<svg version="1.1" id="Layer_1" xmlns="http://www.w3.org/2000/svg" xmlns:xlink="http://www.w3.org/1999/xlink" x="0px" y="0px"
	 viewBox="0 0 432 288" style="enable-background:new 0 0 432 288;" xml:space="preserve">
<style type="text/css">
	.st0{fill:#09304D;}
</style>
<path class="st0" d="M108.1,116.9c0-0.5-0.5-1-0.5-1s-1-0.5-2-0.5h-8.5c-1,0-1.5,0.5-1.5,0.5s-0.5,0.5-0.5,1l-10.9,49.2
	c0,0.5,0,1,0,1s0.5,0.5,1,0.5l0,0h4.5c1,0,1.5-0.5,1.5-0.5s0.5-0.5,0.5-1l1.5-7.5c0-1,1-2,1-2s1-1,2-1c0,0,0,0,0.5,0h8
	c1.5,0,2.5,1,2.5,1s1,1,1,2l1.5,7c0.5,0.5,1,1.5,1,1.5s0.5,0.5,1.5,0.5h4.5c1,0,1.5-0.5,1.5-0.5s0.5-0.5,0.5-1L108.1,116.9z
	 M106.2,148.7c0,0-1,0.5-2,0.5h-5c-1.5,0-2-0.5-2-0.5s-0.5-0.5-0.5-2l0,0l4-19.4c0-1,0.5-1,1-1s1,0.5,1,1l4,19.4
	C107.1,147.7,106.6,148.7,106.2,148.7"/>
<path class="st0" d="M66.9,183.5c-0.5,0-1-0.5-1-0.5l-0.5-1l0,0v-75.1c0-1,0.5-1.5,0.5-1.5s0.5-0.5,1.5-0.5h5c1,0,1.5,0.5,1.5,0.5
	s0.5,0.5,0.5,1.5V172c0,1.5,1,2.5,1,2.5s1,1,2,1h298.8l0,0c1,0,1,0.5,1,0.5s0.5,0.5,0.5,1.5v4.5c0,1-0.5,1.5-0.5,1.5
	s-0.5,0.5-1.5,0.5L66.9,183.5L66.9,183.5z"/>
<path class="st0" d="M159.4,169.6c-6,0-11.4-2.5-13.9-7c-2.5-4-3-7-3-16.9v-17.9c0-10.4,0.5-13.9,3.5-17.4c3-4,7.5-6,13.4-6
	c10.4,0,16.9,7,16.9,18.9c0,0,0,0.5-0.5,1l0,0l0,0c0,0-0.5,0.5-1.5,0.5h-5c-0.5,0-1-0.5-1-0.5c-0.5-0.5-0.5-1-0.5-1.5
	c-0.5-7-3.5-10.9-8.5-10.9c-6.5,0-8,5-8,13.4v21.4c0,9.4,1.5,14.4,8,14.4c5.5,0,8.5-4,8.5-12.4c0,0,0-1,0.5-1.5c0,0,0.5-0.5,1.5-0.5
	h4.5c1,0,1.5,0.5,1.5,0.5c0.5,0.5,0.5,1,0.5,1.5C176.3,162.1,170.3,169.6,159.4,169.6"/>
<path class="st0" d="M213.5,109.9c-2.5-4-7.5-6-13.4-6c-6,0-10.4,2-13.4,6c-2.5,3.5-3.5,8-3.5,14.9v23.4c0,7.5,1,11.4,3.5,14.9
	c2.5,4,7.5,6,13.4,6h0.5c5.5,0,9.9-2,12.9-6c2.5-3.5,3.5-8,3.5-14.9v-23.4C217,117.9,216,113.9,213.5,109.9 M208.1,148.2
	c0,8-1.5,12.9-8.5,12.9s-8.5-5-8.5-12.9v-23.4c0-8.5,1.5-12.9,8.5-12.9l0,0c7,0,8,5,8,12.9v23.4H208.1z"/>
<path class="st0" d="M324.9,169.6c-6,0-10.4-2-12.9-5.5c-2.5-4-3.5-7.5-3.5-15.9v-41.3c0-1,0.5-1.5,0.5-1.5s0.5-0.5,1.5-0.5h5
	c1,0,1.5,0.5,1.5,0.5s0.5,0.5,0.5,1.5v43.3c0,8,2.5,11.4,8,11.4s8-3.5,8-11.4v-42.8c0-1,0.5-1.5,0.5-1.5s0.5-0.5,1.5-0.5h5
	c1,0,1.5,0.5,1.5,0.5s0.5,0.5,0.5,1.5v41.3c0,8.5-1,12.4-3.5,15.9C334.9,167.6,330.4,169.6,324.9,169.6L324.9,169.6z"/>
<path class="st0" d="M351.3,168.6c-1,0-1.5-0.5-1.5-0.5s-0.5-0.5-0.5-1.5v-59.7c0-0.5,0.5-1,0.5-1s1-0.5,1.5-0.5h24.4
	c1,0,1.5,0.5,1.5,0.5s0.5,0.5,0.5,1.5v4c0,1-0.5,1.5-0.5,1.5s-0.5,0.5-1.5,0.5h-14.4c-1.5,0-2.5,1-2.5,1s-1,1-1,3v11.4
	c0,1.5,1,2.5,1,2.5s1,1,2.5,1h11.9c1,0,1.5,0.5,1.5,0.5s0.5,0.5,0.5,1.5v4c0,0.5-0.5,1-0.5,1.5c0,0-0.5,0.5-1,0.5l0,0h-11.9
	c-1.5,0-2,1-2,1s-1,1-1,2.5v14.9c0,1.5,1,2.5,1,2.5c0.5,0.5,1,1,2.5,1h14.4c0.5,0,1.5,0.5,1.5,0.5s0.5,0.5,0.5,1.5v4
	c0,0.5-0.5,1.5-0.5,1.5s-0.5,0.5-1.5,0.5h-25.4V168.6z"/>
<path class="st0" d="M248.8,142.2L248.8,142.2c-1.5-2,0-3,1.5-4.5c4-3,6.5-8,6.5-14.9c0-11.9-6-17.9-17.9-17.9h-13.4
	c-0.5,0-1,0.5-1.5,0.5c0,0-0.5,0.5-0.5,1.5v59.7c0,1,0.5,1.5,0.5,1.5s0.5,0.5,1.5,0.5h5c1,0,1.5-0.5,1.5-0.5s0.5-0.5,0.5-1.5v-21.4
	c0-1.5,0.5-2.5,1-2.5l0,0l0,0c0,0,1-1,3-0.5c8.5,4,13.9,13.4,14.9,24.4c0,1,0.5,2,1.5,2h5c1,0,1.5-0.5,1.5-2
	C259.3,156.7,255.3,148.2,248.8,142.2 M237.4,133.8h-1c0,0,0,0-0.5,0c-1,0-2-1-2-1s-1-1-1-2.5v-14.4c0-1.5,1-2.5,1-2.5s1-1,2.5-1h1
	c8,0,10.9,3,10.9,10.4C248.4,131.3,245.4,133.8,237.4,133.8"/>
<path class="st0" d="M299.6,105.4c0,0-0.5-0.5-1.5-0.5h-5c-1,0-1.5,0.5-1.5,0.5s-0.5,0.5-0.5,1.5c0,0.5,0,6,0,13.4
	c-6-9.4-14.4-15.4-23.9-15.4l0,0c-1,0-1.5,0.5-1.5,0.5s-0.5,0.5-0.5,1.5v59.7c0,0.5,0.5,1.5,0.5,1.5s0.5,0.5,1.5,0.5h5
	c1,0,1.5-0.5,1.5-0.5s0.5-0.5,0.5-1.5v-50.2c0-0.5,0-0.5,0-0.5c9.4,4.5,16.9,17.9,16.9,33.8c0,9.4,0,16.9,0,17.4s0.5,1.5,0.5,1.5
	s0.5,0.5,1.5,0.5h5h0.5c0.5,0,1-0.5,1-0.5s0.5-0.5,0.5-1.5v-59.7C300.1,105.9,299.6,105.4,299.6,105.4"/>
</svg>
