<?xml version="1.0" encoding="utf-8"?>
<!-- Generator: Adobe Illustrator 27.8.1, SVG Export Plug-In . SVG Version: 6.00 Build 0)  -->
<svg version="1.1" id="Layer_1" xmlns="http://www.w3.org/2000/svg" xmlns:xlink="http://www.w3.org/1999/xlink" x="0px" y="0px"
	 viewBox="0 0 432 288" style="enable-background:new 0 0 432 288;" xml:space="preserve">
<style type="text/css">
	.st0{fill:#09304D;}
</style>
<g>
	<path class="st0" d="M267,81.7c0,27.1-22,49.2-49.2,49.2s-49.2-22-49.2-49.2s22-49.2,49.2-49.2S267,54.6,267,81.7z M202.2,98.3V55
		h-4.7v43.3v4.7l0,0h47v-4.7H202.2z M244.5,81.6h-26.7V55h-4.7v26.6v4.8l0,0h31.4V81.6z"/>
	<g>
		<g>
			<path class="st0" d="M97.5,145.8h6.1v29.3h18.3v5.6H97.5V145.8z"/>
			<path class="st0" d="M133.3,145.8h25.8v5.5h-19.7v9.1h17.5v5.5h-17.5v9.4h20v5.5h-26.1V145.8z"/>
			<path class="st0" d="M190,175.6l3.7-4.4c3.3,2.9,6.7,4.5,11,4.5c3.8,0,6.2-1.8,6.2-4.4v-0.1c0-2.5-1.4-3.8-7.9-5.3
				c-7.4-1.8-11.6-4-11.6-10.4v-0.1c0-6,5-10.1,11.9-10.1c5.1,0,9.1,1.5,12.6,4.4l-3.3,4.6c-3.1-2.3-6.3-3.6-9.5-3.6
				c-3.6,0-5.7,1.8-5.7,4.1v0.1c0,2.7,1.6,3.9,8.3,5.5c7.4,1.8,11.1,4.4,11.1,10.2v0.1c0,6.5-5.1,10.4-12.4,10.4
				C199.2,181.2,194.2,179.3,190,175.6z"/>
			<path class="st0" d="M228.6,165.9v-20.1h6.1v19.8c0,6.5,3.3,9.9,8.8,9.9c5.4,0,8.8-3.2,8.8-9.7v-20.1h6.1v19.8
				c0,10.4-5.9,15.6-15,15.6C234.4,181.2,228.6,176,228.6,165.9z"/>
			<path class="st0" d="M271.8,145.8h15.5c4.4,0,7.8,1.3,10.1,3.5c1.8,1.9,2.9,4.5,2.9,7.5v0.1c0,5.7-3.4,9.2-8.3,10.5l9.4,13.2
				h-7.3l-8.6-12.1h-7.7v12.1h-6.1v-34.8H271.8z M286.9,163.1c4.4,0,7.2-2.3,7.2-5.8v-0.1c0-3.7-2.7-5.8-7.2-5.8H278v11.7
				L286.9,163.1L286.9,163.1z"/>
			<path class="st0" d="M312.7,145.8h25.8v5.5h-19.7v9.1h17.5v5.5h-17.5v9.4h20v5.5h-26.1L312.7,145.8L312.7,145.8z"/>
		</g>
		<polygon class="st0" points="171.9,150.8 171.9,180.7 178,180.7 178,145.8 		"/>
	</g>
	<g>
		<g>
			<path class="st0" d="M168.1,210.7l2.2-2.6c2,1.7,3.9,2.7,6.5,2.7c2.2,0,3.6-1.1,3.6-2.6v-0.1c0-1.5-0.8-2.2-4.6-3.1
				c-4.3-1.1-6.8-2.3-6.8-6.1v-0.1c0-3.5,2.9-5.9,7-5.9c3,0,5.3,0.9,7.4,2.6l-1.9,2.7c-1.8-1.4-3.7-2.1-5.5-2.1
				c-2.1,0-3.3,1.1-3.3,2.4v0.1c0,1.6,0.9,2.3,4.9,3.2c4.3,1.1,6.5,2.6,6.5,6v0.1c0,3.8-3,6.1-7.3,6.1
				C173.5,214,170.6,212.9,168.1,210.7z"/>
			<path class="st0" d="M203.3,193.3h3.3l10.9,14.1v-14.1h3.5v20.4h-3l-11.3-14.5v14.5h-3.5v-20.4H203.3z"/>
			<path class="st0" d="M229.3,193.3h3.6v10.3l9.7-10.3h4.4l-8.5,8.8l8.9,11.6H243l-7-9.2l-3.2,3.3v5.9h-3.6v-20.4H229.3z"/>
			<path class="st0" d="M251.7,210.7l2.2-2.6c2,1.7,3.9,2.7,6.5,2.7c2.2,0,3.6-1.1,3.6-2.6v-0.1c0-1.5-0.8-2.2-4.6-3.1
				c-4.4-1.1-6.8-2.3-6.8-6.1v-0.1c0-3.5,2.9-5.9,7-5.9c3,0,5.3,0.9,7.4,2.6l-1.9,2.7c-1.8-1.4-3.7-2.1-5.5-2.1
				c-2.1,0-3.3,1.1-3.3,2.4v0.1c0,1.6,0.9,2.3,4.9,3.2c4.3,1.1,6.5,2.6,6.5,6v0.1c0,3.8-3,6.1-7.3,6.1
				C257.1,214,254.2,212.9,251.7,210.7z"/>
		</g>
		<polygon class="st0" points="191.3,196.2 191.3,213.7 194.9,213.7 194.9,193.3 		"/>
	</g>
</g>
</svg>
