<?xml version="1.0" encoding="utf-8"?>
<!-- Generator: Adobe Illustrator 27.8.1, SVG Export Plug-In . SVG Version: 6.00 Build 0)  -->
<svg version="1.1" id="Layer_1" xmlns="http://www.w3.org/2000/svg" xmlns:xlink="http://www.w3.org/1999/xlink" x="0px" y="0px"
	 viewBox="0 0 432 288" style="enable-background:new 0 0 432 288;" xml:space="preserve">
<style type="text/css">
	.st0{fill:#09304D;}
</style>
<polygon class="st0" points="96.6,157.3 96.6,157.3 96.6,115.4 96.6,115.4 83.1,115.4 83.1,115.4 83.1,168.3 123.7,168.3 
	123.7,157.3 123.7,157.3 "/>
<polygon class="st0" points="140.6,115.4 100.4,115.4 100.4,126 100.4,126 100.4,126 127.5,126 127.5,126 127.5,167.9 127.5,167.9 
	140.6,167.9 "/>
<polygon class="st0" points="191.8,146.7 191.8,146.7 191.8,146.7 171.9,146.7 171.9,115.4 171.9,115.4 153.3,115.4 153.3,155.6 
	153.3,155.6 191.8,155.6 "/>
<g>
	<path class="st0" d="M217.2,149.7l17.8-34.3l0,0l0,0h-14l-10.2,22.8l-9.3-22.8h-18.2l18.2,36.8l0,0c-5.1,8.5-9.7,9.3-16.5,9.7v5.9
		c0.8,0,2.5,0,3.8,0C204.9,167.9,210.4,162.4,217.2,149.7 M232.9,116.7L232.9,116.7L232.9,116.7L232.9,116.7z"/>
</g>
<path class="st0" d="M239.2,155.6h13.5v-20.7l23.7,20.7h9.7V115l0,0h-13.5v19l0,0l0,0L251,115l0,0h-11.8V155.6L239.2,155.6
	L239.2,155.6z M284.1,116.7L284.1,116.7L284.1,116.7L284.1,116.7z"/>
<path class="st0" d="M316.2,145L316.2,145L316.2,145z"/>
<polygon class="st0" points="344.6,155.6 326.8,133.6 326.8,133.6 326.8,133.6 343.7,115.4 328.1,115.4 319.6,125.2 319.6,125.2 
	312,115.4 312,115.4 292.1,115.4 292.1,115.4 292.5,115.4 309,136.2 309,136.2 290.8,155.6 290.8,155.6 290.8,155.6 306.9,155.6 
	316.2,145 316.2,145 324.7,155.6 324.7,155.6 324.7,155.6 "/>
<polygon class="st0" points="178.7,162.8 152.9,162.8 152.9,167.9 178.7,167.9 "/>
<g>
	<path class="st0" d="M208.7,167.5C208.3,167.5,208.3,167.5,208.7,167.5h135.8v-4.7H215.1C214.7,162.8,213.4,166.2,208.7,167.5"/>
</g>
<polygon class="st0" points="123.7,130.2 100.4,130.2 100.4,130.2 100.4,153.5 100.4,153.5 123.7,153.5 "/>
<path class="st0" d="M348.8,165.4L348.8,165.4c0.4,0,0.4-0.4,0.4-0.8c0-0.4,0-0.4-0.4-0.4c0,0-0.4-0.4-0.8-0.4s-0.4,0-0.8,0v3h0.4
	v-1.3h0.4c0.4,0,0.4,0,0.4,0.4s0,0.8,0,0.8h0.4c0,0,0-0.4,0-0.8C349.2,165.4,348.8,165.4,348.8,165.4 M348,164.9L348,164.9l-0.4-0.8
	c0,0,0,0,0.4,0s0.8,0.4,0.8,0.4C348.8,164.9,348.4,164.9,348,164.9"/>
<path class="st0" d="M348.4,162.4L348.4,162.4c-1.3,0-2.5,1.3-2.5,2.5c0,1.3,1.3,2.5,2.5,2.5s2.5-1.3,2.5-2.5
	S349.6,162.4,348.4,162.4 M348.4,167.5c-1.3,0-2.1-0.8-2.1-2.1s0.8-2.1,2.1-2.1l0,0c1.3,0,2.1,0.8,2.1,2.1
	C350.5,166.2,349.2,167.5,348.4,167.5"/>
</svg>
