<?xml version="1.0" encoding="utf-8"?>
<!-- Generator: Adobe Illustrator 27.8.1, SVG Export Plug-In . SVG Version: 6.00 Build 0)  -->
<svg version="1.1" id="Layer_1" xmlns="http://www.w3.org/2000/svg" xmlns:xlink="http://www.w3.org/1999/xlink" x="0px" y="0px"
	 viewBox="0 0 432 288" style="enable-background:new 0 0 432 288;" xml:space="preserve">
<style type="text/css">
	.st0{fill:#09304D;}
</style>
<g>
	<path class="st0" d="M251.5,138.5c-1.7,0-3.3,1.4-3.3,3.3c0,1.9,1.4,3.3,3.3,3.3c1.7,0,3.3-1.4,3.3-3.3
		C254.5,139.9,253.1,138.5,251.5,138.5z"/>
	<path class="st0" d="M203.6,138.5c-1.7,0-3.3,1.7-3.3,3.3c0,1.9,1.4,3.3,3.3,3.3c1.7,0,3.3-1.7,3.3-3.3
		C206.9,139.9,205.5,138.5,203.6,138.5z"/>
	<path class="st0" d="M215,84.2c-32,0-57.9,25.9-57.9,57.9S183,200,215,200s57.9-25.9,57.9-57.9C272.9,110.4,247,84.2,215,84.2z
		 M192.2,148.8H188v-7.2c0-1.1,0-3.1-2.2-3.1s-2.2,1.9-2.2,2.8v7.5h-4.2v-7.5c0-0.8,0-2.8-1.9-2.8c-2.2,0-2.2,2.2-2.2,3.1v7.2H171
		v-8.6c0,0,0-2.5,1.9-4.2c0.6-0.6,1.9-1.4,3.9-1.4c1.1,0,3.1,0.3,4.5,2.2c1.1-1.4,3.1-2.2,4.7-2.2c1.1,0,2.8,0.6,3.9,1.7
		c1.1,1.4,1.9,2.2,1.7,5L192.2,148.8z M211.4,148.8h-3.6V148c-1.1,0.8-2.5,1.4-4.2,1.4c-4.2,0-7.2-3.3-7.2-7.2s3.3-7.2,7.2-7.2
		c1.4,0,2.8,0.6,4.2,1.4v-0.8h3.6V148.8z M223.9,138.8c-1.9-0.6-3.6,0.8-3.6,2.5v7.5h-4.2v-13.9h3.9v0.6v0.3
		c0.6-0.8,1.9-1.4,3.1-1.4c1.4,0,2.2,0.8,2.2,0.8L223.9,138.8z M235,145.4c1.4,0,1.9-0.6,2.5-1.1l2.5,3.1c-1.4,1.4-3.1,1.9-5,1.9
		c-4.2,0-7.2-3.3-7.2-7.2s3.1-7.2,7.2-7.2c1.9,0,3.9,0.8,5.3,2.2l-2.5,3.1c-0.6-0.6-1.4-1.4-2.5-1.4c-1.9,0-3.3,1.4-3.3,3.3
		C232,143.8,233.1,145.4,235,145.4z M251.5,149.1c-5,0-7.2-3.9-7.2-7.2s2.5-7.2,7.2-7.2c5,0,7.2,3.9,7.2,7.2
		S256.2,149.1,251.5,149.1z"/>
	<path class="st0" d="M203.6,145.2c-1.7,0-3.3-1.7-3.3-3.3c0-1.9,1.4-3.3,3.3-3.3c1.7,0,3.3,1.7,3.3,3.3
		C206.9,143.8,205.5,145.2,203.6,145.2z"/>
</g>
</svg>
