<?xml version="1.0" encoding="utf-8"?>
<!-- Generator: Adobe Illustrator 28.1.0, SVG Export Plug-In . SVG Version: 6.00 Build 0)  -->
<svg version="1.1" id="Layer_1" xmlns="http://www.w3.org/2000/svg" xmlns:xlink="http://www.w3.org/1999/xlink" x="0px" y="0px"
	 viewBox="0 0 432 288" style="enable-background:new 0 0 432 288;" xml:space="preserve">
<style type="text/css">
	.st0{fill:#08304E;}
</style>
<g>
	<path class="st0" d="M354.7,115.6l-0.6-3.2l-3.1-1.1c-51.7-18.1-129.8-18.1-135-18.1c-6.7,0-83.8,0.3-134.9,18.2l-3.1,1.1l-0.6,3.2
		c-5.5,28.5-0.1,48.7,0.1,49.5l0.8,2.9l2.8,1C130,186.3,202.7,187,214.7,187h2.7c12,0,84.6-0.7,133.5-17.9l2.8-1l0.8-2.9
		C354.8,164.4,360.2,144.1,354.7,115.6z M349.1,163.7c-48.4,17-122.1,17.6-132.1,17.6h-0.7c0,0-81.3,0.7-133.3-17.6
		c0,0-5.3-19.4,0-46.9C133.3,99.2,211.2,99,216.1,99c4.8,0,82.6,0.1,133,17.7C354.4,144.2,349.1,163.7,349.1,163.7z"/>
	<path class="st0" d="M105,123.6h14l5.3,19.5l5.1-19.5l13.9,0l0,33.9H135l0.4-25.7l-7.6,25.7h-8l-7.3-26l0.2,26H105V123.6z"/>
	<path class="st0" d="M160.6,123.6h11.5l13.4,33.9h-11.1l-2.3-6.8h-12.7l-2.3,6.8h-9.8L160.6,123.6z M170.3,144.4l-4.4-12.8h-0.1
		l-4.7,12.8H170.3z"/>
	<path class="st0" d="M210.9,140.8 M212.6,142.6c1.6,0,4.4,5.4,4.4,5.4l5,9.4h-11.3c0,0-3.5-6.2-5.2-9.5c-1.7-3.3-2.8-3.8-2.8-3.8
		h-4.4v13.2h-9.4v-33.9h17.5c6.1,0,8.4,0.4,10.4,2.4c1,1,2.1,2.9,2.3,6.6C219.6,140.6,212.6,142.6,212.6,142.6z M198.4,136.4h5.3
		c2.1,0,3.1,0,3.9-0.2c2.1-0.5,2.5-2.1,2.5-3c0-3.2-3.7-3.2-6.4-3.2h-5.3V136.4z"/>
	<path class="st0" d="M223.4,123.6h10.4l7.7,24.6l8.1-24.6h9.3l-12.3,33.9h-11.2L223.4,123.6z"/>
	<path class="st0" d="M265.4,123.7h26.3v6.8h-17v5.9h16.1v7.3h-16.1v6.5h17.4v7.3h-26.7V123.7z"/>
	<path class="st0" d="M300.1,123.6h9v26.1h15.8v7.8h-24.7V123.6z"/>
</g>
</svg>
