<?xml version="1.0" encoding="utf-8"?>
<!-- Generator: Adobe Illustrator 27.8.1, SVG Export Plug-In . SVG Version: 6.00 Build 0)  -->
<svg version="1.1" id="Layer_1" xmlns="http://www.w3.org/2000/svg" xmlns:xlink="http://www.w3.org/1999/xlink" x="0px" y="0px"
	 viewBox="0 0 432 288" style="enable-background:new 0 0 432 288;" xml:space="preserve">
<style type="text/css">
	.st0{fill:#09304D;}
</style>
<g>
	<path class="st0" d="M183.7,161.5c-0.7,0-1.1,0-1.1-0.7l-0.4-3c-0.4-1.1-0.4-1.1-1.1-1.1h-4.8c-1.1,0-1.1,0-1.1,1.1l-0.4,3
		c0,0.7-0.4,0.7-1.1,0.7h-3.3c-0.4,0-1.1,0-0.7-0.7l6.7-34.8c0-0.7,0.4-1.1,1.1-1.1h3c0.7,0,1.1,0,1.1,1.1l6.7,34.8
		c0,0.7-0.4,0.7-0.7,0.7H183.7z M175.9,150.8c0,1.1,0,1.1,0.7,1.1h3c1.1,0,1.1,0,0.7-1.1l-2.2-12.6c0-0.4-0.4-0.4-0.4,0L175.9,150.8
		z"/>
	<path class="st0" d="M191.5,133c0-4.8,2.6-8.1,8.1-8.1s7.8,3.7,7.8,9.6c0,0.7-0.4,1.1-1.1,1.1h-3c-0.7,0-1.1-0.4-1.1-1.1
		c0-2.6-0.4-4.8-2.6-4.8c-2.6,0-2.6,2.6-2.6,3.7c0,2.6,1.9,5.6,4.8,8.5c3,3.3,5.9,7.4,5.9,11.8c0,4.8-2.6,8.1-8.1,8.1
		s-7.8-3.7-7.8-9.3c0-0.7,0.4-1.1,1.1-1.1h3c0.7,0,1.1,0.4,1.1,1.1c0,2.6,0.4,4.8,2.6,4.8c2.6,0,2.6-2.6,2.6-3.7
		c0-2.6-1.9-5.6-4.8-8.5C194.5,141.6,191.5,137.5,191.5,133"/>
	<path class="st0" d="M211.5,124.9h13.7c0.7,0,1.1,0.4,1.1,1.1v3c0,0.7-0.4,1.1-1.1,1.1h-3.3c-1.1,0-1.1,0-1.1,1.1v29.6
		c0,1.1-0.4,1.1-1.1,1.1h-3.3c-0.4,0-1.1,0-1.1-1.1v-29.6c0-1.1,0-1.1-1.1-1.1h-3.3c-1.1,0-1.1-0.4-1.1-1.1v-3
		C210.4,125.3,210.4,124.9,211.5,124.9"/>
	<path class="st0" d="M231.5,160.4v-34.8c0-0.7,0.4-1.1,1.1-1.1h11.1c0.7,0,1.1,0.4,1.1,1.1v3c0,0.7-0.4,1.1-1.1,1.1h-5.9
		c-1.1,0-1.1,0-1.1,1.1v7.8c0,1.1,0,1.1,1.1,1.1h5.9c0.7,0,1.1,0.4,1.1,1.1v3c0,0.7-0.4,1.1-1.1,1.1h-5.9c-1.1,0-1.1,0-1.1,1.1v10
		c0,1.1,0,1.1,1.1,1.1h5.9c0.7,0,1.1,0.4,1.1,1.1v3c0,0.7-0.4,1.1-1.1,1.1h-11.1C231.9,161.5,231.5,161.5,231.5,160.4"/>
	<path class="st0" d="M264.4,146.4l2.6,14.1c0,0.7-0.4,1.1-0.7,1.1H263c-0.7,0-1.1,0-1.1-0.7l-2.6-13h-1.9c-1.1,0-1.1,0-1.1,1.1
		v11.5c0,1.1-0.4,1.1-1.1,1.1h-3.3c-0.4,0-1.1,0-1.1-1.1v-34.8c0-0.7,0.4-1.1,1.1-1.1h7c5.2,0,8.1,2.6,8.1,10.4v2.2
		C267.4,142.3,266.3,144.9,264.4,146.4 M256.7,142.3c0,1.1,0,1.1,1.1,1.1h1.5c2.6,0,2.6-2.6,2.6-5.2v-3c0-2.6,0-5.2-2.6-5.2h-1.5
		c-1.1,0-1.1,0-1.1,1.1V142.3z"/>
	<path class="st0" d="M282.2,161.5h-7c-0.7,0-1.1-0.4-1.1-1.1v-34.8c0-1.1,0.4-1.1,1.1-1.1h7c5.9,0,8.1,3.7,8.1,10
		c0,3.3-0.4,5.2-1.5,7c-0.4,0.4-0.4,0.4-0.4,0.7c0,0.4,0,0.4,0.4,0.7c1.1,2.2,1.5,4.4,1.5,8.1C290.3,159,287.4,161.5,282.2,161.5
		 M284.8,134.2c0-2.2-0.4-4.4-2.6-4.4h-1.5c-1.1,0-1.1,0-1.1,1.1v8.5c0,1.1,0,1.1,1.1,1.1h1.5c2.2,0,2.6-1.9,2.6-4.1V134.2z
		 M282.2,156.7c2.6,0,2.6-2.6,2.6-5.2V150c0-2.6,0-5.2-2.6-5.2h-1.5c-1.1,0-1.1,0-1.1,1.1v10c0,1.1,0,1.1,1.1,1.1h1.5V156.7z"/>
	<path class="st0" d="M308.5,124.9h3.3c0.7,0,1.1,0.4,1.1,1.1v25.2c0,7.8-2.6,10.4-8.1,10.4c-5.2,0-8.1-2.6-8.1-10.4V126
		c0-0.7,0.4-1.1,1.1-1.1h3.3c0.7,0,1.1,0.4,1.1,1.1v25.9c0,2.6,0,5.2,2.6,5.2s2.6-2.6,2.6-5.2V126
		C307.4,125.3,307.7,124.9,308.5,124.9"/>
	<path class="st0" d="M320.3,160.4v-34.8c0-0.7,0.4-1.1,1.1-1.1h3.3c0.7,0,1.1,0.4,1.1,1.1v34.8c0,1.1-0.4,1.1-1.1,1.1h-3.3
		C320.7,161.5,320.3,161.5,320.3,160.4"/>
	<path class="st0" d="M333.3,160.4v-34.8c0-0.7,0.4-1.1,1.1-1.1h3.3c0.7,0,1.1,0.4,1.1,1.1v29.2c0,1.1,0,1.1,1.1,1.1h5.9
		c0.7,0,1.1,0.4,1.1,1.1v3.3c0,0.7-0.4,1.1-1.1,1.1h-11.1C333.3,161.5,333.3,161.2,333.3,160.4"/>
	<path class="st0" d="M348.5,124.9h13.7c0.7,0,1.1,0.4,1.1,1.1v3c0,0.7-0.4,1.1-1.1,1.1h-3.3c-1.1,0-1.1,0-1.1,1.1v29.6
		c0,1.1-0.4,1.1-1.1,1.1h-3.3c-0.4,0-1.1,0-1.1-1.1v-29.6c0-1.1,0-1.1-1.1-1.1h-3.3c-1.1,0-1.1-0.4-1.1-1.1v-3
		C347.4,125.3,347.4,124.9,348.5,124.9"/>
	<path class="st0" d="M140.4,124.9c-0.7,0-1.1,0.4-1.1,1.1v34.8c0,1.1,0.4,1.1,1.1,1.1h3.3c0.4,0,1.1,0,1.1-1.1v-19.6l4.8,14.8
		c0.4,0.7,0.7,0.7,1.1,0.7h2.2c0.7,0,1.1,0,1.5-0.7l4.4-14.4v19.3c0,1.1,0.4,1.1,1.1,1.1h3.3c0.4,0,1.1,0,1.1-1.1V126
		c0-0.7-0.4-1.1-1.1-1.1H160c-0.7,0-0.7,0-1.1,0.4l-6.7,21.5l-6.7-21.5c0-0.4-0.4-0.7-1.1-0.7h-4.1v0.3H140.4z"/>
	<path class="st0" d="M370.3,125.3c-0.4-0.4-0.7-0.4-1.5-0.4c-0.4,0-1.1,0-1.5,0.4s-0.4,0.7-0.4,1.5c0,0.4,0.4,1.1,0.4,1.5
		c0.4,0.4,0.7,0.4,1.5,0.4c0.4,0,1.1,0,1.5-0.4c0.4-0.4,0.4-0.7,0.4-1.5C371.1,126,370.7,125.6,370.3,125.3 M370.3,127.9
		c-0.4,0.4-0.7,0.4-1.1,0.4s-0.7,0-1.1-0.4s-0.4-0.7-0.4-1.1s0-0.7,0.4-1.1s0.7-0.4,1.1-0.4s0.7,0,1.1,0.4s0.4,0.7,0.4,1.1
		C370.7,127.1,370.7,127.5,370.3,127.9"/>
	<path class="st0" d="M369.9,126.4c0-0.4-0.4-0.4-0.7-0.4h-0.7v1.9h0.4v-0.7h0.4l0.4,0.7h0.4l-0.4-0.7
		C369.6,126.7,369.9,126.7,369.9,126.4 M369.2,126.7L369.2,126.7l-0.4-0.7h0.4c0.4,0,0.4,0,0.4,0.4
		C369.6,126.4,369.6,126.7,369.2,126.7"/>
	<path class="st0" d="M90.4,176c18.5,0,33.3-14.8,33.3-32.9s-14.8-32.9-33.3-32.9S57.1,124.9,57.1,143S71.9,176,90.4,176
		 M90.4,113.8c16.7,0,30,13.3,30,29.2c0,16.3-13.3,29.2-30,29.2s-30-13.3-30-29.2C60.8,127.1,74.1,113.8,90.4,113.8"/>
	<path class="st0" d="M81.9,148.2c1.9-3.3,3.3-6.7,5.2-9.6l-2.2,15.9c0,0.4,0.4,1.1,0.7,1.1h2.2c0.7,0,1.1-0.4,1.5-0.7
		c1.5-1.9,5.6-7.8,10-13.7c0.4-0.4,0.7-1.1,1.1-1.5l-4.1,14.8c0,0.4,0.4,1.1,0.7,1.1h0.4h3.7h4.1c0.4,0,1.1-0.4,1.1-0.7
		c0-0.7-0.4-1.5-1.1-1.5h-1.9c-0.7,0-1.5-0.7-1.1-1.5l5.9-20.7c0.7-0.4,1.5-0.4,2.2-0.4c2.6-0.4,3-3.7,0-3.7
		c-3.3,0.4-5.6,3.7-6.7,5.2c-1.5,1.9-8.5,11.1-11.8,15.2l1.9-14.4c0-1.1-0.7-1.9-1.5-1.9h-10c-7.8,0-8.9,6.3-4.8,6.3
		c3,0,1.9-4.4,6.7-4.4h2.2c0.7,0,1.1,0.7,0.7,1.1c-1.5,3-3.7,7.8-5.6,11.1c-2.6,5.2-4.4,8.5-8.1,8.5c-1.1,0-1.5-0.7-3-0.7
		c-3.3,0-3.3,5.2,1.5,5.2C76.4,158.6,78.6,154.5,81.9,148.2"/>
</g>
</svg>
