<?xml version="1.0" encoding="utf-8"?>
<!-- Generator: Adobe Illustrator 27.8.1, SVG Export Plug-In . SVG Version: 6.00 Build 0)  -->
<svg version="1.1" id="Layer_1" xmlns="http://www.w3.org/2000/svg" xmlns:xlink="http://www.w3.org/1999/xlink" x="0px" y="0px"
	 viewBox="0 0 432 288" style="enable-background:new 0 0 432 288;" xml:space="preserve">
<style type="text/css">
	.st0{fill:#09304D;}
</style>
<path class="st0" d="M105.9,141.7l-20.7-32.3H68.4V172h16.9v-31.8L107,172h16.9v-62.6h-17.8v32.3H105.9z M262.1,143.6l-10.6-33.7
	h-17.3l19.3,62.6h16.9l20.2-62.6h-17.3L262.1,143.6z M337.2,130.6l-10.6-20.7h-17.3l19.3,38.5v24.1h17.8v-23.1l19.3-39.5h-16.9
	L337.2,130.6z M200.4,110.4h-37.6c-5.8,0-12.5,62.6-2.9,62.6h44.8C213.4,172.5,207.6,110.4,200.4,110.4 M191.2,155.2h-18.3
	c-2.4,0,0-27.5,1.4-27.5h15.4C191.2,127.7,194.1,155.2,191.2,155.2"/>
</svg>
