<?xml version="1.0" encoding="utf-8"?>
<!-- Generator: Adobe Illustrator 27.8.1, SVG Export Plug-In . SVG Version: 6.00 Build 0)  -->
<svg version="1.1" id="Layer_1" xmlns="http://www.w3.org/2000/svg" xmlns:xlink="http://www.w3.org/1999/xlink" x="0px" y="0px"
	 viewBox="0 0 432 288" style="enable-background:new 0 0 432 288;" xml:space="preserve">
<style type="text/css">
	.st0{fill:#F05F4D;}
	.st1{fill:#09304D;}
	.st2{fill-rule:evenodd;clip-rule:evenodd;fill:#09304D;}
</style>
<path class="st0" d="M220.7,162.9"/>
<path class="st0" d="M220.8,162.9"/>
<path class="st0" d="M220.8,169.7"/>
<path class="st0" d="M220.7,169.7"/>
<path class="st0" d="M220.7,94.5"/>
<path class="st0" d="M220.8,94.5"/>
<path class="st0" d="M220.8,87.7"/>
<path class="st0" d="M220.7,87.7"/>
<path class="st1" d="M180.1,146.1"/>
<path class="st1" d="M180,147.3"/>
<g>
	<g>
		<path class="st2" d="M49.8,132.3h3.4c2.6,0,5.1,1.2,5.1,4.9c0,2.3-1.4,5.8-5.9,5.8h-2.6V132.3z M43,160.2h6.5v-12.9h3.9l6.5,13.4
			l6.8-1.2L59,145.7c3-1.8,5.4-4.6,5.4-9.3c0-5.5-4.1-8.4-10.3-8.4H43V160.2z"/>
		<path class="st2" d="M82.8,128l-13.1,32.2h5.6l3.3-8.8H90l3,8.8h7.3L88.2,128H82.8z M80.4,147.4c1.5-4.2,3-8.1,4.4-13.1h0.1
			c1.5,5,2.9,8.9,4.3,13.1H80.4z"/>
		<path class="st1" d="M133.4,128h-5.2v22.9h-0.1c-6.1-8.3-12.2-15.6-18.3-22.9h-4.7v32.2h5.2v-23.1h0.1
			c6.1,8.3,12.2,15.7,18.4,23.1h4.7L133.4,128L133.4,128z"/>
		<path class="st1" d="M161.9,145.5v9.9c-1.4,0.6-2.8,0.8-4.6,0.8c-5.6,0-11-4.5-11-12.1c0-7.3,4.7-11.9,11.6-11.9
			c2.5,0,5.2,0.8,6.9,1.7l2.1-3.8c-2.1-1.4-5.7-2.5-9.2-2.5c-11.4,0-18.3,7.7-18.3,16.5c0,9.5,7,16.8,18.2,16.8
			c3.7,0,7.3-0.8,10.7-2v-13.3L161.9,145.5L161.9,145.5z"/>
		<polygon class="st1" points="193.7,128 176.4,128 176.4,160.2 195.7,160.2 195.7,155.9 182.9,155.9 182.9,145.5 193.5,145.5 
			193.5,141.1 182.9,141.1 182.9,132.3 193.7,132.3 		"/>
		<path class="st1" d="M211.8,144.8c0-11.2,3-14,8.2-14c6,0,6.3,4.9,6.3,9.7v11.7c0,5.7,0.3,5.6-5.1,6.3v1.7h15.9v-1.7
			c-5.4-0.8-5.1-0.6-5.1-6.3v-7.4c0-10.7,2.7-14,8.2-14c6,0,6.3,4.9,6.3,9.7v11.7c0,5.7,0.3,5.6-5.1,6.3v1.7h15.9v-1.7
			c-5.4-0.8-5.1-0.6-5.1-6.3v-13.3c0-6.6-1.9-11.4-9-11.4c-5.1,0-9,2.4-11.6,5.6c-1.5-3.1-2.8-5.6-8.4-5.6c-5.1,0-9.4,2.4-11.4,5.6
			h-0.1v-5.5l-0.1-0.1c-2.9,1.8-7.2,2.6-10.7,2.7v1.7c3.1,0,5.1-0.3,5.1,2.7v17.7c0,5.7,0.3,5.6-5.1,6.3v1.7h15.9v-1.7
			c-5.4-0.8-5.1-0.6-5.1-6.3v-7.5H211.8z"/>
		<path class="st2" d="M277.9,146.4c0,8.4-4,10.6-7.3,10.6c-2.9,0-4.9-2.4-4.9-5.4c0-6.5,6.6-8,12.2-10.1L277.9,146.4L277.9,146.4z
			 M288.5,158.1l-0.4-1.8c-4.3,1.7-4.5-1.1-4.5-4.3v-14.2c0-7-3.2-10.3-10.7-10.3c-2.8,0-5,0.4-7.9,1.6c-0.8,0.3-1.5,0.8-1.9,2
			l-1,3.4c-0.1,0.4,0.1,0.7,0.5,0.8l2.2,0.5c0.4,0.1,0.6,0.1,0.8-0.3c1.5-2.3,2.9-5.8,6.8-5.8s5.4,3.7,5.4,9.2l-6.9,2.7
			c-7.5,2.9-11,4.8-11,10.9c0,4.7,3.5,8.4,7.7,8.4c2,0,3.8-0.8,5.2-1.7l5-3.3c0,1.9,0.5,3.9,1.5,5L288.5,158.1z"/>
		<path class="st1" d="M292.6,159.2c2.4,1.1,5.1,1.7,8.6,1.7c5.5,0,11.5-2.9,11.5-9.6c0-2.9-0.8-5.3-6.8-9.5c-4.7-3.3-7.9-5-7.9-8
			c0-2.5,2.2-4.1,4.9-4.1c3.6,0,5.6,3.1,5.7,5.2h1.7v-6.4c-2.9-1-5.5-1.1-7.5-1.1c-5.2,0-10.2,3-10.2,8.4c0,4.2,2.1,5.2,7.3,9
			c3.8,2.7,7.1,4.2,7.1,8.4c0,2.7-2.2,5.5-5.9,5.5c-3.7,0-7-2.2-6.9-6.6h-1.7L292.6,159.2L292.6,159.2z"/>
	</g>
	<g>
		<path class="st1" d="M336.3,127.6h-9.7v-14.4h-1.7c-1.6,1.2-2.9,2.4-4,3.6v10.8h-5.1v2.9h5.1v20.3c0,8.7,3.6,10.1,8,10.1l7.4-2.9
			l-0.4-1.7c-1.5,0.6-3.2,0.8-4.9,0.8c-4.2,0-4.3-5.1-4.3-7.6v-19h7.1l2.6-1.3v-1.6H336.3z"/>
		<path class="st2" d="M364.1,142.6v-1.8c0-8-4.7-13.3-11.9-13.3c-10.8,0-14.9,9.1-14.9,16.6c0,4.8,2.4,9.8,4.3,12
			c5.2,5.7,10.5,4.8,12.1,4.8h2l8.4-4l-1-2c-1.5,0.8-3.6,2.3-7.1,2.3c-9.1,0-12.5-7.5-12.5-14.7L364.1,142.6L364.1,142.6z
			 M343.5,140.3c0-8,4.1-10.6,8.4-10.6c3.6,0,6.7,2.8,6.7,6.9c0,2.8-1.8,3.7-3.2,3.7L343.5,140.3L343.5,140.3z"/>
		<path class="st1" d="M385.6,134.7c0.3,0.2,0.6,0.3,1,0.1l1.9-1.2c0.4-0.3,0.7-0.5,0.5-0.9l-1.8-3.3c-1-1.8-1.8-1.9-2.4-1.9
			c-1.1,0-2,0.8-3.5,2.4l-3.3,3.4v-5.7l-0.1-0.1c-2.9,1.8-7.2,2.5-10.6,2.7v1.7c3.1,0,5-0.3,5,2.7v17.7c0,5.7,0.3,5.5-5.1,6.3v1.7
			h17.1v-1.7c-3.4-0.3-5.7-0.4-6-1.8c-0.3-1.5-0.3-2.4-0.3-4.5v-9.9c0-4.6,0.4-8.9,3.1-8.9c0.9,0,1.7-0.1,2.4,0.3L385.6,134.7z"/>
	</g>
</g>
</svg>
