<?xml version="1.0" encoding="utf-8"?>
<!-- Generator: Adobe Illustrator 27.8.1, SVG Export Plug-In . SVG Version: 6.00 Build 0)  -->
<svg version="1.1" id="Layer_1" xmlns="http://www.w3.org/2000/svg" xmlns:xlink="http://www.w3.org/1999/xlink" x="0px" y="0px"
	 viewBox="0 0 432 288" style="enable-background:new 0 0 432 288;" xml:space="preserve">
<style type="text/css">
	.st0{fill:#09304D;}
</style>
<path class="st0" d="M376.9,134.3c0-2.1-1.6-3.4-3.4-3.4s-3.4,1.2-3.4,3.4c0,2.1,1.6,3.4,3.4,3.4S376.9,136.4,376.9,134.3 M373,134
	v-0.9h0.5c0.3,0,0.7,0,0.7,0.4s-0.2,0.5-0.6,0.5H373z M373,134.6h0.4l0.8,1.5h0.9l-0.9-1.6c0.5,0,0.9-0.3,0.9-0.9
	c0-0.8-0.5-1.1-1.5-1.1h-1.3v3.6h0.8L373,134.6L373,134.6z M375.9,134.3c0,1.5-1.1,2.6-2.4,2.6l0,0c-1.3,0-2.4-1-2.4-2.6
	c0-1.5,1.1-2.6,2.4-2.6S375.9,132.8,375.9,134.3"/>
<path class="st0" d="M92.5,129.3c-2.4-1.1-5.6-2.1-10.1-2.1c-4.8,0-8.8,0.7-8.8,4.4c0,6.5,17.7,4.1,17.7,17.9
	c0,12.6-11.7,15.9-22.3,15.9c-4.7,0-10.2-1.1-14.1-2.4l2.9-9.3c2.4,1.6,7.3,2.6,11.3,2.6c3.8,0,9.8-0.7,9.8-5.4
	c0-7.3-17.7-4.6-17.7-17.5c0-11.8,10.3-15.3,20.4-15.3c5.6,0,10.9,0.6,14,2L92.5,129.3z"/>
<path class="st0" d="M121.3,164.1c-2.4,0.8-5.5,1.3-10.1,1.3c-10,0-16.1-7-16.1-15.6c0-11.2,8.9-20.1,22-20.1
	c2.9,0,7.3,0.9,10.7,2.3l-2.6,8.2c-2.4-1.1-5-1.8-7.6-1.8c-6.1,0-10.4,3.9-10.4,11c0,4.1,3.1,7.4,8.1,7.4c2.9,0,5-0.5,7.6-1.5
	L121.3,164.1z"/>
<path class="st0" d="M167.6,145c0-8.6-6.2-15.3-17.7-15.3c-13.4,0-22,8.1-22,20.1c0,8.6,5.1,15.6,17.7,15.6
	C158.4,165.4,167.6,159.2,167.6,145 M155.4,144.9c0,7.7-3.5,12.3-9,12.3c-4,0.1-6.4-3-6.4-7.6c0-5.4,3.5-11.6,9.2-11.6
	C153.8,138,155.4,141.3,155.4,144.9"/>
<path class="st0" d="M171.6,130.5h6.7l1.6-7.3l12.4-3.3l-2.4,10.7h8.1l-1.4,8.3H188l-2,9.5c-0.5,2.6-1,4.3-1,5.9
	c0,2.3,1.5,3.8,3.9,3.8c1.2,0,2.6-0.5,3.8-1l-1.3,7.8c-2.5,0.4-5,0.7-7.3,0.7c-6,0-10.8-2.9-10.8-10.1c0-1.7,0.3-3.4,1-7l2-9.6H170
	L171.6,130.5z"/>
<path class="st0" d="M195.4,155.6c3,1.3,6.3,2,9.6,2c1.9,0,6.6-0.2,6.6-3c0-4.8-14.1-2.4-14.1-13.6c0-8,9.3-11.2,17.2-11.2
	c2.9,0,7.1,0.7,11.3,2l-2.5,7.7c-3-1.2-5.9-1.9-9.4-1.9c-2.6,0-5.5,0.6-5.5,2.9c0,3.8,14.7,3.5,14.7,12.1c0,8.4-7.1,12.6-16,12.8
	c-5.2,0.1-10.7-0.7-14.3-1.8L195.4,155.6z"/>
<path class="st0" d="M230.5,139.4c0.6-2.9,1.1-5.8,1.4-8.9h10.5l-1.3,6.2l0.1-0.1c2.9-4.3,7.3-6.9,12.1-6.9c4,0,8.1,2.3,9,6.9
	c2.9-4.3,7.3-6.9,12.2-6.9c5.2,0,10.6,2.6,10.6,10.1c0,2.2-0.3,5.2-0.8,7.7l-3.5,17.1H269l3.4-16.6c0.4-1.8,0.7-3.6,0.7-5
	c0-2.2-1-3.5-3.8-3.5c-4.9,0-6.2,5.7-7,9.4l-3.3,15.7h-12l3.4-16.6c0.4-1.8,0.7-3.6,0.7-5c0-2.2-1-3.5-3.8-3.5c-4.9,0-6.2,5.7-7,9.4
	l-3.3,15.7h-11.8L230.5,139.4z"/>
<path class="st0" d="M310,164.6h9.6c1.3-10.3,4.3-17.9,4.3-23.3c0-8.4-6.7-11.6-14.8-11.6c-5.3,0-9,0.8-12.5,2l-1.2,8.6
	c3.9-2,6.8-2.7,11.1-2.7c3.9,0,6.3,2,6.3,4.4c0,0.5,0,0.9-0.1,1.4c-1.6-0.1-4-0.3-6.4-0.3c-10.4,0-18.8,4.1-18.8,12.5
	c0,6.6,4.1,9.9,11.4,9.9c4.6,0,9-1.6,11.5-5.6v-0.1l0.1,0.1L310,164.6z M298.7,154.2c0-3,4.1-5,9.8-4.8c0.7,0,2.2,0,3.1,0.2
	c-0.9,4.6-3.9,8.1-8.9,8.1C300.2,157.6,298.7,155.7,298.7,154.2"/>
<path class="st0" d="M330.3,139.4c0.6-2.9,1.1-5.8,1.4-8.9h10.9l-0.9,5.6h0.1c3.4-3.8,6.9-6.4,13.2-6.4c6.9,0,10.6,5.1,10.6,11.8
	c0,2.3-0.2,3.6-0.9,7.2l-3.1,15.9h-12.2l3.3-16c0.3-1.7,0.8-3.4,0.8-5.2c0-2-1.3-4.1-4.6-3.9c-5,0-7.9,4.3-8.8,9.4l-3.3,15.7H325
	L330.3,139.4z"/>
</svg>
