<?xml version="1.0" encoding="utf-8"?>
<!-- Generator: Adobe Illustrator 27.8.1, SVG Export Plug-In . SVG Version: 6.00 Build 0)  -->
<svg version="1.1" id="Layer_1" xmlns="http://www.w3.org/2000/svg" xmlns:xlink="http://www.w3.org/1999/xlink" x="0px" y="0px"
	 viewBox="0 0 432 288" style="enable-background:new 0 0 432 288;" xml:space="preserve">
<style type="text/css">
	.st0{fill:#F05F4D;}
	.st1{fill:#09304D;}
</style>
<path class="st0" d="M220.7,162.9"/>
<path class="st0" d="M220.8,162.9"/>
<path class="st0" d="M220.8,169.7"/>
<path class="st0" d="M220.7,169.7"/>
<path class="st0" d="M220.7,94.5"/>
<path class="st0" d="M220.8,94.5"/>
<path class="st0" d="M220.8,87.7"/>
<path class="st0" d="M220.7,87.7"/>
<path class="st1" d="M180.1,146.1"/>
<path class="st1" d="M180,147.3"/>
<g>
	<path class="st1" d="M215.1,136.3c-2.2-1.6-5.2-2.9-9.2-3.8l-8-1.9c-5.3-1.3-8.7-2.3-10.1-3.1c-2.1-1.2-3.1-3.1-3.1-5.7
		c0-2.4,0.9-4.5,2.7-6.4c1.8-1.8,4.9-2.7,9.2-2.7c5.3,0,9.1,1.4,11.2,4.3c1.2,1.6,1.9,3.9,2.3,6.9l0.1,0.6h8.8v-0.7
		c0-6.7-2.2-11.7-6.6-14.8c-4.3-3-9.6-4.6-15.7-4.6c-6.7,0-11.9,1.8-15.6,5.3c-3.7,3.5-5.6,8.1-5.6,13.5c0,5.1,1.9,9,5.7,11.6
		c2.2,1.5,5.8,2.8,10.9,4l7.7,1.8c4.1,1,7.1,2.1,9,3.4c1.7,1.2,2.6,3.3,2.6,6.2c0,4-2.1,6.6-6.4,8.2c-2.3,0.8-4.8,1.2-7.6,1.2
		c-6.1,0-10.4-1.8-12.8-5.5c-1.3-2-2-4.6-2.2-7.8v-0.7h-8.9v0.7c-0.1,6.5,2,11.8,6.2,15.6c4.1,3.8,9.9,5.8,17.2,5.8
		c6.2,0,11.7-1.4,16.4-4.3c4.8-2.9,7.3-7.8,7.3-14.6C220.8,143.4,218.9,139.2,215.1,136.3"/>
	<path class="st1" d="M259.6,143.6c-1.9-1.2-5.5-2.5-10.8-3.7l-4.8-1.2c-2-0.5-3.6-1-4.6-1.7c-1.7-1-2.5-2.2-2.5-3.8
		c0-1.5,0.6-2.6,1.8-3.5c1.3-0.9,3.3-1.4,5.9-1.4c3.9,0,6.7,0.9,8.2,2.5c0.9,1.2,1.5,2.6,1.6,4l0.1,0.7h8.2v-0.7
		c0.1-2.9-0.9-5.7-2.8-8.2c-3-4-8-6-14.7-6c-5.1,0-9.3,1.3-12.4,3.9c-3.1,2.6-4.7,6.1-4.7,10.4c0,3.7,1.7,6.6,5,8.7
		c1.8,1.2,4.6,2.2,8.4,3.1l5.8,1.4c3,0.8,5.1,1.4,6.1,2c1.4,0.8,2.1,2,2.1,3.6c0,2.2-0.9,3.7-2.7,4.7c-1.9,1.1-4.2,1.6-6.8,1.6
		c-4.3,0-7.4-1.1-9-3.2c-0.9-1.2-1.5-2.9-1.7-5.1l-0.1-0.7h-8.3v0.8c0.2,4.4,1.7,8.2,4.5,11.2s7.6,4.6,14.2,4.6
		c6.1,0,10.8-1.5,13.9-4.4s4.6-6.4,4.6-10.4C264.2,148.7,262.6,145.6,259.6,143.6"/>
</g>
<path class="st1" d="M160.4,80.1h117v117h-117V80.1z M155.3,202.3h127.2V75H155.3V202.3z"/>
<g>
	<path class="st1" d="M245.8,102.3c1.4,0,2.5-0.4,3.3-1.1s1.2-1.7,1.2-2.9c0-0.7-0.2-1.4-0.6-1.9c-0.3-0.4-0.8-0.8-1.3-1
		c0.3-0.2,0.6-0.4,0.8-0.6c0.4-0.5,0.6-1.1,0.6-1.9c0-1.1-0.4-1.9-1-2.5c-0.7-0.6-1.7-0.8-2.9-0.8c-1.6,0-2.7,0.6-3.3,1.7
		c-0.4,0.6-0.6,1.4-0.6,2.3v0.1h1.7v-0.1c0-0.7,0.1-1.2,0.3-1.5c0.4-0.6,1-1,2-1c0.5,0,1,0.2,1.4,0.5s0.6,0.7,0.6,1.3
		c0,0.8-0.3,1.3-0.9,1.6c-0.3,0.2-0.8,0.3-1.4,0.3c-0.1,0-0.2,0-0.3,0s-0.2,0-0.4,0h-0.1v1.6h0.1c0.1,0,0.2,0,0.3,0s0.2,0,0.3,0
		c0.9,0,1.6,0.2,2.1,0.5s0.7,0.9,0.7,1.7c0,0.6-0.2,1.2-0.7,1.6s-1.1,0.6-1.8,0.6c-1,0-1.7-0.3-2-0.9c-0.2-0.3-0.4-0.9-0.4-1.7v-0.1
		h-1.8v0.1c0,1.1,0.3,2.1,1,2.9C243.3,101.9,244.4,102.3,245.8,102.3"/>
	<path class="st1" d="M258,95.9c0,1.9-0.2,3.2-0.7,3.8c-0.4,0.7-1,1-1.8,1c-0.9,0-1.6-0.5-2-1.6c-0.3-0.7-0.4-1.7-0.4-2.9
		c0-1.6,0.2-2.8,0.6-3.7c0.4-0.8,1-1.2,1.9-1.2c0.9,0,1.5,0.4,1.9,1.3C257.9,93.5,258,94.6,258,95.9 M255.6,89.8
		c-1.8,0-3,0.9-3.7,2.8c-0.4,1-0.5,2.2-0.5,3.6c0,1.8,0.3,3.2,0.9,4.3c0.7,1.3,1.8,1.9,3.3,1.9c1.6,0,2.8-0.8,3.6-2.4
		c0.5-1.1,0.7-2.5,0.7-4.1c0-1.7-0.3-3.1-0.8-4.1C258.3,90.4,257.2,89.8,255.6,89.8"/>
</g>
<path class="st1" d="M262.5,97.5l3.6-5v5H262.5z M267.8,89.7h-1.4l-5.5,7.7l0,0V99h5.3v2.9h1.7V99h1.8v-1.5h-1.8v-7.8H267.8z"/>
<g>
	<path class="st1" d="M190.9,182.4c0,1.1-0.2,1.9-0.6,2.6c-0.4,0.6-1,1-1.8,1c-1.1,0-1.8-0.5-2.2-1.5c-0.2-0.5-0.3-1.2-0.3-2.1
		c0-1.2,0.3-2,0.8-2.5s1.1-0.8,1.8-0.8c0.8,0,1.4,0.3,1.8,0.9C190.7,180.7,190.9,181.5,190.9,182.4 M188.7,177.6
		c-0.6,0-1.1,0.1-1.6,0.4c-0.4,0.2-0.8,0.5-1.1,0.9v-4.5h-1.7v12.9h1.6v-1c0.3,0.4,0.5,0.6,0.8,0.8c0.5,0.3,1.1,0.5,1.8,0.5
		c1.3,0,2.3-0.5,3-1.5s1.1-2.2,1.1-3.7c0-1.6-0.4-2.8-1.1-3.6C190.8,178,189.9,177.6,188.7,177.6"/>
	<path class="st1" d="M198.3,177.6c-0.1,0-0.1,0-0.2,0c-0.6,0-1.2,0.2-1.7,0.7c-0.3,0.3-0.6,0.6-0.8,0.9v-1.3H194v9.4h1.7v-5.4
		c0-0.6,0.2-1.2,0.6-1.7c0.4-0.5,1-0.7,1.7-0.7c0.1,0,0.2,0,0.2,0c0.1,0,0.2,0,0.2,0h0.1v-1.8L198.3,177.6
		C198.5,177.6,198.3,177.6,198.3,177.6"/>
	<path class="st1" d="M200.8,181.7c0-0.7,0.3-1.3,0.7-1.8c0.5-0.5,1-0.7,1.7-0.7c1,0,1.6,0.4,2,1.1c0.2,0.4,0.4,0.9,0.4,1.5h-4.8
		V181.7z M206.7,179.3c-0.3-0.5-0.8-0.9-1.4-1.2c-0.6-0.3-1.3-0.5-1.9-0.5c-1.3,0-2.4,0.5-3.2,1.4s-1.2,2.2-1.2,3.7s0.4,2.7,1.2,3.6
		c0.8,0.9,1.8,1.3,3,1.3c0.5,0,0.9,0,1.3-0.1c0.7-0.2,1.3-0.5,1.8-1c0.3-0.3,0.5-0.6,0.8-1c0.2-0.4,0.4-0.8,0.4-1.2v-0.1h-1.7v0.1
		c-0.1,0.4-0.3,0.8-0.6,1.1c-0.5,0.5-1.1,0.8-1.9,0.8c-0.8,0-1.5-0.3-1.8-0.8c-0.4-0.5-0.6-1.3-0.6-2.1h6.7V183c0-0.9,0-1.6-0.1-2.1
		C207.2,180.4,207,179.8,206.7,179.3"/>
</g>
<polygon class="st1" points="216.9,184.8 215.2,177.8 213.3,177.8 211.6,184.9 209.8,177.8 208,177.8 210.7,187.3 212.4,187.3 
	214.2,180.3 216,187.3 217.8,187.3 220.5,177.8 218.8,177.8 "/>
<g>
	<path class="st1" d="M224.1,175.2h-1.7v2.6h-0.9l-0.4,1.4h1.3v6c0,0.6,0.1,1.1,0.4,1.5c0.3,0.4,0.8,0.6,1.5,0.6c0.2,0,0.4,0,0.6,0
		c0.2,0,0.4-0.1,0.6-0.1h0.1v-1.4h-0.1c-0.1,0-0.2,0-0.3,0c-0.4,0-0.7,0-0.8-0.1c-0.2-0.1-0.3-0.3-0.3-0.6v-6h1.5v-1.4h-1.5
		L224.1,175.2L224.1,175.2z"/>
	<path class="st1" d="M228.4,181.7c0-0.7,0.3-1.3,0.7-1.8c0.5-0.5,1-0.7,1.7-0.7c1,0,1.6,0.4,2,1.1c0.2,0.4,0.4,0.9,0.4,1.5h-4.8
		V181.7z M234.3,179.3c-0.3-0.5-0.8-0.9-1.4-1.2c-0.6-0.3-1.3-0.5-1.9-0.5c-1.3,0-2.4,0.5-3.2,1.4s-1.2,2.2-1.2,3.7s0.4,2.7,1.2,3.6
		c0.8,0.9,1.8,1.3,3,1.3c0.5,0,0.9,0,1.3-0.1c0.7-0.2,1.3-0.5,1.8-1c0.3-0.3,0.5-0.6,0.8-1c0.2-0.4,0.4-0.8,0.4-1.2v-0.1h-1.7v0.1
		c-0.1,0.4-0.3,0.8-0.6,1.1c-0.5,0.5-1.1,0.8-1.9,0.8c-0.8,0-1.5-0.3-1.8-0.8c-0.4-0.5-0.6-1.3-0.6-2.1h6.7V183c0-0.9,0-1.6-0.1-2.1
		C234.8,180.4,234.6,179.8,234.3,179.3"/>
	<path class="st1" d="M242.8,183.9c-0.1,0.7-0.4,1.2-0.8,1.6c-0.4,0.4-0.9,0.6-1.5,0.6c-0.8,0-1.4-0.3-1.8-0.9
		c-0.4-0.6-0.6-1.4-0.6-2.3c0-0.9,0.1-1.7,0.4-2.3c0.4-0.9,1.1-1.4,2.1-1.4c0.7,0,1.2,0.2,1.5,0.5c0.3,0.4,0.5,0.8,0.6,1.4v0.1h1.7
		v-0.1c-0.1-1.3-0.5-2.2-1.2-2.7s-1.5-0.8-2.6-0.8c-1.2,0-2.3,0.5-3.1,1.4s-1.2,2.2-1.2,3.9c0,1.3,0.4,2.5,1.1,3.4
		c0.7,0.9,1.7,1.4,3,1.4c1.1,0,2-0.3,2.7-0.9c0.7-0.6,1.2-1.5,1.3-2.7V184L242.8,183.9L242.8,183.9z"/>
	<path class="st1" d="M253.1,179.1c-0.5-1-1.4-1.5-2.8-1.5c-0.8,0-1.4,0.2-1.9,0.5c-0.3,0.2-0.6,0.4-0.9,0.8v-4.6h-1.7v12.9h1.7v-5
		c0-1.2,0.3-2,0.8-2.5c0.5-0.4,1.1-0.6,1.7-0.6c0.8,0,1.2,0.2,1.5,0.7c0.2,0.3,0.2,0.8,0.2,1.5v5.9h1.8v-6
		C253.5,180.3,253.4,179.6,253.1,179.1"/>
</g>
</svg>
