<?xml version="1.0" encoding="utf-8"?>
<!-- Generator: Adobe Illustrator 27.8.1, SVG Export Plug-In . SVG Version: 6.00 Build 0)  -->
<svg version="1.1" id="Layer_1" xmlns="http://www.w3.org/2000/svg" xmlns:xlink="http://www.w3.org/1999/xlink" x="0px" y="0px"
	 viewBox="0 0 432 288" style="enable-background:new 0 0 432 288;" xml:space="preserve">
<style type="text/css">
	.st0{fill:#F05F4D;}
	.st1{fill:#09304D;}
</style>
<path class="st0" d="M220.7,162.9"/>
<path class="st0" d="M220.8,162.9"/>
<path class="st0" d="M220.8,169.7"/>
<path class="st0" d="M220.7,169.7"/>
<path class="st0" d="M220.7,94.5"/>
<path class="st0" d="M220.8,94.5"/>
<path class="st0" d="M220.8,87.7"/>
<path class="st0" d="M220.7,87.7"/>
<path class="st1" d="M180.1,146.1"/>
<path class="st1" d="M180,147.3"/>
<g>
	<g>
		<path class="st1" d="M215,73.3c-95.4,0-173.1,31.1-173.1,69.4c0,38.2,77.6,69.4,173.1,69.4c95.4,0,173.1-31.1,173.1-69.4
			S310.4,73.3,215,73.3z M215,205.6c-86.8,0-157.1-28.2-157.1-63s70.3-63,157.1-63s157.1,28.2,157.1,63S301.8,205.6,215,205.6z"/>
	</g>
	<g>
		<path class="st1" d="M125,151.1c0-3.4-2.8-4.6-6.6-6.3l-4-1.8c-3.4-1.7-6.3-3.6-6.3-8.6c0-8.1,6.3-11,12.2-11
			c2.1,0,3.9,0.2,5.9,0.9c2.2,0.6,4.1,2.4,4.3,4.8c0.3,1.6,0.4,3.7,0.4,3.7c0,1.3-0.9,1.7-1.4,1.7h-3.1c-1.3,0-1.6-1.2-1.6-1.6v-0.4
			c0-1.2,0-2.3-0.7-2.8c-0.9-0.6-1.9-0.7-3.6-0.7c-1.1,0-3,0.2-4.3,1.4c-0.7,0.7-1.1,1.7-1.1,2.9c0,2.9,3,4.1,6.4,5.6
			c1.6,0.7,3.3,1.4,4.9,2.4c4,2.4,5.8,5.2,5.8,9.1c0,6.8-5,11.4-12.5,11.4c-4.1,0-9.1-0.6-10.9-3.7c-1.6-2.7-1-7.2-1-7.2
			c0-1.2,1-1.3,1.8-1.3c0,0,2.6,0,2.7,0c0.5,0,1.8-0.1,1.8,1.3v0.7c0,1.8,0,2.5,0.5,3.2c0.6,0.9,2.8,1.4,5.2,1.4
			C123.1,156.2,125,154.3,125,151.1"/>
		<path class="st1" d="M220.2,131.7v-1.9c0-0.6,1.1-1,1.4-1h8c0.9,0,1.6,0.4,1.6,1v1.9c0,0.6-0.5,1-0.9,1.2
			c-0.2,0.1-0.7,0.2-1.1,0.3c-0.4,0.1-0.7,0.1-0.7,0.9v0.6v25.9c0,0.3-0.3,0.7-0.9,0.7h-3.8c-0.5,0-1-0.5-1.1-0.7
			c0,0-10.2-18.9-11.2-21.4c0,0-0.1-0.2-0.3-0.3s-0.4,0-0.4,0.3c-0.1,0.6,0,5.1,0,5.1v11.9v0.4c0,0.5,0.6,0.8,1.3,1s1.4,0.5,1.5,0.8
			c0.1,0.8,0,1.9,0,2.1c-0.2,0.4-0.8,0.7-1.6,0.7h-8.2c-0.6,0-1.1-0.4-1.3-0.6c-0.1-0.3-0.1-1.3,0-2.2c0-0.3,0.7-0.6,1.4-0.8
			s1.3-0.5,1.3-1V156v-21v-0.8c0-0.5-0.7-0.6-0.7-0.6l-1.3-0.3c-0.6-0.1-0.7-0.6-0.7-1.1V130c0-0.6,0.7-1,1.1-1h7.1
			c0.5,0,1.2,0.2,1.6,0.9c0,0,9.5,19.2,10,20.4c0.4,0.9,0.7,0.4,0.7-0.1c0-0.1,0-4.3-0.1-8.4c0-4.1-0.1-6.8-0.1-7.5s-0.9-1-0.9-1
			l-1-0.2C220.4,132.7,220.2,132.3,220.2,131.7"/>
		<path class="st1" d="M239,131.7v-1.9c0-0.7,0.7-1,1.4-1h9.4c0.5,0,1.5,0.4,1.5,1v1.9c0,0.6-0.4,0.9-0.7,1.1
			c-0.2,0.1-0.7,0.2-1.2,0.3s-1,0.1-1,0.9v1v18v2c0,0.9,0.9,1.1,1.5,1.1h4c0,0,1.6,0,2.3-0.2c0.5-0.2,2-2.1,2.1-2.2
			c0.2-0.4,1.1-0.5,1.7-0.3c0.4,0.1,0.6,0.2,1.3,0.6c0.3,0.2,0.8,0.6,0.6,1.4c-0.1,0.6-1,4.9-1,4.9c-0.2,0.8-0.8,1.1-1.4,1.1h-19.3
			c-0.6,0-1-0.6-1-1v-1.6c0-0.8,0.6-0.9,0.9-1c0.1,0,0.8-0.1,1.2-0.2c0.3,0,0.6-0.4,0.6-0.6v-0.7v-20.6v-1.5c0-0.7-1.1-1-1.1-1
			l-0.9-0.1C239.4,132.9,239,132.3,239,131.7"/>
		<path class="st1" d="M269.1,132.9c-0.7-0.3-1.4-0.6-1.4-1.3V130c0-0.7,0.4-1.1,1.4-1.1h18.8c1.4,0,1.8,1,1.8,1.6v6
			c0,0.6-0.8,0.6-1,0.6h-2.1c-0.7,0-1.2-0.2-1.5-0.6c-0.1-0.1-0.3-0.8-0.5-1.4c-0.2-0.6-0.4-1.1-1-1.1h-1.4h-3.1h-1.3
			c-0.6,0-0.9,0.8-0.9,1.3v5.6c0,0.7,0.2,1.1,0.9,1.1h1.3h7.2c0.3,0,1.2,0.2,1.3,0.9c0,0,0.1,0.4,0.1,1.5s-0.1,1.7-0.1,1.7
			c-0.1,0.7-1.1,0.8-1.3,0.8h-7.8c0,0-1.6-0.1-1.6,0.8v1.9v5.2c0,0,0.1,1.3,1.1,1.3h2.9h1.9c0,0,1,0.1,1.4-0.4s0.7-1.5,0.7-1.7
			c0.1-0.4,0.5-1.4,1.3-1.4h2.4c0.3,0,1.2,0.2,1.2,1.1v5.7c0,0.3,0.2,1.7-1.8,1.7h-18.9c-1.5,0-1.4-0.7-1.4-0.9v-1.6
			c0-0.6,0.5-0.8,0.9-0.9c0.3-0.1,1.8-0.1,1.8-0.8c0-0.3,0-1.3,0-1.3v-20.2V134C270.4,133.4,269.8,133.2,269.1,132.9"/>
		<path class="st1" d="M309.2,142.8c0.7,0,5.8-12.9,5.8-12.9c0.4-1,1.1-1,1.4-1h4.3c0.7,0,1.8,0.3,1.6,1.7c-0.1,0.6-0.3,1.8-0.3,1.8
			c-0.4,1.7-1.9,1.1-2.3,1.5c-0.3,0.3-7.4,14.4-7.4,14.4v7.6v0.8c0,0.5,0.7,0.7,1.4,0.9c0.7,0.2,1.7,0.5,1.8,0.9
			c0.1,0.4,0,2.2,0,2.2c0,0.3-0.6,0.7-1.2,0.7h-10.5c-0.6,0-1.2-0.4-1.2-0.7c0,0-0.1-1.8,0-2.2s0.8-0.7,1.6-0.9
			c0.8-0.2,1.6-0.6,1.6-0.9v-0.8v-7.5c0,0-7.3-14.2-7.6-14.5c-0.2-0.3-1.6,0.2-2.3-1.4c-0.1-0.4-0.3-1.3-0.4-1.8
			c0-0.4,0-1.7,1.4-1.7h5c0.3,0,0.9,0.1,1.4,1.1C303.5,129.9,308.6,142.8,309.2,142.8"/>
		<path class="st1" d="M185,147.3c-0.3,0.2-6.8,0.1-7-0.1c-0.3-0.2,2.8-9.7,3-10c0.2-0.4,1-0.4,1.2,0
			C182.2,137.5,185.2,147.1,185,147.3 M196.1,158.4c-0.2-0.4-0.6-0.6-1.2-0.9c-0.6-0.2-1.1-0.4-1.3-1c-0.2-0.5-8.4-26.8-8.4-26.8
			c-0.2-0.7-0.9-0.9-1.5-0.9h-4.4c-0.7,0-1.4,0.4-1.6,0.9c0,0-8.4,26.2-8.6,26.8c-0.2,0.6-0.7,0.8-1.2,1s-0.9,0.5-1,0.8
			c-0.2,0.3-0.3,1.9-0.2,2.2s0.4,0.6,1,0.6h8.2c0.9,0,1.1-0.2,1.3-0.6c0.2-0.4,0.3-1.7,0.1-2.1c-0.1-0.4-0.5-0.5-1-0.8
			s-1-0.5-0.9-1.1c0.2-0.7,0.7-2.5,0.7-2.5s0.1-0.4,0.3-0.6c0.2-0.2,0.9-0.4,1.5-0.4h6.7c0.4,0,1.1,0.2,1.3,0.4s0.3,0.7,0.3,0.7
			s0.4,1.7,0.7,2.3c0.2,0.6-0.4,0.8-0.8,1.1c-0.5,0.2-0.8,0.5-0.9,0.8c-0.2,0.3,0,1.6,0.2,2.1c0.1,0.5,0.5,0.6,1.1,0.6h8.5
			c0.6,0,1.2-0.3,1.2-0.7C196.1,160.1,196.2,159,196.1,158.4"/>
		<path class="st1" d="M141.3,128.9h20.3c1.5,0,2.6,0.4,2.6,1.7v6.1c0,0.9-0.9,0.9-1,0.9h-2.4c-0.8,0-1.2-0.8-1.3-1.2
			c-0.2-0.5-0.5-1.8-0.9-2.2s-2.9-0.2-2.9-0.2s-0.6,0-0.8,0.1c-0.1,0.2-0.1,0.7-0.1,0.7v20.8v1c0,0.6,0.8,0.7,1.6,0.9
			s1.6,0.4,1.7,0.9c0.3,0.8,0,2.1,0,2.1s-0.1,0.7-1.3,0.7h-11.2c-1.1,0-1.2-0.7-1.2-0.7s-0.2-1.8,0-2.2c0.1-0.3,0.8-0.6,1.7-0.8
			c0.8-0.2,1.6-0.4,1.6-1V156v-21.3c0,0,0-0.5-0.2-0.7s-0.7-0.1-0.7-0.1s-2.3-0.1-2.7,0.2c-0.5,0.4-0.6,1.5-1,2.2
			c-0.3,0.7-0.5,1.2-1.2,1.2h-2.3c0,0-1.2,0-1.2-1.3v-5.8c0,0,0.1-0.9,0.6-1.2C139.9,128.7,141.3,128.9,141.3,128.9"/>
		<path class="st1" d="M331.6,131.4h0.7c0.8,0,1.4-0.3,1.4-0.9c0-0.5-0.4-0.9-1.3-0.9c-0.4,0-0.6,0-0.8,0.1L331.6,131.4L331.6,131.4
			z M331.5,134.7h-1.4v-6c0.5-0.1,1.3-0.2,2.3-0.2c1.1,0,1.6,0.2,2,0.5s0.6,0.7,0.6,1.3c0,0.7-0.5,1.2-1.2,1.4v0.1
			c0.6,0.2,0.9,0.7,1.1,1.5c0.2,0.9,0.3,1.2,0.4,1.5h-1.5c-0.2-0.2-0.3-0.7-0.5-1.5c-0.1-0.6-0.5-0.9-1.2-0.9h-0.7v2.3H331.5z
			 M327.9,131.6c0,2.7,2,4.8,4.6,4.8s4.5-2.1,4.5-4.7c0-2.7-2-4.8-4.6-4.8C329.9,126.9,327.9,129,327.9,131.6 M338.6,131.6
			c0,3.3-2.7,6-6.1,6s-6.1-2.6-6.1-6c0-3.3,2.7-6,6.2-6C335.9,125.7,338.6,128.3,338.6,131.6"/>
	</g>
</g>
</svg>
