<?xml version="1.0" encoding="utf-8"?>
<!-- Generator: Adobe Illustrator 27.8.1, SVG Export Plug-In . SVG Version: 6.00 Build 0)  -->
<svg version="1.1" id="Layer_1" xmlns="http://www.w3.org/2000/svg" xmlns:xlink="http://www.w3.org/1999/xlink" x="0px" y="0px"
	 viewBox="0 0 432 288" style="enable-background:new 0 0 432 288;" xml:space="preserve">
<style type="text/css">
	.st0{fill:#09304D;}
</style>
<path class="st0" d="M165.5,156.2c-7.7,0-11.5-1.7-12.5-7h7c0.7,1.7,2.8,2.1,5.9,2.1c4.2,0,5.6-0.7,5.6-2.4v-0.3
	c0-1.4-0.7-2.1-4.2-2.1l-5.9-0.3c-6.3-0.3-8-2.4-8-6.6v-0.3c0-5.2,4.2-7.3,11.8-7.3h0.3c7.3,0,10.8,1.7,12.2,7h-7
	c-0.7-1.7-2.4-2.1-5.6-2.1c-3.8,0-5.2,0.7-5.2,2.4v0.3c0,1.4,0.7,2.1,4.2,2.1l5.9,0.3c6.3,0.3,8,2.4,8,6.6v0.3
	c0,5.9-4.2,7.7-12.2,7.7h-0.3V156.2z"/>
<polygon class="st0" points="185.7,163.2 189.2,155.9 179.4,132.2 186.4,132.2 192.7,147.9 193,147.9 199.3,132.2 205.9,132.2 
	192.7,163.2 "/>
<path class="st0" d="M225.7,155.9v-13.6c0-4.2-1.7-4.9-5.2-4.9c-3.8,0-5.6,1.4-5.6,5.9v12.5h-6.6v-23.6h6.6v3.8h0.3
	c1-2.8,3.5-4.5,7.7-4.5c5.6,0,9.4,1.7,9.4,9v15h-6.6L225.7,155.9L225.7,155.9z"/>
<path class="st0" d="M249,156.2h-0.7c-8,0-12.5-2.8-12.5-11.8v-1c0-8.7,4.5-11.8,12.5-11.8h0.7c8,0,12.5,2.8,12.5,11.5v2.1h-18.8
	c0,4.5,2.1,5.6,6.3,5.6c3.5,0,4.9-0.7,5.6-2.1h6.6C259.8,153.4,256.6,156.2,249,156.2 M242.4,141.3h12.2V141c0-3.5-2.4-4.5-5.9-4.5
	C244.8,136.4,242.7,137.4,242.4,141.3"/>
<path class="st0" d="M276.1,156.2c-7.7,0-11.5-1.7-12.5-7h7c0.7,1.7,2.8,2.1,5.9,2.1c4.2,0,5.6-0.7,5.6-2.4v-0.3
	c0-1.4-0.7-2.1-4.2-2.1l-5.9-0.3c-6.3-0.3-8-2.4-8-6.6v-0.3c0-5.2,4.2-7.3,11.8-7.3h0.3c7.3,0,10.8,1.7,12.2,7h-7
	c-0.7-1.7-2.4-2.1-5.6-2.1c-3.8,0-5.2,0.7-5.2,2.4v0.3c0,1.4,0.7,2.1,4.2,2.1l5.9,0.3c6.3,0.3,8,2.4,8,6.6v0.3
	c0,5.9-4.2,7.7-12.2,7.7h-0.3L276.1,156.2L276.1,156.2z"/>
<path class="st0" d="M304.6,156.2c-7.7,0-11.5-1.7-12.5-7h7c0.7,1.7,2.8,2.1,5.9,2.1c4.2,0,5.6-0.7,5.6-2.4v-0.3
	c0-1.4-0.7-2.1-4.2-2.1l-5.9-0.3c-6.3-0.3-8-2.4-8-6.6v-0.3c0-5.2,4.2-7.3,11.8-7.3h0.3c7.3,0,10.8,1.7,12.2,7h-7
	c-0.7-1.7-2.4-2.1-5.6-2.1c-3.8,0-5.2,0.7-5.2,2.4v0.3c0,1.4,0.7,2.1,4.2,2.1l5.9,0.3c6.3,0.3,8,2.4,8,6.6v0.3
	c0,5.9-4.2,7.7-12.2,7.7h-0.3L304.6,156.2L304.6,156.2z"/>
<path class="st0" d="M332.8,156.2c-8.3,0-12.5-3.5-12.5-11.8v-1c0-8.3,4.2-11.8,12.5-11.8h1.7c8.3,0,12.5,3.5,12.5,11.8v1
	c0,8.3-4.2,11.8-12.5,11.8H332.8z M340.1,144.4v-0.7c0-5.2-2.1-6.3-6.6-6.3s-6.6,1-6.6,6.3v0.7c0,5.2,2.1,6.3,6.6,6.3
	S340.1,149.6,340.1,144.4"/>
<path class="st0" d="M136.7,153.8c-13.2-6.3-35.5-8-49.7-8.7c0.3,8.7,3.8,16.3,9.4,21.9c7.7-2.1,17.4-4.2,31.3-6.6
	C140.5,158,139.8,155.2,136.7,153.8"/>
<path class="st0" d="M126.9,126.3c-8.3-1-17.4-0.7-25.4,1.7c-4.2,1.4-4.9,3.5-5.2,4.2c-1,2.8,4.2,3.5,21.6,6.6
	c13.2,2.4,22.3,5.2,28.2,7.3c0-0.7,0-1.4,0-2.1c0-4.9-1-9.7-3.1-13.9c-1.4-0.7-3.1-1.4-4.5-1.7C134.6,127.4,130.8,126.7,126.9,126.3
	"/>
<path class="st0" d="M98.8,168.7c4.9,3.8,11.1,6.3,17.7,6.3c9.7,0,18.4-4.9,23.6-12.5c-14.6,1.4-28.9,3.8-39.3,5.9
	C100.2,168.4,99.5,168.4,98.8,168.7"/>
<path class="st0" d="M136,121.1c-5.2-4.9-12.2-8-19.5-8c-9.7,0-18.1,4.9-23.6,12.5c13.2-4.5,26.4-4.5,31-4.9
	C128.7,120.8,132.5,120.8,136,121.1"/>
<polygon class="st0" points="213.2,166.3 210,166.3 210,168.4 213.5,168.4 213.5,169.1 209.3,169.1 209.3,168.4 209.3,163.9 
	209.3,163.2 213.5,163.2 213.5,163.9 210,163.9 210,166 213.2,166 "/>
<path class="st0" d="M219.1,164.6c-0.3-0.3-1-1-1.7-1s-1.4,0.3-1.4,1s0.7,0.7,1.7,1c1,0,2.4,0.3,2.4,1.7c0,1-0.7,1.7-2.4,1.7
	c-1.4,0-2.4-0.7-2.8-1l0.3-0.3c0.3,0.3,1,1,2.1,1c0.7,0,1.7-0.3,1.7-1s-1-1-1.7-1c-1,0-2.4-0.3-2.4-1.7c0-1,0.7-1.7,2.1-1.7
	c1.4,0,2.1,0.7,2.4,1L219.1,164.6z"/>
<path class="st0" d="M221.9,166h1.4c0.7,0,1.4,0,1.4-1s-0.7-1-1.4-1h-1.4V166z M221.9,166.7v1.7v0.7h-0.7v-0.7v-4.5v-0.7h2.4
	c1,0,2.1,0.3,2.1,1.7s-1,1.7-2.1,1.7h-1.7V166.7z"/>
<path class="st0" d="M227.4,166h1.4c0.7,0,1.7,0,1.7-1s-1-1-1.7-1h-1.4V166z M230.6,169.1l-1.4-2.4h-1.7v1.7v0.7h-0.7v-0.7v-4.5
	v-0.7h2.4c0.7,0,2.1,0.3,2.1,1.7c0,1-0.7,1.4-1.4,1.7l1.4,2.4l0,0h-0.7V169.1z"/>
<polygon class="st0" points="236.5,166.3 233.7,166.3 233.7,168.4 237.2,168.4 237.2,169.1 233,169.1 233,168.4 233,163.9 
	233,163.2 237.2,163.2 237.2,163.9 233.7,163.9 233.7,166 236.5,166 "/>
<path class="st0" d="M242.4,164.6c-0.3-0.3-1-1-1.7-1s-1.4,0.3-1.4,1s0.7,0.7,1.7,1c1,0,2.4,0.3,2.4,1.7c0,1-0.7,1.7-2.4,1.7
	c-1.4,0-2.4-0.7-2.8-1l0.3-0.3c0.3,0.3,1,1,2.1,1c0.7,0,1.7-0.3,1.7-1s-1-1-1.7-1c-1,0-2.4-0.3-2.4-1.7c0-1,0.7-1.7,2.1-1.7
	c1.4,0,2.1,0.7,2.4,1L242.4,164.6z"/>
<path class="st0" d="M248.3,164.6c-0.3-0.3-1-1-1.7-1s-1.4,0.3-1.4,1s0.7,0.7,1.7,1c1,0,2.4,0.3,2.4,1.7c0,1-0.7,1.7-2.4,1.7
	c-1.4,0-2.4-0.7-2.8-1l0.3-0.3c0.3,0.3,1,1,2.1,1c0.7,0,1.7-0.3,1.7-1s-1-1-1.7-1c-1,0-2.4-0.3-2.4-1.7c0-1,0.7-1.7,2.1-1.7
	c1.4,0,2.1,0.7,2.4,1L248.3,164.6z"/>
<path class="st0" d="M254.9,166.3c0-1.7-1-2.4-2.1-2.4c-1,0-2.1,1-2.1,2.4c0,1.7,1,2.4,2.1,2.4C254.2,168.7,254.9,167.7,254.9,166.3
	 M250,166.3c0-1.7,1-3.1,2.8-3.1c1.7,0,2.8,1.4,2.8,3.1c0,1.7-1,3.1-2.8,3.1C251.1,169.4,250,168,250,166.3"/>
<polygon class="st0" points="259.4,168.4 259.4,163.9 259.4,163.2 260.5,163.2 262.6,168 262.6,168 264.3,163.2 265.3,163.2 
	265.3,163.9 265.3,168.4 265.3,169.1 264.6,169.1 264.6,168.4 264.6,164.6 264.6,163.9 264.6,163.9 262.6,169.1 262.2,169.1 
	260.1,163.9 260.1,163.9 260.1,164.6 260.1,168.4 260.1,169.1 259.4,169.1 "/>
<path class="st0" d="M268.1,166.7h2.1l-1-2.8l0,0L268.1,166.7z M267.4,169.1h-0.7l2.1-5.9h1l2.1,5.9h-0.7l-0.7-1.7h-2.4L267.4,169.1
	z"/>
<path class="st0" d="M277.9,167.7c-0.3,0.7-1,1.7-2.4,1.7s-2.8-1-2.8-3.1c0-1.7,1-3.1,2.8-3.1c1.4,0,2.1,0.7,2.4,1.7l-0.7,0.3
	c-0.3-0.7-0.7-1.4-1.7-1.4s-2.1,1-2.1,2.4c0,1.7,1,2.4,2.1,2.4s1.7-0.7,1.7-1.4L277.9,167.7z"/>
<polygon class="st0" points="283.1,169.1 283.4,168.4 283.4,166.3 279.9,166.3 279.9,168.4 279.9,169.1 278.9,169.1 279.2,168.4 
	279.2,163.9 278.9,163.2 279.9,163.2 279.9,163.9 279.9,166 283.4,166 283.4,163.9 283.1,163.2 284.1,163.2 284.1,163.9 
	284.1,168.4 284.1,169.1 "/>
<polygon class="st0" points="285.9,163.2 285.9,163.9 285.9,168.4 285.9,169.1 286.6,169.1 286.6,168.4 286.6,163.9 286.6,163.2 "/>
<polygon class="st0" points="292.5,163.2 293.5,163.2 293.2,163.9 293.2,168.4 293.5,169.1 292.8,169.1 289.3,164.6 289.3,164.6 
	289.3,164.9 289.3,168.4 289.3,169.1 288.6,169.1 288.6,168.4 288.6,163.9 288.6,163.2 289.3,163.2 292.5,168 292.5,168 
	292.5,167.3 292.5,163.9 "/>
<polygon class="st0" points="298.7,166.3 295.9,166.3 295.9,168.4 299.4,168.4 299.4,169.1 295.2,169.1 295.2,168.4 295.2,163.9 
	295.2,163.2 299.4,163.2 299.4,163.9 295.9,163.9 295.9,166 298.7,166 "/>
<path class="st0" d="M304.6,164.6c-0.3-0.3-1-1-1.7-1s-1.4,0.3-1.4,1s0.7,0.7,1.7,1c1,0,2.4,0.3,2.4,1.7c0,1-0.7,1.7-2.4,1.7
	c-1.4,0-2.4-0.7-2.8-1l0.3-0.3c0.3,0.3,1,1,2.1,1c0.7,0,1.7-0.3,1.7-1s-1-1-1.7-1c-1,0-2.4-0.3-2.4-1.7c0-1,0.7-1.7,2.1-1.7
	s2.1,0.7,2.4,1L304.6,164.6z"/>
</svg>
