<?xml version="1.0" encoding="utf-8"?>
<!-- Generator: Adobe Illustrator 27.8.1, SVG Export Plug-In . SVG Version: 6.00 Build 0)  -->
<svg version="1.1" id="Layer_1" xmlns="http://www.w3.org/2000/svg" xmlns:xlink="http://www.w3.org/1999/xlink" x="0px" y="0px"
	 viewBox="0 0 432 288" style="enable-background:new 0 0 432 288;" xml:space="preserve">
<style type="text/css">
	.st0{fill:#09304D;}
</style>
<path class="st0" d="M79.8,173.7c-1.1-0.1-2.2-0.2-3.3-0.2c-1.1,0-2.2,0.1-3.4,0.2l5.3-27.3c-3.1,0-6,0.3-8.4,0.6
	c0.2-0.6,0.5-1.2,0.6-1.9c0.1-0.6,0.1-1.2,0.1-1.9h22.8c-0.2,0.6-0.5,1.2-0.6,1.9s-0.1,1.3-0.2,1.9c-2.6-0.3-5.1-0.6-7.8-0.6
	L79.8,173.7z"/>
<path class="st0" d="M97.9,143.3h9.4c2.1,0,5.3-0.1,7,0.9c2.3,1.3,3.2,3.3,2.6,6.3c-0.8,4.3-4.2,7.1-8.5,8c1.6,4.3,3.6,8.3,5.4,12.5
	l1.2,2.7c-1.3-0.1-2.6-0.2-4-0.2c-1.3,0-2.7,0.1-4,0.2l-3.5-9.3c-0.4-1.2-1.3-3.2-1.9-4.9h-0.3l-2.8,14.2c-1.1-0.1-2.2-0.2-3.3-0.2
	c-1.1,0-2.2,0.1-3.4,0.2L97.9,143.3z M101.8,157.6c4.6,0.4,7.3-1.8,8.2-6.3c0.1-0.6,0.2-1.3,0.2-2.2c0-3.7-3.4-3.3-6.1-3.3
	L101.8,157.6"/>
<path class="st0" d="M125.4,164.4c-1.8,3.4-3.4,6.1-4.9,9.2c-0.7,0-1.4-0.1-2.1-0.1s-1.4,0.1-2.2,0.1l18.7-30.7
	c0.6,0.1,1.1,0.1,1.7,0.1c0.6,0,1.1,0,1.7-0.1l6.4,30.8c-1.3-0.1-2.5-0.2-3.8-0.2s-2.6,0.1-3.9,0.2c-0.4-3.3-0.7-6.3-1.3-9.3H125.4z
	 M135.3,161.7l-1.9-10.3l-6.2,10.3H135.3"/>
<path class="st0" d="M170.2,143.3c9.4,0.4,12,7,10.6,14.2c-1.9,10-10.2,16-19.2,16h-12.4l5.9-30.2H170.2z M156.3,170.9h3.8
	c6.1,0,11.4-3.1,13.4-13.4c1.6-8.3-1.7-11.6-7.9-11.6h-4.3L156.3,170.9"/>
<path class="st0" d="M206.1,143.3c-0.2,0.6-0.5,1.3-0.6,1.9c-0.1,0.6-0.1,1.3-0.2,1.9c-2.6-0.4-5.6-0.7-10.1-0.6l-1.9,9.5h4.6
	c2,0,3.8-0.2,5.5-0.4c-0.2,0.6-0.5,1.3-0.6,1.9c-0.1,0.6-0.1,1.3-0.1,1.9c-1.6-0.2-3.4-0.4-5.4-0.4h-4.6l-2.2,11.3
	c4.5,0,7.6-0.3,10.4-0.6c-0.2,0.6-0.5,1.3-0.6,1.9c-0.1,0.6-0.1,1.3-0.1,1.9h-16.9l5.9-30.2L206.1,143.3L206.1,143.3z"/>
<path class="st0" d="M223.3,143.3c1.2,0.1,2.4,0.2,3.6,0.2c1.2,0,2.5-0.1,3.7-0.2c0.3,7.5,0.9,14.8,1.5,22.2c4-7.4,8.3-14.7,12-22.2
	c0.7,0.1,1.4,0.1,2.2,0.1s1.5,0,2.2-0.1c0.5,7.5,2,14.7,2.7,22.2c3.8-7.3,7.6-14.7,10.9-22.2c0.7,0.1,1.3,0.1,2.1,0.1
	c0.7,0,1.4,0,2.1-0.1c-5.8,10.2-11.2,20.2-16.2,30.4c-0.7-0.1-1.5-0.2-2.2-0.2c-0.8,0-1.5,0.1-2.3,0.2c-0.6-7.4-1.7-14.5-2.9-21.6
	c-3.9,7.1-7.8,14-11.9,21.6c-0.7-0.1-1.5-0.2-2.2-0.2c-0.8,0-1.5,0.1-2.3,0.2c-0.7-9.8-1.8-19.5-2.9-29.1L223.3,143.3z"/>
<path class="st0" d="M271,143.3c1.1,0.1,2.2,0.2,3.3,0.2c1.1,0,2.2-0.1,3.4-0.2l-5.9,30.4c-1.1-0.1-2.2-0.2-3.3-0.2
	c-1.1,0-2.2,0.1-3.4,0.2L271,143.3z"/>
<path class="st0" d="M285.4,143.3h4.4c5,6.9,10.3,13.6,15.1,20.8l4-20.8c0.6,0.1,1.2,0.1,1.7,0.1c0.6,0,1.2,0,1.8-0.1l-5.9,30.4
	h-3.8c-4-5.7-7.8-11.2-11.7-16.5l-3.9-5.1l-4.2,21.5c-0.6,0-1.2-0.1-1.7-0.1c-0.6,0-1.2,0.1-1.8,0.1L285.4,143.3z"/>
<path class="st0" d="M335.2,143.3c9.4,0.4,12,7,10.6,14.2c-1.9,10-10.2,16-19.2,16h-12.4l5.9-30.2H335.2z M321.3,170.9h3.8
	c6.1,0,11.4-3.1,13.4-13.4c1.6-8.3-1.7-11.6-7.9-11.6h-4.3L321.3,170.9"/>
<path class="st0" d="M215.6,133c0,0,15.3-14.4,42.2-14.2c33.7,0.3,36,6.2,53.7,6.2s25.8-3.2,25.8-3.2s-17,9.6-37.1,9.4
	c-20.1-0.2-35-5.7-53-5.5C229.2,125.9,223.8,129.8,215.6,133"/>
<path class="st0" d="M270.4,118.2c0,0,12.3-10.9,33.1-10.1c26,0.9,27.7,5.5,41.4,5.9c13.7,0.4,20.1-2,20.1-2s-13.4,7.1-29,6.5
	c-15.5-0.6-26.9-5.1-40.9-5.3C281.1,113,276.8,115.9,270.4,118.2"/>
<path class="st0" d="M213.2,156c2.4,0,4.5-0.2,6.5-0.4c-0.2,0.6-0.6,1.3-0.7,1.9c-0.1,0.6-0.1,1.3-0.2,1.9c-1.9-0.2-4-0.4-6.3-0.4"
	/>
<path class="st0" d="M213.9,159c-2.4,0-4.5,0.2-6.5,0.4c0.2-0.6,0.6-1.3,0.7-1.9c0.1-0.6,0.1-1.3,0.2-1.9c1.9,0.2,4,0.4,6.3,0.4"/>
</svg>
