<svg width="236" height="36" viewBox="0 0 236 36" fill="none" xmlns="http://www.w3.org/2000/svg">
<path d="M128.055 27.0861C124.567 30.5704 119.891 32.7681 115.023 32.7681C111.926 32.7681 109.174 31.8683 106.93 30.3288C109.606 33.6912 113.72 35.7869 118.619 35.7869C128.18 35.7869 137.079 27.8123 138.468 17.9638C139.801 8.63172 133.899 0.978754 125.145 0.212891C129.431 1.88277 132.516 5.54205 133.524 10.1769C133.255 9.39971 132.888 8.65155 132.443 7.94166C128.853 2.3454 121.036 1.46122 114.958 5.96147C109.207 10.2293 107.095 17.8022 109.941 23.3376C109.018 18.5971 111.145 13.1355 115.63 9.80849C118.128 7.95441 120.962 7.07165 123.612 7.10637L123.604 7.13683C129.657 7.13683 133.84 12.1854 132.965 18.4129C132.86 19.1101 132.703 19.798 132.481 20.4661C131.728 22.7963 130.606 24.1629 129.282 25.7428L128.055 27.0861Z" fill="white"/>
<path d="M126.993 26.268C122.159 29.5851 116.04 29.9337 111.742 26.6605C106.273 22.484 105.844 14.0447 110.781 7.81079C112.475 5.6641 114.592 4.06932 116.846 3.05762C113.143 3.72713 109.477 5.84193 106.79 9.23482C101.541 15.864 101.996 24.8319 107.811 29.2649C113.329 33.4647 121.669 32.0719 126.993 26.268Z" fill="white"/>
<path d="M16.1717 13.3473L16.6223 10.1655C16.7101 9.54985 16.261 9.47192 15.5433 9.47192H1.75846C1.03935 9.47192 0.565383 9.54985 0.478241 10.1655L0.0241029 13.3473C-0.0254904 13.7086 -0.0679967 14.0125 0.64969 14.0125H4.11343C4.52435 14.0125 4.69438 14.0898 4.63558 14.5014L2.80487 27.4127C2.69648 28.158 2.96287 28.2586 3.99158 28.2586H7.6884C8.60871 28.2586 9.02317 28.0793 9.11456 27.4127L10.9509 14.5014C11.009 14.0898 11.201 14.0125 11.6084 14.0125H15.3577C16.0768 14.0125 16.12 13.7086 16.1717 13.3473Z" fill="white"/>
<path d="M40.1365 22.4321L41.8559 10.3171C41.9509 9.65188 41.5414 9.47192 40.6395 9.47192H36.5672C35.8417 9.47192 35.6121 9.65188 35.5441 10.1386L34.0252 20.8182C33.8296 22.204 33.457 23.3786 32.0492 23.3786C31.2501 23.3786 30.6337 22.5093 30.8618 20.8699L32.3588 10.3171C32.4594 9.65188 32.096 9.47192 31.17 9.47192H27.2698C26.5507 9.47192 26.3198 9.65188 26.251 10.1386L24.4437 22.872C23.6403 28.5193 28.9185 28.5937 31.3287 28.5937C33.5363 28.5937 39.2438 28.7255 40.1365 22.4321Z" fill="white"/>
<path d="M62.0906 15.5832C61.9432 16.782 61.2673 17.3672 60.1763 17.3736L58.5432 17.387C58.1373 17.387 58.0494 17.2588 58.1011 16.9003L58.4589 14.4235C58.4858 14.2173 58.5992 13.9622 58.9846 13.9622H60.347C61.7562 13.9622 62.1954 14.7232 62.0906 15.5832ZM68.2862 15.8107C68.7786 12.3462 66.5972 9.47192 61.5117 9.47192H53.6583C52.9406 9.47192 52.7082 9.65188 52.6359 10.1386L50.1931 27.3631C50.1095 27.949 50.0394 28.2593 50.8357 28.2593H55.0724C56.1996 28.2593 56.398 28.1049 56.4971 27.4361L57.1971 22.5093C57.2283 22.2819 57.2736 22.1537 57.4536 22.1537H58.1436C58.3526 22.1537 58.4015 22.1536 58.4745 22.3563L59.9772 27.4913C60.1182 27.949 60.0778 28.2338 60.9733 28.2593H65.8759C66.668 28.2855 66.5887 27.7712 66.4661 27.3631L64.6722 20.8182C64.5929 20.5093 64.556 20.561 64.9443 20.3548C65.9723 19.815 67.9256 18.3548 68.2862 15.8107Z" fill="white"/>
<path d="M87.8562 22.8366C87.6401 24.1445 86.4272 24.4045 85.4027 24.3988H84.0439C83.6351 24.3868 83.6252 24.216 83.6599 23.949L84.0099 21.543C84.0595 21.1767 84.1806 21.0492 84.5915 21.0492H86.0035C86.751 21.057 88.1105 21.2915 87.8562 22.8366ZM88.666 14.9598C88.3047 16.4589 87.3851 16.6594 86.5569 16.6828H85.1441C84.7042 16.6708 84.6496 16.551 84.6992 16.1926L85.0492 13.7398C85.0875 13.5053 85.193 13.2807 85.5791 13.2807H86.9387C88.1616 13.2729 88.9713 13.6867 88.666 14.9598ZM93.755 23.5132C94.2162 20.2521 92.6738 19.3814 91.8513 18.8401C93.2994 18.0452 94.4351 16.5808 94.7709 14.2194C95.1967 11.2183 93.2633 9.47266 88.2544 9.47266H80.5787C79.7845 9.47266 79.764 9.77801 79.6811 10.3724L77.2361 27.5983C77.1681 28.0801 77.3445 28.2593 78.0658 28.2593H86.6886C90.8977 28.2593 93.2994 26.7191 93.755 23.5132Z" fill="white"/>
<path d="M161.647 10.1655C161.366 9.83326 160.166 9.19067 156.811 9.19067C149.395 9.19067 146.973 12.5 146.413 16.3739L145.622 22.024C145.117 25.565 146.892 28.5937 152.949 28.5937C156.289 28.5937 158.644 27.949 159.023 27.6167C159.339 27.3362 158.823 23.2015 158.37 23.3064C157.737 23.4615 156.471 24.0028 154.167 24.0028C152.114 24.0028 151.929 22.9472 152.198 21.047L152.78 16.9924C153.187 14.0898 155.285 13.963 156.75 13.963C158.621 13.963 159.217 14.1167 159.815 14.2719C160.226 14.3753 161.896 10.4461 161.647 10.1655Z" fill="white"/>
<path d="M186.287 27.4361L188.702 10.3172C188.799 9.65261 188.756 9.47266 187.854 9.47266H183.613C182.899 9.47266 182.492 9.65261 182.417 10.1393L181.626 15.7611C181.573 16.0686 181.44 16.1947 181.124 16.1947H178.125C177.712 16.1947 177.543 16.1175 177.601 15.7094L178.359 10.3172C178.461 9.65261 178.1 9.47266 177.176 9.47266H173.103C172.376 9.47266 172.14 9.65261 172.079 10.1393L169.63 27.3631C169.543 27.9497 169.608 28.2593 170.274 28.2593H174.509C175.407 28.2593 175.84 28.1049 175.937 27.4361L176.808 21.3042C176.86 20.8954 176.967 20.8699 177.281 20.8699H180.409C180.823 20.8699 180.882 20.9974 180.831 21.3786L179.975 27.3631C179.888 27.9497 180.109 28.2593 180.899 28.2593H185.135C186.033 28.2593 186.185 28.1049 186.287 27.4361Z" fill="white"/>
<path d="M210.449 27.5175L210.925 24.1565C210.992 23.64 210.535 23.487 209.399 23.487H204.859C204.321 23.487 203.809 23.5132 203.887 22.9202L204.083 21.5082C204.137 21.1519 204.477 20.9209 204.891 20.9209H208.405C208.688 20.9209 209.578 20.9974 209.786 20.0714L210.456 16.9442C210.535 16.6098 210.449 16.2442 209.742 16.2442H205.348C205.068 16.2442 204.805 16.0678 204.872 15.6569L205.04 14.4518C205.068 14.2485 205.2 14.0409 205.756 14.0409H210.624C211.339 14.0409 211.803 13.9637 211.894 13.348L212.342 10.1655C212.395 9.8042 212.366 9.47192 211.753 9.47192H200.455C199.793 9.47192 199.716 9.83325 199.645 10.3171L197.225 27.3631C197.126 28.0588 197.654 28.2593 197.997 28.2593H209.805C210.053 28.2593 210.383 28.0305 210.449 27.5175Z" fill="white"/>
<path d="M235.573 13.066L235.979 10.1663C236.037 9.80423 236.003 9.47266 235.393 9.47266H224.093C223.434 9.47266 223.354 9.83398 223.289 10.3179L220.853 27.3638C220.758 28.0588 221.3 28.2593 221.628 28.2593H226.226C226.48 28.2593 226.804 28.0305 226.876 27.5175L227.648 22.0481C227.702 21.6875 228.044 21.4069 228.462 21.4069H231.788C232.071 21.4069 232.881 21.4849 233.17 20.5617L233.745 17.4288C233.845 17.0966 233.745 16.7374 233.022 16.7374H228.918C228.636 16.7374 228.377 16.556 228.442 16.1451L228.686 14.4518C228.713 14.2485 228.831 14.0409 229.408 14.0409H234.254C235.124 14.0409 235.452 13.8872 235.573 13.066Z" fill="white"/>
</svg>
