<?xml version="1.0" encoding="utf-8"?>
<!-- Generator: Adobe Illustrator 27.8.1, SVG Export Plug-In . SVG Version: 6.00 Build 0)  -->
<svg version="1.1" id="Layer_1" xmlns="http://www.w3.org/2000/svg" xmlns:xlink="http://www.w3.org/1999/xlink" x="0px" y="0px"
	 viewBox="0 0 432 288" style="enable-background:new 0 0 432 288;" xml:space="preserve">
<style type="text/css">
	.st0{fill:#09304D;}
</style>
<rect x="268.3" y="127.8" class="st0" width="5.6" height="32.3"/>
<path class="st0" d="M273.9,160.1h-5.6v-32.3h5.6V160.1z M268.7,160.1h5.2v-31.8h-5.2V160.1z"/>
<rect x="211.1" y="140.7" class="st0" width="9" height="4.7"/>
<path class="st0" d="M220.1,145.4h-9v-5.2h9V145.4z M211.1,145h8.6v-4.3h-8.6V145z"/>
<polygon class="st0" points="290.2,136 290.2,160.1 285.1,160.1 285.1,126.1 317.8,150.2 317.8,127.8 322.9,127.8 322.9,160.1 "/>
<path class="st0" d="M323.4,160.5L323.4,160.5l-32.7-24.1v24.1h-5.2v-34.4h0.4l32.7,24.1v-22.4h5.2v32.7H323.4z M285.5,160.1h4.7
	V136h0.4l32.7,24.1v-31.8h-4.7v22.4h-0.4l-32.7-24.1V160.1z"/>
<g>
	<path class="st0" d="M340.2,132.5v7.7h23.2l-2.6,4.3h-20.7v9.5c8.6,3,18.1,2.6,27.5-0.4l2.6,3.9c-12.1,3.9-24.1,3.9-35.3-0.9v-1.3
		v-25.8c11.2-4.7,23.2-4.7,35.3-0.9l-2.6,3.9C357.8,129.5,348.8,129.5,340.2,132.5"/>
	<path class="st0" d="M352.6,160.1c-6.5,0-12.1-1.3-18.1-3.4l0,0v-27.1l0,0c10.8-4.3,22.4-4.7,35.3-0.9l0,0l-2.6,4.3l0,0
		c-9.9-3-18.9-3-27.5-0.4v7.3H363l0,0l-2.6,4.3h-20.2v9c8.2,3,17.6,2.6,27.5-0.4l0,0l0,0l3,3.9l0,0
		C364.3,159.2,358.2,160.1,352.6,160.1z M335,156.2c10.8,4.3,21.9,4.7,34.9,0.9l-2.6-3.4c-9.9,3-18.9,3-27.5,0l0,0v-9.5h20.7
		l2.6-3.9h-23.2v-7.7l0,0c8.6-3,17.6-3,28,0.4l2.2-3.4c-12.9-3.9-24.5-3.4-34.9,0.9v25.7H335z"/>
	<path class="st0" d="M227,127.8h4.7v25.8c8.6,3,18.1,3,28,0l2.6,3.9c-12.5,3.9-24.1,3.9-35.3-0.9l0,0L227,127.8L227,127.8z"/>
	<path class="st0" d="M244.6,160.1c-6.5,0-12.1-1.3-18.1-3.4l0,0v-28.8h5.2v25.8c8.6,3,17.6,3,27.5-0.4l0,0l0,0l3,3.9l0,0
		C256.2,159.2,250.2,160.1,244.6,160.1z M227,156.2c10.8,4.3,21.9,4.7,34.9,0.9l-2.6-3.4c-9.9,3-19.4,3-28,0l0,0v-25.8h-4.7v28.4
		L227,156.2L227,156.2z"/>
	<path class="st0" d="M106.5,157.1c-2.6,5.6-7.3,9-12.1,10.3c14.6-0.4,26.3-11.2,26.3-25s-12.1-25-26.7-25c-6,0-11.2,1.7-15.9,4.7
		h-0.4c-0.4,0-0.9-0.4-0.9-0.9c0,0,0-0.4,0.4-0.4c5.2-3.9,11.2-6.5,18.1-6.5c15.9,0,28.8,12.9,28.8,28.8s-12.9,28.8-28.8,28.8
		c-10.8,0-22.8-4.3-27.5-14.6v-21.9h6.5v20.7c2.2,5.6,9,7.3,12.9,7.3c4.3,0,11.2-1.7,12.9-7.7v-20.2h5.6 M95.7,108.8
		c-18.9,0-34.4,15.5-34.4,34.4s15.5,34.4,34.4,34.4s34.4-15.5,34.4-34.4S114.6,108.8,95.7,108.8"/>
	<path class="st0" d="M167.2,156.6v-28.4h4.7V154c9,3,18.1,3,28-0.4v-25.4h4.7v28.4C191.7,160.9,179.2,161.4,167.2,156.6"/>
	<path class="st0" d="M184.8,160.1c-6.5,0-12.5-1.3-18.1-3.4l0,0v-28.8h5.2v25.8c8.6,3,18.1,3,28-0.4v-25.4h5.2v28.8l0,0
		C198.1,159.2,191.3,160.1,184.8,160.1z M167.2,156.2c11.2,4.7,23.7,4.7,37.9,0v-28.4h-4.7v25.4l0,0c-9.9,3-19.4,3.4-28.4,0.4l0,0
		v-25.8h-4.7L167.2,156.2L167.2,156.2z"/>
	<path class="st0" d="M131,171.7h1.7c0.4,0,0.9,0,0.9,0c0.4,0,0.4,0,0.4-0.4v-0.4c0-0.4,0-0.4-0.4-0.9c-0.4,0-0.4-0.4-0.9-0.4h-2.2
		v2.2h0.5V171.7z M130.1,175.1v-6.5h3c0.4,0,0.9,0,1.3,0c0.4,0,0.4,0.4,0.9,0.4s0.4,0.4,0.4,0.9c0,0.4,0,0.9-0.4,1.3
		c-0.4,0.4-0.9,0.4-1.3,0.4c0.4,0,0.4,0.4,0.4,0.4c0.4,0.4,0.4,0.4,0.9,0.9l1.3,1.7h-1.3l-0.9-1.3c-0.4-0.4-0.4-0.9-0.4-0.9
		l-0.4-0.4h-0.4h-0.4h-0.9v3h-1.8V175.1z"/>
	<path class="st0" d="M132.7,179c-3.9,0-6.9-3-6.9-6.9s3-6.9,6.9-6.9c3.9,0,6.9,3,6.9,6.9S136.6,179,132.7,179z M132.7,166.5
		c-3,0-5.6,2.6-5.6,5.6s2.6,5.6,5.6,5.6s5.6-2.6,5.6-5.6S135.7,166.5,132.7,166.5z"/>
</g>
</svg>
