<?xml version="1.0" encoding="utf-8"?>
<!-- Generator: Adobe Illustrator 27.8.1, SVG Export Plug-In . SVG Version: 6.00 Build 0)  -->
<svg version="1.1" id="Layer_1" xmlns="http://www.w3.org/2000/svg" xmlns:xlink="http://www.w3.org/1999/xlink" x="0px" y="0px"
	 viewBox="0 0 432 288" style="enable-background:new 0 0 432 288;" xml:space="preserve">
<style type="text/css">
	.st0{fill:#09304D;}
	.st1{fill:#F05F4D;}
	.st2{fill:none;}
</style>
<path class="st0" d="M391,188.6c4.5,0,8,3.6,8,8.2c0,4.6-3.6,8.2-8.1,8.2s-8.1-3.6-8.1-8.2C382.8,192.3,386.5,188.6,391,188.6
	L391,188.6z M390.9,189.9c-3.6,0-6.5,3.1-6.5,6.9c0,3.9,2.9,6.9,6.6,6.9c3.6,0,6.5-3.1,6.5-6.9S394.6,189.9,390.9,189.9L390.9,189.9
	z M389.4,201.6H388v-9.1c0.8-0.1,1.5-0.2,2.6-0.2c1.4,0,2.3,0.3,2.8,0.7s0.8,1,0.8,1.9c0,1.2-0.8,1.9-1.8,2.2v0.1
	c0.8,0.1,1.3,0.9,1.5,2.2c0.2,1.4,0.4,2,0.6,2.3H393c-0.2-0.3-0.4-1.1-0.6-2.3s-0.8-1.6-2-1.6h-1V201.6z M389.4,196.5h1.1
	c1.2,0,2.2-0.4,2.2-1.6c0-0.8-0.6-1.6-2.2-1.6c-0.5,0-0.8,0-1.1,0.1V196.5z"/>
<path class="st1" d="M220.7,162.9"/>
<path class="st1" d="M220.8,162.9"/>
<path class="st1" d="M220.8,169.7"/>
<path class="st1" d="M220.7,169.7"/>
<path class="st1" d="M220.7,94.5"/>
<path class="st1" d="M220.8,94.5"/>
<path class="st1" d="M220.8,87.7"/>
<path class="st1" d="M220.7,87.7"/>
<path class="st0" d="M180.1,146.1"/>
<path class="st0" d="M180,147.3"/>
<g>
	<path class="st0" d="M47.3,201.2c-10.4,0-18.8-8.4-18.8-18.8v-79.9c0-10.4,8.4-18.8,18.8-18.8h317c10.4,0,18.8,8.4,18.8,18.8v79.9
		c0,10.4-8.4,18.8-18.8,18.8H47.3z M37.6,182.4c0,5.4,4.4,9.7,9.7,9.7h317c5.4,0,9.7-4.4,9.7-9.7v-79.9c0-5.4-4.4-9.7-9.7-9.7h-317
		c-5.4,0-9.7,4.4-9.7,9.7L37.6,182.4L37.6,182.4z"/>
	<g>
		<path class="st0" d="M358.4,150.7c0,0,2.6,0.1,0.1,2c-2.4,1.9-5,2.1-5,6v22.9c0,0,0.4,2.6-2.4,0s-6.3-5.9-15.5-3.7
			c-7.8,1.8-10.5,3.1-14.8,2c0,0-23.4-6.3-23.4-31.9s21.7-32,32.2-31.7c0,0,5,0,9.7,2.4c0,0,6.2,3,8.6-5.1c0,0,1.4-3.9,1.9-0.1
			l3,24.6c0,0-1,1.8-2,0.1c-0.9-1.6-6.7-16.7-20.9-16.7c0,0-16,0.4-16,26.4s10.9,28.2,12.9,27.9c0,0,11.2-0.6,11.2-13.7
			c0,0,0.3-6.5-5.8-9.7c0,0-2.7-1.7-0.1-1.7L358.4,150.7"/>
		<g>
			<path class="st2" d="M153.5,161c0-4.2,0-31.5,0-32.4c0,0-0.6-8.1-7.7-9.5l-0.5-0.1c0,0-0.4,0.4-0.8,0.6c-3,2-8.2,5.4-8.2,9.3V160
				v1c0,0,0,3.8,2.4,6c2.6,2.7,4.5,3.3,6.1,3.4c1.7,0,5.7-1,7.5-4.2c1.3-1.8,1.2-4.6,1.2-4.6V161z"/>
			<path class="st2" d="M210.4,119.2l-0.9-0.2c-1.6-0.3-3.4,0.2-3.4,0.2l-0.9,0.4c-4.1,1.6-12.1,5.5-17.4,13l17,34.5l0.2,0.4
				c0,0,1.1,2.4,1.6,2.7c0.4,0.3,1.2,0.8,2.6,0.5c1.4-0.3,3.1-0.5,5-1.9l0.5-0.3c1.8-1.3,3.4-3.1,3.4-6.2c0,0,0-32.9,0-33.4
				C218.1,128.2,217.5,120.5,210.4,119.2z"/>
			<path class="st0" d="M303.3,117.5h-23c-2.2,0-1.6,1.2-1.1,1.8c0.2,0.2,0.6,0.4,0.7,0.4c6.1,1.3,6.7,8.9,6.7,8.9V154l-18.2-36.6
				l-85.4,0.1c-1.7,0-0.7,1.3-0.2,1.9c0.1,0.1,0.5,0.2,0.6,0.2c8,0.2,3.6,5.9,3.6,5.9l-17.7,18v-14.6c0-3.9,5.3-7.3,8.2-9.3
				c3-2,0-2.1,0-2.1h-62.9c0.4-0.9,0.7-1.6,0.9-2c2.1-4.9,5.1-7.1,7.4-8.4s0-2,0-2H92c-2.7,0,0,2,0,2c8,4.1,5,10.4,5,10.4
				l-12.1,27.9l-10.6-30c-1-5.6,5.3-8.3,5.3-8.3c2.1-1.3,0-2.1,0-2.1H52.3c-1.3,0-1.3,0.9-1,1.4c0.2,0.4,0.7,0.6,0.7,0.6
				c5.8-0.1,8.7,8.4,8.7,8.4L87,178.9c0.3,0.7,1.1,0.1,1.1,0.1s19.5-45.5,25.6-59.6c6.5,1.7,7,9.3,7,9.3v33.4c0,4.3-3,5.9-5.4,7.5
				c-0.2,0.1-0.6,0.4-1,0.5c-0.6,0.2-3.2,0.6-3.2,0.6l-0.1,1.4h3.7h32.8H176c4.5,0,0.1-2,0.1-2c-5.8-2.6-7.1-7.1-7.1-7.9
				c0-0.8,0-10,0-10l7.1-7.7l7.9,16.1l0.2,0.4c0,0,1.1,1.9,0.8,3.5v0.5c-0.5,2.8-2,3.9-3.1,5.1c-1.3,1.4,0,2,0,2h30.2h31.3h21.4
				c2.7,0,0.1-2,0.1-2c-5.1-1.6-7.1-7.9-7.1-7.9v-29.9l21.7,39.8H295v-9.9v-33.3c0-3.9,5.3-7.3,8.2-9.3
				C306.3,117.7,303.3,117.5,303.3,117.5z M152.3,166.2c-1.8,3.2-5.8,4.3-7.5,4.2c-1.7,0-3.5-0.7-6.1-3.4c-2.3-2.2-2.4-6-2.4-6v-1
				v-31.1c0-3.9,5.3-7.3,8.2-9.3c0.3-0.2,0.8-0.6,0.8-0.6l0.5,0.1c7.1,1.4,7.7,9.5,7.7,9.5c0,0.9,0,28.1,0,32.4v0.5
				C153.5,161.6,153.6,164.4,152.3,166.2z M218.1,162.1c0,3.1-1.6,4.9-3.4,6.2l-0.5,0.3c-1.8,1.4-3.5,1.6-5,1.9
				c-1.4,0.3-2.2-0.2-2.6-0.5c-0.4-0.3-1.6-2.7-1.6-2.7l-0.2-0.4l-17-34.5c5.3-7.5,13.3-11.4,17.4-13l0.9-0.4c0,0,1.8-0.5,3.4-0.2
				l0.9,0.2c7.1,1.4,7.7,9,7.7,9.5C218.1,129.2,218.1,162.1,218.1,162.1z M249.4,162.1c0,4.6-3.4,6.1-6,7.9c-0.6,0.4-1,0.7-1.2,0.9
				c-0.6-0.4-1.6-0.8-1.6-0.8c-5-1.8-6.9-6.5-6.9-7.8s0-33.3,0-33.3c0-3.6,4.1-6.8,7.2-8.7c0.3-0.2,1.2-0.7,2.2-0.4
				c5.7,1.5,6.2,8.8,6.2,8.8v33.4H249.4z"/>
		</g>
	</g>
</g>
</svg>
