<svg xmlns="http://www.w3.org/2000/svg" width="2500" height="2500" viewBox="0 0 192.756 192.756"><g fill-rule="evenodd" clip-rule="evenodd"><path fill="none" d="M0 0h192.756v192.756H0z"/><path fill="#db943c" d="M6.254 151.219c-1.009.016-1.393.05-1.676.092s-.468.091-.617.143c-.312.124-.515.193-.773.574-.212.384-.212.65-.201 1.04.01.176.035.379.085.634.05.254.126.559.254.956.127.396.305.886.501 1.367a32.4 32.4 0 0 0 4.344 6.87c1.702 2.048 3.632 3.806 5.709 5.412a52.5 52.5 0 0 0 6.694 4.39c2.392 1.324 4.95 2.516 7.686 3.597a82 82 0 0 0 8.603 2.854c9.417 2.489 19.066 4.008 33.33 4.785s33.145.812 48.775-.079 28.016-2.711 40.162-5.598c3.664-.965 7.252-2.229 10.4-3.631 3.146-1.403 5.854-2.945 8.268-4.656s4.539-3.589 6.461-5.869 3.643-4.963 5.004-7.812c.576-1.312 1.084-2.671.119-3.935a2.2 2.2 0 0 0-.336-.321 3 3 0 0 0-.5-.312 3.4 3.4 0 0 0-.83-.296 9 9 0 0 0-1.402-.182H10.53a145 145 0 0 0-4.276-.023M184.281 48.114c1.053-.05 2.107-.15 2.775-.25s.951-.201 1.182-.297.408-.188.561-.287c.811-.582.895-1.11 1.016-1.682.035-.211.057-.452.059-.737s-.016-.615-.064-1.026c-.051-.41-.133-.901-.275-1.521a32 32 0 0 0-.574-2.109c-.459-1.473-1.109-2.88-2.191-4.606-1.08-1.727-2.59-3.771-4.703-6.051-2.111-2.279-4.828-4.792-7.77-7.087a69.5 69.5 0 0 0-9.432-6.184c-5.859-3.124-12.074-5.55-20.213-7.696-8.135-2.146-18.193-4.009-29.484-4.958s-23.815-.983-35.234-.077-21.732 2.751-30.1 4.9c-8.367 2.149-14.788 4.601-20.853 7.767a101 101 0 0 0-8.734 5.091 73 73 0 0 0-6.913 5.11c-1.999 1.674-3.722 3.32-5.25 5.305s-2.862 4.307-3.888 6.756a21 21 0 0 0-.817 2.129 12.4 12.4 0 0 0-.425 1.718 8 8 0 0 0-.12 1.318c0 .387.033.729.092 1.038.162.77.415 1.431 1.187 2.135.211.186.454.357.741.516.287.158.617.303 1.013.429s.856.234 1.417.31 1.223.115 1.884.114z"/><path fill="#ca3432" d="M64.291 86.87c2.333-2.042 2.896-4.085 2.935-6.178l.016-20.731c-.014-.832-.219-1.668-1.138-2.5a4 4 0 0 0-.572-.419 5 5 0 0 0-.742-.372c-.929-.375-1.986-.523-3.062-.446a7 7 0 0 0-1.049.157 6 6 0 0 0-.914.285 5 5 0 0 0-.744.371 4 4 0 0 0-.575.418c-.914.823-1.131 1.65-1.148 2.5l.037 19.325c-.032.737-.135 1.503-1.188 2.27-1.165.708-2.577.905-4.113-.008-1.009-.734-1.159-1.49-1.187-2.278l-.02-19.223c-.016-.848-.225-1.698-1.163-2.546a4.3 4.3 0 0 0-.583-.426 5 5 0 0 0-.755-.377c-.94-.378-2.012-.529-3.103-.448a7 7 0 0 0-1.057.161 6 6 0 0 0-.917.29q-.416.171-.746.375a4 4 0 0 0-.575.424c-.915.835-1.126 1.672-1.136 2.537l-.025 20.657c0 .458.04.916.113 1.358.289 1.618.974 3.231 2.827 4.835.433.367.932.728 1.509 1.07a13.5 13.5 0 0 0 1.969.954c.736.288 1.554.542 2.443.741 1.776.402 3.859.562 5.849.416a20 20 0 0 0 2.853-.415 17 17 0 0 0 2.461-.744c.742-.29 1.401-.615 1.982-.959s1.083-.707 1.518-1.074m10.901 10.485a6.3 6.3 0 0 0-.87-.637 7.6 7.6 0 0 0-1.126-.562 9 9 0 0 0-1.382-.434 11 11 0 0 0-3.263-.24c-.553.042-1.089.125-1.589.24s-.962.264-1.382.434-.795.36-1.126.562a6.3 6.3 0 0 0-.87.637c-1.382 1.25-1.709 2.506-1.732 3.799v39.091c0 .287.021.574.065.852.173 1.004.562 1.987 1.677 2.99q.376.334.871.64c.331.203.707.396 1.126.566 1.406.567 3.004.794 4.631.675.55-.042 1.085-.125 1.584-.241a9 9 0 0 0 1.379-.434c.419-.17.794-.363 1.126-.566s.619-.418.871-.64c1.391-1.264 1.72-2.534 1.742-3.842v-39.091c-.022-1.264-.333-2.535-1.732-3.799m-20.169 37.121-12.99-14.212L55.141 106.1c1.83-2.49 2.118-4.978.271-7.543a7.3 7.3 0 0 0-1.143-1.185 8.48 8.48 0 0 0-4.992-1.907 7.8 7.8 0 0 0-1.653.109 7.24 7.24 0 0 0-3.905 2.048L26.73 115.986l.041-14.891c-.019-1.242-.321-2.492-1.707-3.733a6 6 0 0 0-.862-.622 7.6 7.6 0 0 0-1.117-.55 9 9 0 0 0-1.374-.418 11 11 0 0 0-4.843.038c-.5.12-.964.271-1.384.444s-.797.367-1.129.573a6.3 6.3 0 0 0-.873.644c-1.384 1.259-1.722 2.524-1.749 3.824l.036 39.088c.019 1.227.312 2.479 1.647 3.699q.356.318.826.61c.314.193.669.375 1.066.537.398.162.839.305 1.32.417 1.464.34 3.157.38 4.854.003a10 10 0 0 0 1.444-.44c.44-.173.835-.368 1.182-.574.348-.206.647-.422.91-.644 1.409-1.228 1.769-2.467 1.798-3.725l-.107-15.327 16.895 18.603c2 2.034 4.086 2.505 6.152 2.287a8.3 8.3 0 0 0 3.08-1.026 9 9 0 0 0 1.424-1.003c2.485-2.226 3.166-4.885 2.147-7.317a6.7 6.7 0 0 0-1.384-2.007M13.014 88.984c.146.122.309.239.503.349a5.1 5.1 0 0 0 1.827.586c.527.072 1.255.12 1.982.12h10.088c.685 0 1.369-.045 2.009-.132 1.329-.198 2.373-.451 3.528-1.089a10.7 10.7 0 0 0 1.835-1.337c1.439-1.327 2.215-2.657 2.688-3.985a9.6 9.6 0 0 0 .523-2.756c.023-.526.007-1.094-.068-1.698a10.6 10.6 0 0 0-.387-1.806 6.8 6.8 0 0 0-.668-1.49 18 18 0 0 0-1.638-2.081 6.4 6.4 0 0 0-1.265-1.07 9 9 0 0 0-1.257-.69 14 14 0 0 0 1.652-1.286 7.7 7.7 0 0 0 1.64-2.105 6.3 6.3 0 0 0 .628-1.802c.209-1.229.168-3.017-.368-4.589a7.5 7.5 0 0 0-1.147-2.157c-.269-.357-.584-.722-1.081-1.13s-1.175-.859-1.886-1.245a8 8 0 0 0-1.271-.537 12.4 12.4 0 0 0-1.747-.44 21 21 0 0 0-2.352-.284H17.29c-.617 0-1.236.05-1.771.147a6 6 0 0 0-1.374.408c-.39.171-.718.373-1 .605a3.6 3.6 0 0 0-.721.8c-.44.653-.643 1.517-.643 2.381v25.103c0 .245.009.491.033.719.105.84.289 1.688 1.2 2.491m8.468-25.939 2.462.03c.882.031 1.71.207 2.512 1.094.155.183.295.389.411.62.636 1.389.458 2.683-.424 3.759-.847.898-1.687 1.002-2.496 1.015l-2.465-.032zm0 12.737 2.952-.005c.981.078 1.896.279 2.773 1.35q.246.318.42.717c.115.266.204.559.256.869a4.06 4.06 0 0 1-.521 2.767 3.5 3.5 0 0 1-.529.673c-1.009.955-2.009 1.06-2.975 1.007l-2.377-.021zM139.164 90.04h13.301c.727-.017 1.455-.178 2.191-1.049.98-1.333 1.154-2.888.646-4.598a4 4 0 0 0-.293-.675 3.7 3.7 0 0 0-.35-.531c-.721-.866-1.447-1.05-2.197-1.072l-7.5-.048.023-5.243 5.943.031c.854-.021 1.732-.169 2.607-1.244.961-1.366 1.158-3 .383-4.755a3.5 3.5 0 0 0-.377-.612c-.85-1.055-1.705-1.234-2.605-1.26h-6.029v-4.657l6.871.017c.768-.03 1.555-.211 2.338-.972q.244-.245.459-.566c.781-1.259.979-2.76.369-4.355a4 4 0 0 0-.371-.694c-.889-1.217-1.801-1.392-2.758-1.425h-12.652c-.689 0-1.41.133-2.094.474-.318.16-.621.36-.893.602-.928.833-1.342 1.884-1.344 2.884l.016 25.543q-.001.474.127.958c.084.323.215.653.381.96.166.309.369.596.592.849 1.027 1.114 2.12 1.422 3.216 1.438m46.32-6.129-6.576-8.413c.016.004.029.004.123-.03.322-.098 1.197-.585 1.881-1.233 2.486-2.465 2.885-4.935 3.086-7.399.162-2.104-.283-4.16-1.92-6.364a11.2 11.2 0 0 0-1.648-1.736c-1.779-1.519-4.004-2.411-5.941-2.399h-12.5c-.895.026-1.799.143-2.668 1.188-.121.155-.24.337-.357.559s-.23.483-.324.841a7 7 0 0 0-.197 1.269v26.353q0 .273.041.537c.105.622.348 1.239 1.031 1.855q.23.206.537.396c.203.125.436.244.693.349.896.36 1.904.495 2.939.422.361-.026.717-.08 1.049-.155.332-.076.643-.173.922-.284q.422-.17.754-.37.333-.2.58-.415c.9-.792 1.125-1.592 1.141-2.406l.016-9.409 8.688 11.557c.271.378.752.816 1.193 1.043 1.672.811 3.311.518 5.182-.521.303-.18.596-.381.861-.594 1.752-1.465 2.475-3.11 1.414-4.641m-12.226-14.229c-.842.918-1.672 1.119-2.484 1.195-.166.01-.129.009-.723.033-.422.018-1.158.046-1.893.074v-7.841a437 437 0 0 1 2.539.026c.072.001.102.002.131.004.85.051 1.65.25 2.439 1.075q.241.26.436.595c.918 1.786.66 3.456-.445 4.839m10.594 48.416a5.6 5.6 0 0 0-.355-.913 4 4 0 0 0-.408-.644 3.2 3.2 0 0 0-1.057-.878 4.4 4.4 0 0 0-.764-.309 6 6 0 0 0-1.08-.221 12 12 0 0 0-1.527-.081l-11.661.072c-1.361-.068-2.775.133-4.166 1.253q-.434.358-.816.837a4.8 4.8 0 0 0-.689 1.09c-.643 1.299-.887 2.821-.664 4.354.072.49.193.954.352 1.376.156.422.348.803.564 1.14 1.09 1.609 2.242 2.02 3.426 2.238.383.061.77.11 1.078.141.59.057.963.058 1.414.049.314-.036.633-.063.836-.074.4-.018.459 0 .652.104.449.432.383.736.465 1.291.01.134.008.249-.008.399-.045.495-.342 1.46-.854 2.277a3.8 3.8 0 0 1-.789.642c-.686.418-1.521.709-2.334.886a13 13 0 0 1-2.822.278c-.84.002-1.682-.064-2.449-.188s-1.461-.306-2.111-.545c-1.297-.489-2.412-1.131-3.588-2.311a14 14 0 0 1-1.713-2.142 13 13 0 0 1-1.873-4.911c-.303-1.814-.271-3.803.109-5.744s1.111-3.837 2.137-5.553c.361-.611.83-1.186 1.516-1.772.34-.289.73-.573 1.199-.854s1.016-.56 1.668-.823a16 16 0 0 1 2.312-.723c1.834-.434 4.1-.635 6.205-.43.391.046.779.112 1.234.212.457.099.982.231 2.17.655 1.186.423 3.031 1.137 4.859 1.891 1.807.648 3.604.511 5.48-.775a7.3 7.3 0 0 0 1.084-.945c1.625-1.769 2.365-3.978 1.803-6.075a4.45 4.45 0 0 0-.918-1.697 5 5 0 0 0-.699-.667c-1.596-1.266-3.32-2.375-4.855-3.137-1.535-.763-2.881-1.179-4.271-1.52a35 35 0 0 0-4.361-.782 40 40 0 0 0-4.779-.257 30.4 30.4 0 0 0-6.455.646 27 27 0 0 0-5.994 2.001c-1.91.9-3.738 2.04-5.451 3.469s-3.312 3.146-4.543 4.843-2.098 3.375-2.793 5.292-1.221 4.075-1.502 6.238a30.5 30.5 0 0 0-.145 6.373 28.5 28.5 0 0 0 1.072 5.727c.527 1.772 1.207 3.406 1.93 4.816s1.486 2.598 2.318 3.682a22 22 0 0 0 2.711 2.958c.984.895 2.057 1.701 3.252 2.427s2.512 1.37 4.018 1.928a27.4 27.4 0 0 0 5.227 1.354c2.021.325 4.369.506 6.715.5a42 42 0 0 0 3.395-.146q1.651-.141 3.168-.411c1.517-.27 1.982-.402 2.91-.668a25 25 0 0 0 2.666-.928c.85-.354 1.66-.75 2.439-1.202a18 18 0 0 0 2.23-1.522c1.4-1.103 2.715-2.618 3.484-4.041.377-.698.596-1.33.711-1.983l.15-13.787a23 23 0 0 0-.168-2.316 9 9 0 0 0-.297-1.464m-53.114-46.491a3.7 3.7 0 0 0-.232-.6c-.195-.415-.598-.822-.963-.999a3 3 0 0 0-.5-.203c-.43-.139-1.066-.197-1.711-.198l-7.652-.045c-1.062-.031-2.166.081-3.264 1.381-.82 1.089-1.066 2.297-.895 3.63.047.327.127.636.23.917s.23.534.373.757c.715 1.063 1.471 1.333 2.244 1.477.252.04.506.072.709.092.387.037.631.037.926.032.209-.024.416-.042.551-.049.295-.012.35.001.492.123.205.262.199.453.24.794.014.251-.012.379-.08.645a4.5 4.5 0 0 1-.484 1.113c-1.102 1.031-2.545 1.16-3.902 1.186a10 10 0 0 1-1.607-.124c-1.371-.237-2.561-.702-3.74-1.875a9.3 9.3 0 0 1-1.125-1.407 8.5 8.5 0 0 1-1.229-3.225 10.7 10.7 0 0 1 .07-3.773c.25-1.275.73-2.52 1.402-3.647.238-.401.545-.779.996-1.164.223-.189.479-.376.787-.561a7.6 7.6 0 0 1 1.096-.541 10 10 0 0 1 1.518-.475 13 13 0 0 1 4.07-.282c.258.03.512.074.812.139.299.065.643.152 1.422.43s1.99.746 3.189 1.242c1.412.474 2.781.373 4.309-1.129 1.197-1.335 1.73-2.994.939-4.589a3.1 3.1 0 0 0-.816-.955c-1.047-.831-2.18-1.559-3.188-2.06s-1.891-.774-2.805-.998c-1.881-.466-3.928-.693-5.998-.682a20 20 0 0 0-4.236.424c-1.371.289-2.68.723-3.934 1.314s-2.453 1.34-3.578 2.278-2.174 2.066-2.982 3.182a13.7 13.7 0 0 0-1.834 3.476c-.455 1.259-.801 2.676-.984 4.097s-.207 2.846-.096 4.186.357 2.596.705 3.76a18.6 18.6 0 0 0 1.266 3.164c.475.927.977 1.707 1.521 2.419a14.7 14.7 0 0 0 1.779 1.943c.646.587 1.35 1.117 2.135 1.594s1.648.9 2.639 1.266c.988.366 2.102.675 3.428.889 1.961.312 4.322.429 6.637.232q1.083-.093 2.078-.27c.995-.177 1.301-.265 1.91-.439s1.191-.377 1.75-.609q.834-.346 1.6-.789c.766-.443 1.002-.628 1.465-1 .918-.724 1.781-1.719 2.287-2.654.248-.458.391-.875.467-1.303l.098-9.055c-.014-.55-.055-1.1-.109-1.522a5.6 5.6 0 0 0-.196-.96m-1.748 25.682a6.5 6.5 0 0 0-.873-.643 8 8 0 0 0-1.131-.569c-1.41-.57-3.014-.797-4.646-.676-.553.042-1.088.126-1.586.243-.5.117-.961.266-1.381.438a7.6 7.6 0 0 0-1.123.568q-.493.308-.867.643c-1.385 1.271-1.707 2.546-1.721 3.861v16.838c-4.756-5.691-9.514-11.381-12.264-14.671s-3.49-4.183-4.02-4.79c-.529-.606-.848-.928-1.205-1.223a7.5 7.5 0 0 0-1.18-.804 8.3 8.3 0 0 0-1.418-.612c-1.642-.527-3.475-.604-5.356-.127a9 9 0 0 0-1.699.618 7.6 7.6 0 0 0-1.369.839c-1.606 1.271-2.089 2.616-2.102 3.932l.114 39.086q.001.438.068.86c.176 1.01.563 1.996 1.683 3.005.251.221.536.434.865.636s.701.393 1.115.561c1.389.561 2.963.779 4.565.656a10.5 10.5 0 0 0 1.564-.243c.493-.117.951-.266 1.367-.438s.788-.365 1.118-.57.615-.42.867-.644c1.393-1.276 1.723-2.562 1.746-3.885V122.23l16.402 20.709c2.301 2.615 4.605 3.15 6.963 3.015a9.1 9.1 0 0 0 3.078-.816c.51-.235 1-.519 1.447-.835 1.713-1.217 2.613-2.736 2.723-4.058l-.004-39.091c-.017-1.286-.328-2.578-1.74-3.865m-37.971-7.635c1.671.81 3.311.518 5.182-.521a7.5 7.5 0 0 0 .86-.593c1.754-1.465 2.477-3.109 1.416-4.641l-6.574-8.413c.014.004.029.004.122-.03.323-.098 1.199-.584 1.882-1.233 2.486-2.465 2.884-4.935 3.086-7.398.162-2.105-.284-4.16-1.922-6.365a11.2 11.2 0 0 0-1.647-1.735c-1.779-1.519-4.003-2.411-5.94-2.398H74.981c-.893.025-1.798.143-2.667 1.188-.121.155-.24.338-.357.559a3.8 3.8 0 0 0-.325.84 7 7 0 0 0-.196 1.269v26.354q0 .273.04.536c.105.623.347 1.24 1.031 1.856q.232.206.537.396c.305.19.435.244.694.349.897.361 1.904.495 2.939.422.36-.026.716-.08 1.048-.155q.5-.115.923-.284.422-.17.754-.371.33-.199.579-.414c.9-.792 1.125-1.592 1.14-2.406l.016-9.409 8.688 11.557c.272.374.753.813 1.194 1.04m-4.791-20.033c-.841.918-1.671 1.119-2.483 1.195-.166.009-.13.009-.723.033-.422.018-1.157.046-1.893.074v-7.841a435 435 0 0 1 2.538.026l.133.003c.849.052 1.648.25 2.438 1.076q.24.26.436.595c.917 1.786.659 3.456-.446 4.839"/><path d="M177.373 184.378c.236-.491.262-.939.068-1.565a1.32 1.32 0 0 0-.559-.646c-.246-.14-.477-.202-.773-.247a5 5 0 0 0-.604-.039h-2.217v5.845h.883v-2.533h1.014l1.535 2.533h.988l-1.656-2.573c.427-.055 1.018-.217 1.321-.775m-2.146.063h-1.055v-1.81c.727.029 1.578-.108 2.092.172.551.35.424.944.211 1.289-.207.235-.344.27-.676.321a5 5 0 0 1-.572.028"/><path d="M180.111 183.269c-.152-.494-.385-.968-.691-1.399s-.689-.821-1.129-1.143c-1.395-.998-3.041-1.24-4.666-.738-.521.167-1.02.418-1.459.738s-.824.709-1.131 1.141c-.947 1.357-1.146 2.911-.693 4.46.154.498.385.974.693 1.406a5 5 0 0 0 1.129 1.144c1.383.991 3.055 1.249 4.678.741a5.04 5.04 0 0 0 2.578-1.887c.934-1.348 1.146-2.922.691-4.463m-1.552 4.044a3.94 3.94 0 0 1-2.047 1.515c-1.295.397-2.617.202-3.711-.585a4 4 0 0 1-.904-.928 4.1 4.1 0 0 1-.574-1.188 4.6 4.6 0 0 1-.195-1.335c0-.867.244-1.76.771-2.507.252-.356.562-.671.912-.927s.738-.452 1.15-.582c1.289-.39 2.58-.212 3.688.582.348.256.656.571.906.929.252.357.447.758.576 1.182.39 1.346.197 2.719-.572 3.844"/></g></svg>