<svg xmlns="http://www.w3.org/2000/svg" width="300" height="42" fill="none" viewBox="0 0 300 42"><g clip-path="url(#a)"><path fill="#003250" d="m154.235 9.505-6.814 17.543c-.069.173-.319.121-.319-.06l-.388-17.086a1.064 1.064 0 0 0-1.052-1.035h-8.255c-.491 0-.905.345-.992.828l-5.39 30.412a1.06 1.06 0 0 0 1.043 1.233h4.891c.5 0 .923-.362 1-.854l3.399-22.58c.034-.199.327-.173.327.026l.285 22.365c0 .578.483 1.043 1.061 1.043h3.709c.422 0 .793-.258.948-.647l8.574-22.856c.069-.19.362-.104.319.095l-4.468 22.158a1.057 1.057 0 0 0 1.035 1.259h4.615c.491 0 .905-.345.992-.828l5.382-30.412a1.06 1.06 0 0 0-1.044-1.234h-7.918a.99.99 0 0 0-.94.639zm13.352.19-5.382 30.412a1.058 1.058 0 0 0 1.043 1.233h4.908a1 1 0 0 0 .992-.828l5.391-30.412a1.06 1.06 0 0 0-1.044-1.233h-4.908c-.491 0-.905.345-.992.828zm25.91.725c-2.114-1.562-5.236-1.562-7.832-1.562h-6.952a1 1 0 0 0-.992.828l-5.382 30.412a1.06 1.06 0 0 0 1.044 1.234h8.358c2.337 0 4.666-.268 6.719-1.561 2.311-1.294 3.553-3.64 4.26-7.013l2.528-14.292c.707-3.122.629-6.494-1.743-8.055zm-5.529 8.314-1.837 10.652c-.639 4.157-1.096 6.244-5.055 6.037a.7.7 0 0 1-.655-.81l3.441-19.45a.67.67 0 0 1 .716-.543c3.148.258 4.037.681 3.381 4.114zm27.35-8.314c-2.113-1.562-5.235-1.562-7.831-1.562h-6.952a1 1 0 0 0-.992.828l-5.382 30.412a1.06 1.06 0 0 0 1.043 1.234h8.35c2.337 0 4.666-.268 6.719-1.561 2.311-1.294 3.553-3.64 4.26-7.013l2.528-14.292c.707-3.122.629-6.494-1.743-8.055zm-5.528 8.314-1.838 10.652c-.638 4.166-.862 6.253-5.045 6.037a.697.697 0 0 1-.656-.81l3.442-19.441a.67.67 0 0 1 .715-.544c3.149.259 4.037.682 3.382 4.115zm17.224-9.867h-4.908c-.491 0-.905.345-.992.828l-5.382 30.412a1.06 1.06 0 0 0 1.044 1.233h13.74c.491 0 .905-.345.992-.828l.785-4.433a1.06 1.06 0 0 0-1.044-1.233h-6.745a.69.69 0 0 1-.681-.811l4.243-23.935a1.06 1.06 0 0 0-1.043-1.233zm24.444 18.13.785-4.425a1.06 1.06 0 0 0-1.044-1.233h-6.771a.7.7 0 0 1-.69-.794l.699-4.623a.66.66 0 0 1 .655-.56h7.935a1 1 0 0 0 .992-.829l.785-4.424a1.06 1.06 0 0 0-1.043-1.234h-14.258c-.491 0-.905.345-.992.828l-5.39 30.413a1.058 1.058 0 0 0 1.043 1.233h14.784c.491 0 .905-.345.992-.828l.785-4.433a1.06 1.06 0 0 0-1.044-1.234h-7.763a.7.7 0 0 1-.681-.828l1.13-5.658a.656.656 0 0 1 .647-.535h7.443a1 1 0 0 0 .992-.828zm15.784-18.13h-8.246a1 1 0 0 0-.992.828l-5.382 30.412a1.06 1.06 0 0 0 1.044 1.233h8.875c5.718 0 9.807-2.855 10.954-9.358.681-4.157.379-5.977-2.777-7.797h.258q3.845-2.342 4.52-7.012c1.147-6.495-2.786-8.315-8.246-8.315zm-.785 22.339c-.863 4.07-2.036 4.166-5.055 4.157a.705.705 0 0 1-.69-.81l1.139-6.66a.66.66 0 0 1 .699-.543c2.786.199 4.545.207 3.907 3.856m1.768-13.507c-.63 3.545-1.76 3.864-4.502 3.898a.696.696 0 0 1-.69-.828l1.129-5.658a.67.67 0 0 1 .656-.535c2.329.018 4.071.225 3.416 3.114zm17.673 1.018-1.518-8.962a1.056 1.056 0 0 0-1.044-.88h-5.149a1.01 1.01 0 0 0-.992 1.216l3.519 17.303a.9.9 0 0 1 0 .379l-2.053 12.36a1.06 1.06 0 0 0 1.044 1.225h5.175c.5 0 .914-.354.992-.846l2.113-12.748a.9.9 0 0 1 .121-.336l9.755-16.983c.397-.69-.121-1.561-.923-1.561h-4.839c-.379 0-.724.207-.897.543l-4.821 9.393c-.121.224-.457.164-.5-.086zM81.939.078l-81.5 39.96c-.715.354-.5 1.423.294 1.423H74.53c.724 0 1.354-.535 1.483-1.25L82.983.863A.727.727 0 0 0 81.93.086z"/><path fill="#e22d3f" d="M119.036 40.21 126.005.864a.727.727 0 0 0-1.052-.777l-81.49 39.952c-.717.354-.501 1.423.292 1.423h73.797c.725 0 1.354-.535 1.484-1.25"/></g><defs><clipPath id="a"><path fill="#fff" d="M0 0h300v41.34H0z"/></clipPath></defs></svg>